SplineFontDB: 3.2
FontName: Classon
FullName: Classon
FamilyName: Classon
Weight: Regular
Copyright: Copyright (c) 2022, Gabriel Classon. 
UComments: "2022-1-26: Created with FontForge (http://fontforge.org)"
Version: 001.000
ItalicAngle: 0
UnderlinePosition: -100
UnderlineWidth: 50
Ascent: 800
Descent: 200
InvalidEm: 0
LayerCount: 2
Layer: 0 0 "Back" 1
Layer: 1 0 "Fore" 0
XUID: [1021 930 -1503615855 26806]
StyleMap: 0x0000
FSType: 0
OS2Version: 0
OS2_WeightWidthSlopeOnly: 0
OS2_UseTypoMetrics: 1
CreationTime: 1643235119
ModificationTime: 1643257678
OS2TypoAscent: 0
OS2TypoAOffset: 1
OS2TypoDescent: 0
OS2TypoDOffset: 1
OS2TypoLinegap: 90
OS2WinAscent: 0
OS2WinAOffset: 1
OS2WinDescent: 0
OS2WinDOffset: 1
HheadAscent: 0
HheadAOffset: 1
HheadDescent: 0
HheadDOffset: 1
OS2Vendor: 'PfEd'
MarkAttachClasses: 1
DEI: 91125
LangName: 1033
Encoding: UnicodeFull
UnicodeInterp: none
NameList: AGL For New Fonts
DisplaySize: -48
AntiAlias: 1
FitToEm: 0
WinInfo: 0 38 14
BeginPrivate: 0
EndPrivate
Grid
-1000 274.542301178 m 0
 2000 274.542301178 l 1024
  Named: "hyphen height"
-1000 403.5 m 0
 2000 403.5 l 1024
  Named: "e height"
-1000 731.273864746 m 0
 2000 731.273864746 l 1024
  Named: "J height"
EndSplineSet
BeginChars: 1114112 118

StartChar: A
Encoding: 65 65 0
Width: 674
Flags: HW
LayerCount: 2
Fore
SplineSet
464 302 m 4
 475 311 490 309 499 298 c 4
 508 287 506 272 495 263 c 4
 492 261 502 272 502 272 c 4
 501 269 489 256 480 253 c 4
 469 250 465 252 455 251 c 4
 445 250 428 248 409 247 c 4
 389 246 364 247 342 247 c 4
 320 247 297 247 276 247 c 4
 255 247 235 247 218 247 c 4
 202 247 186 246 174 247 c 4
 155 248 143 251 130 252 c 4
 116 253 107 265 108 279 c 4
 109 293 121 302 135 301 c 4
 150 299 160 298 177 297 c 4
 185 297 201 297 218 297 c 4
 235 297 255 297 276 297 c 4
 297 297 320 297 342 297 c 4
 365 297 389 296 407 297 c 4
 424 298 439 299 451 300 c 4
 456 300 462 301 465 301 c 4
 467 301 467 302 468 302 c 4
 469 302 464 300 467 301 c 4
 465 300 l 4
 468 302 455 289 455 289 c 4
 455 289 458 297 464 302 c 1028
304 702 m 4
 302 716 311 728 325 730 c 4
 339 732 351 722 353 708 c 4
 354 699 353 706 353 704 c 4
 353 703 353 703 353 701 c 4
 353 697 353 699 353 697 c 4
 354 686 352 698 353 694 c 4
 355 686 359 676 366 657 c 4
 374 635 386 607 400 571 c 4
 415 535 434 488 452 442 c 4
 471 395 492 341 510 296 c 4
 528 250 545 208 560 172 c 4
 574 139 585 111 595 90 c 4
 604 71 610 59 615 50 c 4
 619 42 621 41 622 39 c 4
 623 38 624 36 624 36 c 4
 621 39 l 4
 616 42 l 4
 616 42 599 45 604 45 c 4
 609 45 588 39 591 41 c 4
 594 43 585 35 585 35 c 4
 582 29 l 4
 583 32 582 28 582 29 c 4
 581 23 l 4
 581 23 581 22 581 22 c 4
 581 24 580 28 580 31 c 4
 579 45 589 56 603 57 c 4
 617 58 629 49 630 35 c 4
 630 34 630 30 630 28 c 4
 630 27 631 26 631 25 c 4
 631 24 633 27 630 15 c 4
 630 15 630 14 629 11 c 4
 628 9 627 8 624 4 c 4
 618 -3 598 -5 592 -1 c 4
 579 7 584 6 583 8 c 4
 582 9 576 17 571 27 c 4
 566 37 559 49 550 69 c 4
 540 91 528 119 514 153 c 4
 499 189 482 232 464 277 c 4
 446 322 425 376 406 423 c 4
 388 468 369 515 354 552 c 4
 340 588 328 617 320 639 c 4
 312 659 308 671 305 681 c 4
 303 687 303 693 303 698 c 4
 303 700 304 696 304 697 c 4
 303 695 l 4
 303 699 303 698 303 701 c 4
 303 703 303 703 303 704 c 4
 303 705 303 706 303 706 c 4
 304 702 l 1028
58 50 m 4
 68 59 84 58 93 48 c 4
 102 38 101 22 91 13 c 4
 90 12 90 12 87 8 c 4
 85 6 83 4 79 1 c 4
 75 -2 65 -6 55 -3 c 4
 40 1 42 7 40 10 c 4
 35 20 35 30 38 42 c 4
 41 53 44 71 56 98 c 4
 69 129 88 168 110 214 c 4
 132 260 161 320 184 369 c 4
 207 419 229 469 246 511 c 4
 262 551 274 588 283 616 c 4
 291 640 294 656 297 671 c 4
 300 683 300 691 301 699 c 4
 302 706 303 703 303 706 c 4
 303 708 303 710 304 713 c 4
 305 715 307 718 307 718 c 4
 305 713 l 4
 305 713 305 714 305 715 c 4
 310 728 325 733 338 728 c 4
 351 723 356 709 351 696 c 4
 351 696 352 698 352 698 c 4
 349 690 352 697 352 697 c 4
 352 697 351 698 350 691 c 4
 349 686 348 675 345 660 c 4
 342 646 340 628 331 601 c 4
 322 572 309 534 292 492 c 4
 275 449 252 399 229 348 c 4
 206 297 176 238 155 193 c 4
 133 147 114 107 102 78 c 4
 92 53 89 41 86 29 c 4
 85 26 85 30 85 28 c 4
 83 34 l 4
 80 38 l 4
 77 41 l 4
 69 45 l 4
 73 44 54 44 57 45 c 4
 51 42 l 4
 51 42 49 41 49 41 c 4
 50 42 52 45 58 50 c 1028
EndSplineSet
EndChar

StartChar: B
Encoding: 66 66 1
Width: 653
Flags: HW
LayerCount: 2
Fore
SplineSet
121.1015625 726.986328125 m 0
 134.08984375 732.552734375 149.119140625 726.541015625 154.685546875 713.552734375 c 0
 160.251953125 700.564453125 154.240234375 685.498046875 141.251953125 679.931640625 c 0
 135.388671875 677.4453125 128.931640625 674.216796875 120.248046875 670.951171875 c 0
 113.6796875 668.501953125 111.453125 668.61328125 108.70703125 667.72265625 c 0
 104.7734375 666.4609375 96.275390625 663.009765625 89.150390625 660.931640625 c 0
 85.328125 659.78125 81.09765625 659.1875 78.27734375 659.11328125 c 0
 78.27734375 659.11328125 78.091796875 659.11328125 77.349609375 659.11328125 c 0
 81.98828125 659.818359375 l 0
 84.623046875 660.8203125 l 0
 84.21484375 660.634765625 86.44140625 661.93359375 86.44140625 661.93359375 c 0
 88.927734375 663.9375 l 0
 91.48828125 666.68359375 l 0
 95.71875 674.513671875 l 0
 92.341796875 664.345703125 86.775390625 661.970703125 85.84765625 661.302734375 c 0
 85.69921875 661.228515625 87.517578125 662.6015625 87.517578125 662.6015625 c 0
 90.634765625 665.755859375 l 0
 95.310546875 674.1796875 l 0
 96.53515625 681.52734375 l 0
 96.4609375 676.109375 89.484375 700.341796875 92.119140625 696.482421875 c 0
 94.45703125 693.068359375 85.328125 703.236328125 85.328125 703.236328125 c 0
 88.66796875 701.009765625 78.57421875 706.46484375 78.57421875 706.46484375 c 0
 75.197265625 707.244140625 l 0
 76.236328125 707.095703125 76.49609375 707.169921875 76.49609375 707.169921875 c 0
 78.72265625 706.947265625 84.177734375 706.576171875 94.01171875 706.279296875 c 0
 104.587890625 705.982421875 119.357421875 706.130859375 140.658203125 705.3515625 c 0
 161.736328125 704.572265625 190.755859375 703.904296875 221.333984375 701.4921875 c 0
 252.54296875 699.04296875 289.986328125 695.77734375 323.49609375 690.87890625 c 0
 356.74609375 686.017578125 390.88671875 680.673828125 420.6484375 672.138671875 c 0
 447.404296875 664.494140625 473.529296875 656.404296875 494.533203125 640.447265625 c 0
 514.869140625 624.97265625 528.302734375 603.59765625 533.38671875 581.146484375 c 0
 538.2109375 559.771484375 537.580078125 533.349609375 524.5546875 507.9296875 c 0
 511.7890625 482.9921875 489.486328125 457.498046875 463.658203125 436.9765625 c 0
 436.90234375 415.712890625 404.0234375 399.64453125 373.779296875 386.248046875 c 0
 341.345703125 371.849609375 306.3515625 361.94140625 277.517578125 353.740234375 c 0
 249.796875 345.8359375 224.33984375 341.791015625 205.265625 338.080078125 c 0
 185.078125 334.109375 169.41796875 332.291015625 158.248046875 330.361328125 c 0
 147.00390625 328.46875 139.8046875 326.91015625 132.865234375 325.685546875 c 0
 126.59375 324.53515625 122.845703125 324.052734375 121.955078125 323.8671875 c 0
 120.73046875 323.607421875 121.3984375 323.830078125 120.43359375 323.5703125 c 0
 120.099609375 323.458984375 123.142578125 324.4609375 123.142578125 324.4609375 c 0
 126.482421875 326.130859375 l 0
 129.265625 328.060546875 l 0
 133.236328125 331.95703125 l 0
 137.65234375 340.083984375 l 0
 136.46484375 336.484375 137.65234375 357.302734375 138.505859375 352.8125 c 0
 139.28515625 348.65625 133.904296875 363.3515625 133.904296875 363.3515625 c 0
 128.708984375 368.546875 l 0
 122.2890625 372.072265625 l 0
 117.46484375 373.333984375 l 0
 114.125 373.630859375 l 0
 114.94140625 373.630859375 117.46484375 373.779296875 127.373046875 374.484375 c 0
 137.837890625 375.263671875 154.57421875 376.896484375 175.94921875 378.306640625 c 0
 198.66015625 379.791015625 228.05078125 381.98046875 259.1484375 383.09375 c 0
 290.24609375 384.20703125 327.80078125 386.841796875 363.796875 384.94921875 c 0
 397.34375 383.205078125 433.5625 380.755859375 465.99609375 371.73828125 c 0
 497.205078125 363.0546875 525.59375 349.47265625 548.341796875 332.55078125 c 0
 571.7578125 315.109375 588.16015625 293.06640625 600.072265625 271.171875 c 0
 611.947265625 249.42578125 621.224609375 223.931640625 621.224609375 197.32421875 c 0
 621.224609375 173.5 616.5859375 145.333984375 597.919921875 121.064453125 c 0
 579.921875 97.6484375 553.091796875 76.384765625 518.69140625 59.611328125 c 0
 483.400390625 42.4296875 437.421875 29.255859375 394.560546875 19.71875 c 0
 350.400390625 9.921875 302.306640625 5.69140625 262.33984375 2.166015625 c 0
 221.7421875 -1.43359375 184.076171875 -1.099609375 154.462890625 -1.73046875 c 0
 125.77734375 -2.361328125 103.21484375 -1.73046875 85.662109375 -1.73046875 c 0
 69.333984375 -1.73046875 59.3515625 -5.181640625 42.50390625 -0.98828125 c 0
 37.419921875 0.2734375 29.552734375 2.166015625 23.28125 12.259765625 c 0
 18.345703125 20.23828125 18.865234375 30.369140625 20.646484375 35.638671875 c 0
 22.91015625 42.541015625 25.099609375 44.359375 25.322265625 44.65625 c 0
 25.359375 44.693359375 24.060546875 42.244140625 24.060546875 42.244140625 c 0
 22.6875 38.05078125 l 0
 22.279296875 30.77734375 l 0
 20.869140625 44.841796875 31.1484375 57.384765625 45.212890625 58.794921875 c 0
 59.27734375 60.205078125 71.8203125 49.92578125 73.193359375 35.861328125 c 0
 74.34375 24.6171875 69.96484375 19.49609375 68.40625 17.046875 c 0
 67.404296875 15.48828125 67.701171875 16.0078125 67.3671875 15.48828125 c 0
 69.482421875 20.498046875 l 0
 68.77734375 17.9375 69.890625 31.185546875 69.890625 31.185546875 c 0
 70.55859375 27.845703125 65.8828125 40.57421875 65.8828125 40.57421875 c 0
 68.591796875 36.7890625 58.126953125 47.40234375 58.126953125 47.40234375 c 0
 54.861328125 48.701171875 l 0
 57.79296875 47.958984375 54.3046875 48.998046875 54.3046875 48.998046875 c 0
 59.982421875 48.88671875 71.96875 49.443359375 85.625 49.443359375 c 0
 104.142578125 49.443359375 125.888671875 48.849609375 153.3125 49.443359375 c 0
 183.927734375 50.111328125 220.109375 49.814453125 257.775390625 53.154296875 c 0
 297.4453125 56.6796875 343.7578125 60.873046875 383.390625 69.705078125 c 0
 423.69140625 78.6484375 467.33203125 91.5625 496.203125 105.626953125 c 0
 524.517578125 119.431640625 545.001953125 136.279296875 557.28515625 152.236328125 c 0
 567.119140625 165.0390625 569.9765625 179.8828125 569.9765625 197.32421875 c 0
 569.9765625 211.5 563.890625 230.57421875 555.095703125 246.6796875 c 0
 545.70703125 263.8984375 533.83203125 279.484375 517.763671875 291.470703125 c 0
 500.841796875 304.05078125 477.6484375 315.369140625 452.228515625 322.419921875 c 0
 426.8828125 329.470703125 393.521484375 332.142578125 361.087890625 333.849609375 c 0
 329.248046875 335.51953125 292.9921875 333.0703125 260.966796875 331.919921875 c 0
 231.01953125 330.84375 202.22265625 328.728515625 179.251953125 327.244140625 c 0
 158.693359375 325.908203125 142.587890625 324.3125 131.12109375 323.458984375 c 0
 121.1015625 322.716796875 117.501953125 322.419921875 114.05078125 322.419921875 c 0
 113.30859375 322.419921875 112.455078125 322.419921875 110.63671875 322.642578125 c 0
 110.63671875 322.642578125 105.528027636 318.046841371 93.974609375 331.36328125 c 0
 87.666015625 338.63671875 87.48046875 355.41015625 91.896484375 362.1640625 c 0
 103.984757014 380.620604952 105.21875 372.48046875 106.5546875 372.888671875 c 0
 109.671875 373.779296875 110.673828125 373.853515625 111.8984375 374.076171875 c 0
 115.83203125 374.892578125 118.578125 375.15234375 123.7734375 376.080078125 c 0
 129.63671875 377.119140625 137.50390625 378.7890625 149.564453125 380.8671875 c 0
 162.6640625 383.09375 177.13671875 384.763671875 195.431640625 388.326171875 c 0
 215.58203125 392.259765625 239.109375 396.044921875 263.453125 402.984375 c 0
 291.990234375 411.111328125 324.943359375 420.611328125 352.9609375 433.04296875 c 0
 381.4609375 445.697265625 411.1484375 460.689453125 431.78125 477.091796875 c 0
 451.96875 493.123046875 471.080078125 515.833984375 478.947265625 531.271484375 c 0
 486.109375 545.1875 486.294921875 557.2109375 483.4375 569.865234375 c 0
 480.98828125 580.626953125 474.60546875 591.27734375 463.509765625 599.701171875 c 0
 452.5625 608.05078125 431.373046875 615.880859375 406.546875 622.96875 c 0
 381.126953125 630.2421875 348.65625 635.474609375 316.037109375 640.26171875 c 0
 284.642578125 644.86328125 248.015625 648.0546875 217.251953125 650.50390625 c 0
 188.455078125 652.767578125 160.2890625 653.3984375 138.69140625 654.21484375 c 0
 118.466796875 654.994140625 104.587890625 654.80859375 92.453125 655.142578125 c 0
 81.802734375 655.4765625 75.345703125 655.921875 72.04296875 656.181640625 c 0
 67.478515625 656.58984375 36.41796875 658.59375 47.142578125 690.73046875 c 0
 52.078125 705.611328125 55.640625 702.939453125 57.19921875 704.015625 c 0
 61.244140625 706.8359375 63.65625 707.912109375 68.48046875 709.2109375 c 0
 78.8262947838 712.032526418 74.5723244004 710.010517574 74.56640625 710.02734375 c 0
 77.1640625 710.76953125 86.14453125 714.2578125 92.935546875 716.447265625 c 0
 99.541015625 718.599609375 100.83984375 718.376953125 102.25 718.93359375 c 0
 108.373046875 721.234375 113.791015625 723.90625 121.064453125 727.0234375 c 1024
162.923828125 735.966796875 m 0
 176.134765625 730.994140625 182.8515625 716.224609375 177.87890625 703.013671875 c 0
 172.90625 689.765625 158.173828125 683.048828125 144.92578125 688.021484375 c 0
 137.837890625 690.693359375 135.759765625 692.994140625 135.537109375 693.10546875 c 0
 135.12890625 693.365234375 139.990234375 691.435546875 139.990234375 691.435546875 c 0
 137.1328125 692.103515625 150.1953125 691.84375 150.1953125 691.84375 c 0
 150.1953125 691.84375 149.267578125 691.583984375 148.376953125 691.32421875 c 0
 157.654296875 695.92578125 l 0
 162.478515625 701.26953125 l 0
 164.37109375 705.240234375 l 0
 164.296875 704.98046875 164.259765625 704.943359375 164.111328125 703.64453125 c 0
 161.513671875 685.498046875 158.28515625 664.828125 156.7265625 634.84375 c 0
 155.91015625 618.998046875 156.763671875 591.12890625 156.763671875 560.328125 c 0
 156.763671875 529.787109375 155.984375 493.16015625 156.763671875 456.5703125 c 0
 157.580078125 418.19921875 159.287109375 375.708984375 161.4765625 335.1484375 c 0
 163.703125 293.994140625 166.708984375 251.1328125 169.9375 212.724609375 c 0
 172.98046875 176.654296875 177.396484375 140.880859375 180.328125 111.67578125 c 0
 183.1484375 83.658203125 185.375 61.095703125 187.0078125 43.208984375 c 0
 188.529296875 26.287109375 189.234375 15.822265625 189.90234375 6.65625 c 0
 190.533203125 -2.658203125 190.71875 -10.1171875 190.830078125 -11.119140625 c 0
 190.978515625 -12.900390625 191.08984375 -14.162109375 191.126953125 -14.94140625 c 0
 191.1640625 -15.4609375 191.015625 -14.19921875 191.08984375 -14.978515625 c 0
 191.1640625 -15.3125 190.79296875 -12.974609375 190.79296875 -12.974609375 c 0
 189.568359375 -8.70703125 l 0
 190.978515625 -12.26953125 182.666015625 1.08984375 182.666015625 1.08984375 c 0
 185.671875 -1.544921875 187.6015625 -4.25390625 189.16015625 -7.37109375 c 0
 190.8671875 -10.748046875 181.88671875 1.38671875 181.88671875 1.38671875 c 0
 184.298828125 -0.431640625 173.908203125 5.431640625 173.908203125 5.431640625 c 0
 178.02734375 4.20703125 162.923828125 6.0625 162.923828125 6.0625 c 0
 156.7265625 4.05859375 l 0
 160.029296875 5.728515625 156.837890625 4.35546875 159.658203125 6.248046875 c 0
 171.421875 14.115234375 187.3046875 10.923828125 195.171875 -0.83984375 c 0
 203.001953125 -12.603515625 199.810546875 -28.486328125 188.083984375 -36.31640625 c 0
 186.93359375 -37.05859375 185.708984375 -38.69140625 179.623046875 -41.697265625 c 0
 171.755859375 -45.630859375 150.380859375 -44.220703125 143.404296875 -30.267578125 c 0
 139.13671875 -21.76953125 140.25 -20.693359375 139.841796875 -15.1640625 c 0
 139.470703125 -10.859375 139.43359375 -5.0703125 138.876953125 3.09375 c 0
 138.208984375 12.333984375 137.541015625 22.130859375 136.056640625 38.5703125 c 0
 134.4609375 56.197265625 132.271484375 78.6484375 129.451171875 106.591796875 c 0
 126.59375 134.943359375 122.140625 171.162109375 118.986328125 208.419921875 c 0
 115.68359375 247.384765625 112.640625 290.69140625 110.4140625 332.40234375 c 0
 108.1875 373.482421875 106.443359375 416.41796875 105.626953125 455.53125 c 0
 104.84765625 493.3828125 105.626953125 530.529296875 105.626953125 560.328125 c 0
 105.626953125 590.275390625 104.662109375 617.736328125 105.6640625 637.478515625 c 0
 107.333984375 669.912109375 110.93359375 693.068359375 113.45703125 710.84375 c 0
 114.34765625 717.078125 115.201171875 722.458984375 119.54296875 729.138671875 c 0
 121.91796875 732.701171875 125.8515625 736.634765625 130.490234375 738.935546875 c 0
 132.75390625 740.048828125 134.90625 740.716796875 136.205078125 741.05078125 c 0
 134.98046875 740.6796875 l 0
 145.96484375 744.130859375 156.875 739.974609375 161.513671875 737.228515625 c 0
 163.517578125 736.041015625 164.66796875 735.224609375 165.076171875 734.96484375 c 0
 165.3359375 734.81640625 162.9609375 735.9296875 162.9609375 735.9296875 c 1024
EndSplineSet
EndChar

StartChar: C
Encoding: 67 67 2
Width: 619
Flags: HW
LayerCount: 2
Fore
SplineSet
535.803710938 636.619140625 m 0
 535.803710938 622.48046875 524.336914062 611.013671875 510.198242188 611.013671875 c 0
 496.059570312 611.013671875 484.592773438 622.48046875 484.592773438 636.619140625 c 0
 484.592773438 647.083984375 496.282226562 659.404296875 503.481445312 661.37109375 c 0
 522.333007812 666.529296875 518.807617188 660.8515625 519.661132812 660.5546875 c 0
 520.106445312 660.40625 518.918945312 660.77734375 518.918945312 660.77734375 c 0
 516.024414062 661.4453125 l 0
 513.129882812 661.7421875 l 0
 508.045898438 661.4453125 l 0
 499.510742188 658.439453125 l 0
 502.924804688 660.369140625 487.375976562 644.44921875 489.862304688 648.828125 c 0
 492.200195312 652.947265625 486.522460938 636.619140625 486.522460938 636.619140625 c 0
 486.596679688 639.84765625 487.598632812 628.900390625 487.598632812 628.900390625 c 0
 490.604492188 622.369140625 l 0
 493.350585938 618.91796875 l 0
 494.204101562 618.02734375 l 0
 493.944335938 618.212890625 489.008789062 622.109375 482.329101562 626.302734375 c 0
 472.717773438 632.3515625 464.182617188 639.03125 452.047851562 644.671875 c 0
 436.536132812 651.833984375 416.088867188 660.591796875 397.051757812 666.009765625 c 0
 375.825195312 672.021484375 355.860351562 677.625 334.967773438 678.330078125 c 0
 313.184570312 679.03515625 286.131835938 676.21484375 263.272460938 670.537109375 c 0
 239.040039062 664.48828125 216.329101562 656.62109375 196.809570312 644.337890625 c 0
 175.991210938 631.201171875 155.247070312 612.609375 138.622070312 592.05078125 c 0
 122.627929688 572.271484375 108.971679688 548.6328125 98.9521484375 523.02734375 c 0
 88.6357421875 496.642578125 81.4365234375 466.62109375 77.7998046875 435.5234375 c 0
 74.0146484375 403.349609375 74.1259765625 347.8359375 76.9462890625 312.470703125 c 0
 79.6181640625 278.8125 86.3349609375 241.146484375 94.2763671875 209.56640625 c 0
 102.254882812 177.763671875 112.125976562 147.7421875 123.444335938 126.033203125 c 0
 134.725585938 104.287109375 146.637695312 89.146484375 161.370117188 77.234375 c 0
 174.618164062 66.546875 190.018554688 59.978515625 211.208007812 54.708984375 c 0
 233.065429688 49.216796875 261.083007812 46.470703125 288.952148438 46.916015625 c 0
 317.081054688 47.3984375 350.071289062 52.927734375 382.022460938 57.974609375 c 0
 411.709960938 62.6875 443.772460938 69.44140625 469.118164062 75.6015625 c 0
 493.127929688 81.427734375 513.241210938 88.181640625 530.534179688 93.970703125 c 0
 545.674804688 99.017578125 554.655273438 103.396484375 568.200195312 108.666015625 c 0
 581.374023438 113.82421875 596.217773438 107.330078125 601.338867188 94.15625 c 0
 606.459960938 80.982421875 599.965820312 66.138671875 586.791992188 61.017578125 c 0
 575.139648438 56.453125 564.415039062 51.294921875 546.713867188 45.39453125 c 0
 529.420898438 39.60546875 507.600585938 32.2578125 481.141601562 25.837890625 c 0
 454.571289062 19.41796875 421.543945312 12.404296875 390.038085938 7.431640625 c 0
 358.235351562 2.421875 323.389648438 -3.73828125 289.731445312 -4.2578125 c 0
 258.002929688 -4.740234375 226.311523438 -1.845703125 198.776367188 5.056640625 c 0
 173.208007812 11.439453125 149.569335938 20.939453125 129.159179688 37.453125 c 0
 108.452148438 54.2265625 91.7900390625 75.935546875 78.0224609375 102.431640625 c 0
 63.7724609375 129.818359375 53.1962890625 162.919921875 44.6240234375 197.09765625 c 0
 36.0146484375 231.349609375 28.8896484375 271.130859375 25.9208984375 308.42578125 c 0
 22.9150390625 346.42578125 22.6923828125 405.01953125 26.9599609375 441.4609375 c 0
 31.0791015625 476.603515625 39.1689453125 510.669921875 51.3037109375 541.65625 c 0
 63.1787109375 572.01171875 79.3212890625 600.103515625 98.8408203125 624.26171875 c 0
 118.991210938 649.162109375 143.409179688 671.16796875 169.534179688 687.64453125 c 0
 195.547851562 704.009765625 223.676757812 713.435546875 250.952148438 720.189453125 c 0
 278.895507812 727.12890625 309.399414062 730.357421875 336.637695312 729.466796875 c 0
 365.100585938 728.5390625 389.592773438 721.302734375 411.004882812 715.25390625 c 0
 434.458007812 708.611328125 456.834960938 698.8515625 473.571289062 691.095703125 c 0
 490.975585938 683.04296875 503.073242188 673.765625 509.641601562 669.609375 c 0
 518.584960938 663.96875 524.559570312 659.29296875 526.192382812 657.994140625 c 0
 527.713867188 656.806640625 528.715820312 656.62109375 532.166992188 652.205078125 c 0
 533.836914062 650.08984375 540.627929688 646.8984375 537.139648438 630.79296875 c 0
 535.432617188 622.92578125 528.456054688 615.541015625 522.815429688 612.90625 c 0
 506.004882812 605.150390625 505.708007812 611.2734375 504.223632812 611.755859375 c 0
 504.223632812 611.755859375 503.481445312 612.015625 502.739257812 612.23828125 c 0
 507.340820312 611.236328125 l 0
 511.163085938 611.087890625 l 0
 516.284179688 611.79296875 l 0
 522.036132812 613.9453125 l 0
 518.622070312 612.1640625 534.727539062 627.712890625 532.055664062 623.296875 c 0
 529.346679688 618.880859375 535.803710938 640.515625 535.803710938 636.619140625 c 1024
EndSplineSet
EndChar

StartChar: D
Encoding: 68 68 3
Width: 687
Flags: HW
LayerCount: 2
Fore
SplineSet
193 637 m 0
 196 623 188 609 174 606 c 0
 160 603 146 611 143 625 c 0
 142 630 142 631 142 632 c 0
 142 632 142 631 142 632 c 0
 143 629 l 0
 145 625 l 0
 144 627 150 619 150 619 c 0
 155 615 l 0
 155 615 166 612 163 612 c 0
 172 613 l 0
 167 612 184 619 184 619 c 0
 188 623 l 0
 191 628 l 0
 192 633 l 0
 192 633 192 635 192 635 c 0
 192 634 192 628 192 619 c 0
 192 608 191 596 191 572 c 0
 191 546 190 508 189 468 c 0
 188 426 186 387 183 341 c 0
 180 295 178 247 174 204 c 0
 170 164 165 125 160 95 c 0
 155 66 151 44 146 26 c 0
 141 7 135 -6 131 -16 c 0
 127 -27 122 -34 120 -38 c 0
 116 -44 112 -49 111 -50 c 0
 106 -55 106 -57 97 -60 c 0
 92 -62 77 -61 69 -53 c 0
 66 -49 65 -48 65 -48 c 0
 65 -47 69 -53 69 -53 c 0
 64 -48 62 -45 61 -38 c 0
 60 -35 60 -29 61 -24 c 0
 60 -29 l 0
 60 -27 62 -16 68 -8 c 0
 70 -5 75 1 84 8 c 0
 90 13 101 22 119 32 c 0
 137 42 160 52 188 64 c 0
 218 76 254 89 290 104 c 0
 329 120 373 137 409 157 c 0
 446 177 482 200 509 223 c 0
 535 245 555 268 569 291 c 0
 582 314 589 340 593 366 c 0
 597 392 598 401 593 431 c 0
 589 459 576 492 559 519 c 0
 540 548 515 576 483 599 c 0
 449 623 406 647 361 660 c 0
 293 680 263 678 242 677 c 4
 165.746592646 673.368885364 177 672 142 665 c 0
 122 661 113 655 99 650 c 0
 89 646 85 644 77 641 c 0
 64 636 48 642 43 655 c 0
 38 668 44 683 57 688 c 0
 63 691 69 694 81 698 c 0
 90 701 105.870759741 709.566650755 131 715 c 4
 168 723 165.527317039 721.334988911 226 725 c 0
 250 727 298 732 375 709 c 0
 426 694 475 668 513 641 c 0
 551 614 580 580 602 547 c 0
 624 513 637 474 644 441 c 0
 651 407 649 386 644 357 c 0
 639 327 631 295 613 265 c 0
 596 236 571 209 542 184 c 0
 511 158 473 133 434 112 c 0
 394 90 348 72 310 56 c 0
 272 40 234 28 207 17 c 0
 180 6 159 -5 143 -13 c 0
 130 -20 125 -25 116 -32 c 0
 111 -36 110 -37 108 -40 c 0
 108 -40 114 -21 111 -35 c 0
 111 -35 110 -23 111 -28 c 0
 112 -33 100 -12 105 -17 c 0
 108 -20 109 -21 109 -22 c 0
 108 -20 l 0
 109 -22 102 -15 102 -15 c 0
 107 -18 83 -10 87 -10 c 0
 91 -10 80 -11 80 -11 c 0
 83 -10 77 -13 77 -13 c 0
 73 -16 l 0
 75 -14 75 -14 76 -12 c 0
 79 -7 81 -4 84 3 c 0
 88 13 92 23 96 39 c 0
 101 56 106 76 110 103 c 0
 115 132 119 170 123 209 c 0
 127 251 129 298 132 344 c 0
 135 389 137 429 138 470 c 0
 139 509 140 547 140 573 c 0
 140 597 141 609 141 620 c 0
 141 630 140 631 142 641 c 0
 142 642 141 644 144 650 c 0
 146 653 150 661 163 663 c 0
 176 665 185 657 188 653 c 0
 196 643 193 642 193 641 c 0
 194 637 192 640 193 637 c 1024
EndSplineSet
EndChar

StartChar: E
Encoding: 69 69 4
Width: 681
Flags: HW
LayerCount: 2
Fore
SplineSet
382.869140625 353.3515625 m 0
 382.869140625 367.490234375 394.3359375 378.919921875 408.474609375 378.919921875 c 0
 422.61328125 378.919921875 434.080078125 367.490234375 434.080078125 353.3515625 c 0
 434.080078125 350.0859375 432.55859375 361.8125 432.55859375 361.8125 c 0
 434.04296875 357.73046875 428.1796875 369.234375 428.1796875 369.234375 c 0
 427.2890625 370.19921875 l 0
 429.21875 368.4921875 439.23828125 362.517578125 436.380859375 345.3359375 c 0
 433.5234375 328.265625 422.31640625 325.51953125 417.603515625 323.73828125 c 0
 404.65234375 318.802734375 408.4375 321.80859375 404.875 321.474609375 c 0
 401.08984375 321.103515625 396.265625 320.6953125 390.69921875 320.25 c 0
 379.71484375 319.322265625 362.830078125 317.05859375 341.009765625 316.353515625 c 0
 319.486328125 315.685546875 290.615234375 315.87109375 265.7890625 316.353515625 c 0
 240.2578125 316.873046875 214.021484375 317.94921875 191.830078125 319.248046875 c 0
 169.935546875 320.546875 150.638671875 322.439453125 134.755859375 324.072265625 c 0
 119.20703125 325.705078125 107.443359375 327.857421875 99.2421875 328.859375 c 0
 90.892578125 329.861328125 83.322265625 330.41796875 80.205078125 330.677734375 c 0
 81.35546875 330.71484375 l 0
 85.029296875 331.271484375 l 0
 88.666015625 332.421875 l 0
 94.974609375 336.095703125 l 0
 99.31640625 340.474609375 l 0
 103.32421875 347.93359375 l 0
 102.322265625 344.96484375 104.623046875 357.65625 104.623046875 357.65625 c 0
 104.80859375 354.46484375 102.544921875 366.228515625 102.544921875 366.228515625 c 0
 104.51171875 361.701171875 96.013671875 375.24609375 96.013671875 375.24609375 c 0
 99.46484375 372.203125 88.48046875 379.84765625 88.48046875 379.84765625 c 0
 93.638671875 377.84375 78.23828125 381.48046875 78.23828125 381.48046875 c 0
 72.89453125 380.515625 l 0
 65.17578125 376.619140625 l 0
 75.009765625 384.00390625 73.1171875 381.072265625 74.75 381.888671875 c 0
 87.404296875 388.197265625 102.767578125 383.11328125 109.11328125 370.458984375 c 0
 115.421875 357.8046875 110.30078125 342.44140625 97.646484375 336.1328125 c 0
 96.458984375 335.501953125 95.16015625 334.87109375 94.046875 334.3515625 c 0
 93.52734375 334.091796875 93.08203125 333.869140625 92.896484375 333.7578125 c 0
 92.78515625 333.720703125 93.0078125 333.83203125 93.0078125 333.83203125 c 0
 92.748046875 333.720703125 95.865234375 335.6875 95.865234375 335.6875 c 0
 88.740234375 330.34375 83.359375 330.26953125 79.314453125 330.34375 c 0
 76.345703125 330.380859375 73.970703125 330.046875 67.84765625 333.052734375 c 0
 65.064453125 334.42578125 59.83203125 336.169921875 55.638671875 345.85546875 c 0
 51.482421875 355.35546875 56.1953125 369.6796875 61.501953125 374.689453125 c 0
 75.3182913449 387.833645161 76.90234375 381.862772429 79.166015625 381.8515625 c 0
 81.20703125 381.888671875 82.83984375 381.814453125 84.658203125 381.666015625 c 0
 86.55078125 381.48046875 95.53125 380.849609375 105.40234375 379.662109375 c 0
 115.904296875 378.400390625 126.517578125 376.396484375 140.0625 374.986328125 c 0
 155.6484375 373.353515625 174.091796875 371.53515625 194.8359375 370.34765625 c 0
 216.322265625 369.0859375 242.0390625 368.009765625 266.828125 367.52734375 c 0
 291.0234375 367.08203125 319.560546875 366.896484375 339.451171875 367.52734375 c 0
 358.63671875 368.12109375 373.517578125 370.162109375 386.46875 371.23828125 c 0
 391.9609375 371.68359375 396.673828125 372.091796875 400.125 372.42578125 c 0
 401.7578125 372.57421875 403.056640625 372.685546875 403.798828125 372.796875 c 0
 404.169921875 372.833984375 404.05859375 372.833984375 404.20703125 372.833984375 c 0
 404.318359375 372.833984375 403.427734375 372.685546875 403.427734375 372.685546875 c 0
 399.3828125 371.498046875 l 0
 399.791015625 371.68359375 396.376953125 369.939453125 396.376953125 369.939453125 c 0
 389.8828125 363.59375 l 0
 392.18359375 366.896484375 385.466796875 345.11328125 385.578125 350.197265625 c 0
 385.689453125 354.5390625 387.841796875 339.3984375 387.841796875 339.3984375 c 0
 390.69921875 334.685546875 l 0
 392.962890625 332.236328125 l 0
 392.962890625 332.236328125 382.90625 333.052734375 382.90625 353.27734375 c 1024
79.12890625 -14.365234375 m 0
 66.95703125 -7.203125 62.912109375 8.494140625 70.07421875 20.666015625 c 0
 77.2734375 32.837890625 92.970703125 36.919921875 105.142578125 29.720703125 c 0
 100.837890625 31.724609375 l 0
 97.609375 32.689453125 l 0
 97.90625 32.615234375 98.388671875 32.50390625 99.5390625 32.28125 c 0
 100.50390625 32.05859375 100.986328125 31.76171875 105.03125 31.984375 c 0
 111.080078125 32.244140625 120.431640625 33.39453125 136.091796875 34.73046875 c 0
 153.087890625 36.21484375 175.01953125 38.21875 201.58984375 40.4453125 c 0
 228.197265625 42.671875 263.04296875 45.826171875 294.845703125 48.052734375 c 0
 327.2421875 50.31640625 361.568359375 52.171875 390.958984375 53.767578125 c 0
 420.201171875 55.36328125 447.513671875 56.587890625 469.927734375 57.552734375 c 0
 490.560546875 58.48046875 506.33203125 59 520.43359375 59.482421875 c 0
 534.3125 59.927734375 545.37109375 60.26171875 554.982421875 60.447265625 c 0
 564.59375 60.595703125 571.681640625 60.447265625 577.2109375 60.447265625 c 0
 582.5546875 60.447265625 586.376953125 60.447265625 589.53125 60.447265625 c 0
 592.6484375 60.447265625 594.94921875 60.447265625 596.173828125 60.447265625 c 0
 598.474609375 60.447265625 600.701171875 60.1875 601.220703125 60.076171875 c 0
 592.796875 59.66796875 l 0
 591.1640625 59.22265625 l 0
 591.68359375 59.482421875 592.685546875 59.890625 594.244140625 60.521484375 c 0
 607.34375 65.75390625 622.26171875 59.37109375 627.494140625 46.271484375 c 0
 632.763671875 33.134765625 626.380859375 18.25390625 613.244140625 12.984375 c 0
 612.984375 12.91015625 611.388671875 11.57421875 605.228515625 10.015625 c 0
 603.224609375 9.533203125 596.916015625 9.05078125 594.541015625 9.384765625 c 0
 596.173828125 9.2734375 l 0
 594.94921875 9.2734375 592.6484375 9.2734375 589.53125 9.2734375 c 0
 586.376953125 9.2734375 582.5546875 9.2734375 577.2109375 9.2734375 c 0
 570.939453125 9.2734375 564.482421875 9.421875 555.8359375 9.2734375 c 0
 546.70703125 9.125 535.908203125 8.828125 522.140625 8.345703125 c 0
 508.0390625 7.900390625 492.564453125 7.34375 472.154296875 6.453125 c 0
 449.814453125 5.451171875 422.6875 4.263671875 393.7421875 2.66796875 c 0
 364.3515625 1.072265625 330.28515625 -0.74609375 298.4453125 -2.97265625 c 0
 267.310546875 -5.162109375 232.6875 -8.279296875 205.89453125 -10.54296875 c 0
 179.47265625 -12.76953125 157.65234375 -14.736328125 140.58203125 -16.220703125 c 0
 125.58984375 -17.51953125 116.38671875 -18.744140625 107.18359375 -19.15234375 c 0
 97.08984375 -19.59765625 88.8515625 -17.7421875 88.03515625 -17.556640625 c 0
 87.73828125 -17.51953125 87.626953125 -17.4453125 87.44140625 -17.408203125 c 0
 87.44140625 -17.408203125 91.1672428862 -21.3794014553 79.12890625 -14.25390625 c 1024
581.998046875 711.86328125 m 4
 594.65234375 705.5546875 599.7734375 690.19140625 593.46484375 677.537109375 c 4
 587.119140625 664.8828125 571.755859375 659.76171875 559.138671875 666.0703125 c 4
 555.724609375 667.77734375 551.419921875 671.4140625 549.3046875 674.197265625 c 4
 549.453125 674.048828125 l 4
 547.041015625 677.017578125 558.359375 667.2578125 558.359375 667.2578125 c 4
 559.880859375 666.701171875 l 4
 561.4765625 666.44140625 l 4
 559.91796875 666.58984375 555.947265625 666.849609375 550.158203125 667.18359375 c 4
 540.955078125 667.740234375 529.228515625 668.779296875 515.08984375 669.076171875 c 4
 499.1328125 669.373046875 478.87109375 669.0390625 456.828125 669.0390625 c 4
 436.046875 669.0390625 411.443359375 669.0390625 388.583984375 669.0390625 c 4
 364.87109375 669.0390625 340.341796875 669.224609375 318.6328125 669.0390625 c 4
 296.552734375 668.890625 276.884765625 668.890625 257.884765625 668.111328125 c 4
 239.6640625 667.369140625 220.923828125 665.84765625 205.078125 664.400390625 c 4
 189.86328125 663.02734375 177.09765625 661.505859375 165.7421875 659.8359375 c 4
 155.27734375 658.314453125 145.888671875 655.939453125 136.091796875 654.26953125 c 4
 127.22265625 652.7109375 120.6171875 652.080078125 117.611328125 651.486328125 c 4
 114.90234375 650.966796875 111.302734375 649.81640625 110.931640625 649.66796875 c 4
 109.818359375 649.296875 109.0390625 649 109.001953125 649 c 4
 108.96484375 649 109.9296875 649.37109375 109.9296875 649.37109375 c 4
 113.751953125 651.412109375 l 4
 117.5 654.34375 l 4
 122.02734375 660.169921875 l 4
 124.99609375 668.22265625 l 4
 125.29296875 675.013671875 l 4
 124.216796875 680.39453125 l 4
 124.328125 680.0234375 126.109375 672.6015625 124.736328125 666.6640625 c 4
 123.400390625 661.060546875 121.099609375 657.98046875 119.4296875 655.90234375 c 4
 116.53515625 652.265625 124.365234375 670.74609375 123.994140625 666.73828125 c 4
 123.8828125 665.69921875 124.10546875 666.255859375 124.10546875 661.46875 c 4
 124.10546875 656.830078125 124.10546875 651.44921875 124.10546875 641.578125 c 4
 124.10546875 630.333984375 123.95703125 616.9375 124.10546875 598.16015625 c 4
 124.25390625 578.677734375 124.587890625 553.146484375 125.033203125 526.353515625 c 4
 125.552734375 498.1875 126.294921875 445.01171875 126.92578125 414.5078125 c 0
 127.556640625 383.9296875 128.3359375 352.720703125 128.85546875 324.369140625 c 0
 129.30078125 297.650390625 129.634765625 271.859375 129.783203125 250.1875 c 0
 129.931640625 229.146484375 129.783203125 211.7421875 129.783203125 196.935546875 c 0
 129.783203125 182.091796875 129.783203125 170.884765625 129.783203125 159.9375 c 0
 129.783203125 149.62109375 129.783203125 140.9375 129.783203125 132.4765625 c 0
 129.783203125 124.015625 129.783203125 116.630859375 129.783203125 108.763671875 c 0
 129.783203125 100.859375 129.931640625 92.212890625 129.783203125 83.603515625 c 0
 129.634765625 75.625 129.337890625 67.423828125 128.78125 60.373046875 c 0
 128.224609375 53.173828125 127.296875 47.34765625 126.666015625 43.265625 c 0
 125.8125 37.884765625 124.84765625 34.173828125 124.625 32.94921875 c 0
 124.25390625 31.130859375 124.10546875 29.794921875 123.697265625 27.419921875 c 0
 123.029296875 23.857421875 123.177734375 25.3046875 122.806640625 23.041015625 c 0
 122.25 19.701171875 122.84375 20.40625 121.544921875 14.83984375 c 0
 120.171875 8.939453125 120.0234375 10.609375 119.541015625 8.716796875 c 0
 119.35546875 7.900390625 119.20703125 6.416015625 119.20703125 6.08203125 c 0
 118.056640625 -3.046875 110.59765625 -11.65625 104.80859375 -14.69921875 c 0
 102.173828125 -16.072265625 100.021484375 -16.703125 98.611328125 -17.037109375 c 0
 97.98046875 -17.22265625 97.572265625 -17.296875 97.572265625 -17.296875 c 0
 97.498046875 -17.333984375 98.462890625 -17.111328125 98.462890625 -17.111328125 c 0
 98.091796875 -17.22265625 100.05859375 -16.62890625 100.05859375 -16.62890625 c 0
 103.9921875 -14.99609375 l 0
 91.44921875 -21.52734375 76.01171875 -16.703125 69.443359375 -4.16015625 c 0
 62.912109375 8.3828125 67.7734375 23.8203125 80.279296875 30.388671875 c 0
 96.458984375 38.8125 76.6796875 28.310546875 81.05859375 30.6484375 c 0
 83.5078125 31.91015625 73.1171875 23.931640625 73.1171875 23.931640625 c 0
 75.71484375 27.30859375 68.404296875 12.390625 68.404296875 12.390625 c 0
 68.515625 13.244140625 68.701171875 16.212890625 69.92578125 21.111328125 c 0
 71.3359375 26.7890625 71.26171875 24.451171875 71.70703125 26.34375 c 0
 71.966796875 27.345703125 71.55859375 26.71484375 72.337890625 31.46484375 c 0
 72.931640625 35.064453125 73.005859375 34.73046875 73.33984375 36.548828125 c 0
 73.599609375 37.7734375 73.7109375 39.18359375 74.341796875 42.375 c 0
 75.083984375 46.345703125 75.677734375 48.349609375 76.0859375 51.021484375 c 0
 76.716796875 55.21484375 77.384765625 59.296875 77.755859375 64.26953125 c 0
 78.1640625 69.798828125 78.498046875 77.369140625 78.646484375 84.60546875 c 0
 78.794921875 91.916015625 78.646484375 100.265625 78.646484375 108.7265625 c 0
 78.646484375 116.59375 78.646484375 123.978515625 78.646484375 132.439453125 c 0
 78.646484375 140.900390625 78.646484375 149.583984375 78.646484375 159.9375 c 0
 78.646484375 170.884765625 78.646484375 182.0546875 78.646484375 196.8984375 c 0
 78.646484375 212.001953125 78.794921875 229.18359375 78.646484375 249.779296875 c 0
 78.4609375 271.265625 78.126953125 296.87109375 77.681640625 323.478515625 c 0
 77.162109375 351.5703125 76.419921875 382.7421875 75.7890625 413.431640625 c 0
 75.158203125 443.82421875 74.37890625 497.07421875 73.896484375 525.462890625 c 4
 73.4140625 552.404296875 73.080078125 578.046875 72.931640625 597.71484375 c 4
 72.783203125 616.9375 72.931640625 630.7421875 72.931640625 641.541015625 c 4
 72.931640625 651.412109375 72.931640625 656.79296875 72.931640625 661.431640625 c 4
 72.931640625 665.142578125 72.634765625 666.9609375 73.04296875 671.33984375 c 4
 73.7109375 678.724609375 76.271484375 683.845703125 79.5 687.853515625 c 4
 79.5 687.853515625 57.568359375 646.142578125 76.9765625 684.40234375 c 4
 86.4643840517 703.033670749 90.70703125 696.796875 91.634765625 697.130859375 c 4
 92.4140625 697.390625 92.859375 697.5390625 93.712890625 697.873046875 c 4
 95.6796875 698.578125 100.65234375 700.322265625 107.888671875 701.732421875 c 4
 114.75390625 703.068359375 120.54296875 703.4765625 127.333984375 704.6640625 c 4
 134.681640625 705.92578125 145.18359375 708.5234375 158.3203125 710.453125 c 4
 170.640625 712.271484375 184.408203125 713.904296875 200.513671875 715.3515625 c 4
 216.693359375 716.8359375 236.17578125 718.431640625 255.76953125 719.248046875 c 4
 276.142578125 720.064453125 296.3671875 720.02734375 318.26171875 720.212890625 c 4
 340.453125 720.361328125 365.056640625 720.212890625 388.583984375 720.212890625 c 4
 411.443359375 720.212890625 436.046875 720.212890625 456.828125 720.212890625 c 4
 478.42578125 720.212890625 498.76171875 720.546875 516.091796875 720.212890625 c 4
 532.0859375 719.87890625 545.111328125 718.728515625 553.08984375 718.24609375 c 4
 561.216796875 717.80078125 562.255859375 718.357421875 569.900390625 716.873046875 c 4
 574.353515625 715.982421875 580.365234375 715.166015625 587.08203125 708.560546875 c 4
 590.34765625 705.40625 588.71484375 706.853515625 590.087890625 705.072265625 c 4
 591.869140625 702.734375 581.998046875 711.826171875 581.998046875 711.826171875 c 1028
EndSplineSet
EndChar

StartChar: F
Encoding: 70 70 5
Width: 571
Flags: HW
HStem: 299.78 51.2109<36.0254 64.8223>
VStem: 25.041 51.248<311.247 339.524>
LayerCount: 2
Fore
SplineSet
50.646484375 299.780273438 m 0
 36.5078125 299.780273438 25.041015625 311.247070312 25.041015625 325.385742188 c 0
 25.041015625 339.524414062 36.5078125 350.991210938 50.646484375 350.991210938 c 0
 50.83203125 350.991210938 51.9453125 350.991210938 55.841796875 350.991210938 c 0
 57.697265625 350.991210938 66.56640625 350.991210938 77.662109375 350.991210938 c 0
 89.87109375 350.991210938 104.826171875 350.657226562 123.677734375 350.954101562 c 0
 143.419921875 351.250976562 170.91796875 352.030273438 193.33203125 352.846679688 c 0
 215.412109375 353.625976562 237.41796875 354.702148438 255.453125 355.666992188 c 0
 273.04296875 356.594726562 288.443359375 357.633789062 299.427734375 358.487304688 c 0
 308.630859375 359.192382812 312.044921875 359.600585938 315.310546875 360.120117188 c 0
 314.791015625 359.823242188 l 0
 308.408203125 356.186523438 l 0
 311.48828125 358.821289062 301.728515625 346.760742188 301.728515625 346.760742188 c 0
 300.4296875 341.676757812 l 0
 300.763671875 344.459960938 299.61328125 340.563476562 301.171875 346.760742188 c 0
 304.5859375 360.454101562 318.501953125 368.803710938 332.1953125 365.352539062 c 0
 345.92578125 361.938476562 354.23828125 348.059570312 350.82421875 334.329101562 c 0
 351.41796875 338.262695312 l 0
 351.41796875 338.225585938 352.6796875 326.721679688 341.6953125 317.333007812 c 0
 338.318359375 314.438476562 328.224609375 310.356445312 323.400390625 309.577148438 c 0
 318.8359375 308.834960938 313.232421875 308.204101562 303.287109375 307.424804688 c 0
 291.931640625 306.571289062 276.197265625 305.495117188 258.162109375 304.567382812 c 0
 239.94140625 303.602539062 217.712890625 302.489257812 195.150390625 301.709960938 c 0
 172.439453125 300.893554688 144.755859375 300.114257812 124.53125 299.780273438 c 0
 104.71484375 299.483398438 89.091796875 299.780273438 77.662109375 299.780273438 c 0
 66.56640625 299.780273438 57.697265625 299.780273438 55.841796875 299.780273438 c 0
 51.9453125 299.780273438 50.83203125 299.780273438 50.646484375 299.780273438 c 1024
538.857421875 671.245117188 m 0
 532.029296875 658.887695312 516.443359375 654.434570312 504.0859375 661.299804688 c 0
 491.728515625 668.165039062 487.275390625 683.750976562 494.140625 696.108398438 c 0
 497.03515625 701.303710938 499.41015625 703.827148438 500.041015625 704.717773438 c 0
 500.2265625 705.014648438 499.447265625 703.567382812 499.447265625 703.567382812 c 0
 498 696.479492188 l 0
 498 701.303710938 501.154296875 684.233398438 501.154296875 684.233398438 c 0
 505.5703125 678.407226562 l 0
 510.728515625 674.510742188 l 0
 513.697265625 673.137695312 l 0
 512.9921875 673.397460938 512.806640625 673.397460938 510.39453125 673.991210938 c 0
 498.630859375 676.885742188 501.376953125 678.073242188 495.03125 677.961914062 c 0
 486.2734375 677.887695312 466.642578125 674.250976562 444.748046875 672.395507812 c 0
 423.41015625 670.577148438 397.73046875 669.018554688 373.943359375 667.608398438 c 0
 349.302734375 666.124023438 324.365234375 664.750976562 299.501953125 663.786132812 c 0
 275.455078125 662.821289062 250.220703125 662.487304688 229.10546875 661.893554688 c 0
 207.990234375 661.262695312 189.287109375 660.780273438 172.662109375 660.000976562 c 0
 155.740234375 659.221679688 140.78515625 658.331054688 128.2421875 657.217773438 c 0
 117.294921875 656.252929688 108.388671875 654.879882812 100.6328125 653.655273438 c 0
 94.212890625 652.616210938 89.685546875 651.280273438 83.78515625 650.055664062 c 0
 78.552734375 648.979492188 76.623046875 648.756835938 76.140625 648.645507812 c 0
 75.6953125 648.459960938 78.404296875 649.573242188 78.404296875 649.573242188 c 0
 81.224609375 651.391601562 l 0
 83.896484375 653.803710938 l 0
 88.201171875 659.889648438 l 0
 88.201171875 659.889648438 88.498046875 660.743164062 87.94140625 659.407226562 c 0
 89.87109375 666.124023438 l 0
 90.056640625 668.053710938 l 0
 90.056640625 666.866210938 90.056640625 665.084960938 89.9453125 662.747070312 c 0
 89.9453125 662.301757812 89.982421875 655.956054688 89.982421875 646.678710938 c 0
 89.982421875 636.807617188 89.982421875 625.340820312 89.982421875 605.932617188 c 0
 89.982421875 585.893554688 89.982421875 560.250976562 89.982421875 527.260742188 c 0
 89.982421875 491.450195312 89.833984375 444.432617188 89.982421875 401.274414062 c 0
 90.130859375 356.743164062 90.130859375 309.614257812 90.91015625 267.086914062 c 0
 91.689453125 226.155273438 93.248046875 183.887695312 94.6953125 152.122070312 c 0
 96.03125 122.768554688 97.775390625 102.135742188 99.37109375 83.9892578125 c 0
 100.818359375 67.1044921875 102.748046875 55.4150390625 104.009765625 45.0244140625 c 0
 105.0859375 36.3037109375 105.3828125 33.0380859375 105.642578125 31.5537109375 c 0
 105.75390625 31.0712890625 103.712890625 36.2294921875 103.712890625 36.2294921875 c 0
 100.595703125 39.9033203125 l 0
 93.693359375 44.5048828125 l 0
 86.791015625 46.4345703125 l 0
 81.818359375 46.6201171875 l 0
 81.9296875 46.6201171875 82.74609375 46.6943359375 84.3046875 46.6943359375 c 0
 77.7734375 45.7666015625 l 0
 74.73046875 44.6904296875 l 0
 75.138671875 44.8388671875 77.291015625 45.8037109375 79.77734375 46.5830078125 c 0
 84.712890625 48.0302734375 83.376953125 47.3623046875 84.0078125 47.6220703125 c 0
 84.416015625 47.7705078125 87.830078125 49.5888671875 91.80078125 51.5927734375 c 0
 104.455078125 57.9013671875 119.818359375 52.7802734375 126.1640625 40.1259765625 c 0
 132.47265625 27.5087890625 127.3515625 12.1083984375 114.697265625 5.7998046875 c 0
 112.248046875 4.5751953125 108.72265625 2.4228515625 103.52734375 0.2705078125 c 0
 97.515625 -2.1787109375 96.99609375 -1.6962890625 94.47265625 -2.4755859375 c 0
 94.287109375 -2.5126953125 95.80859375 -1.9560546875 95.80859375 -1.9560546875 c 0
 94.955078125 -2.3271484375 88.38671875 -4.4794921875 84.3046875 -4.4794921875 c 0
 85.4921875 -4.4423828125 l 0
 83.33984375 -4.6279296875 75.62109375 -4.1455078125 69.83203125 -0.6201171875 c 0
 64.4140625 2.6826171875 62.41015625 5.9111328125 61.111328125 7.8779296875 c 0
 59.515625 10.2529296875 56.658203125 15.2998046875 55.359375 22.0166015625 c 0
 54.39453125 27.0634765625 54.171875 30.7744140625 53.20703125 38.9013671875 c 0
 52.130859375 47.7333984375 50.015625 60.9814453125 48.3828125 79.5732421875 c 0
 46.787109375 97.8681640625 44.96875 119.502929688 43.55859375 149.784179688 c 0
 42.07421875 181.995117188 40.552734375 224.596679688 39.7734375 266.122070312 c 0
 38.95703125 309.354492188 38.95703125 356.668945312 38.80859375 401.125976562 c 0
 38.66015625 444.506835938 38.80859375 491.598632812 38.80859375 527.260742188 c 0
 38.80859375 560.288085938 38.80859375 585.930664062 38.80859375 605.932617188 c 0
 38.80859375 625.377929688 38.80859375 636.844726562 38.80859375 646.715820312 c 0
 38.80859375 655.807617188 38.66015625 660.891601562 38.80859375 664.750976562 c 0
 38.919921875 667.311523438 38.734375 666.569335938 38.919921875 670.428710938 c 0
 39.216796875 676.180664062 42.259765625 682.377929688 42.482421875 682.786132812 c 0
 52.576171875 702.973632812 56.9921875 696.368164062 62.150390625 697.852539062 c 0
 67.16015625 699.299804688 69.83203125 699.448242188 73.46875 700.190429688 c 0
 76.80859375 700.895507812 83.4140625 702.713867188 92.6171875 704.198242188 c 0
 100.70703125 705.497070312 111.09765625 707.092773438 123.7890625 708.206054688 c 0
 137.482421875 709.430664062 153.03125 710.321289062 170.361328125 711.137695312 c 0
 187.69140625 711.916992188 206.580078125 712.436523438 227.658203125 713.030273438 c 0
 249.330078125 713.698242188 274.341796875 714.032226562 297.53515625 714.922851562 c 0
 321.87890625 715.887695312 346.482421875 717.260742188 370.974609375 718.708007812 c 0
 394.650390625 720.081054688 420.0703125 721.639648438 440.443359375 723.383789062 c 0
 459.220703125 724.979492188 477.478515625 728.950195312 494.4375 729.172851562 c 0
 511.5078125 729.358398438 520.673828125 724.163085938 522.677734375 723.680664062 c 0
 525.201171875 723.086914062 527.31640625 722.567382812 529.765625 721.750976562 c 0
 531.1015625 721.342773438 532.548828125 720.897460938 535.146484375 719.524414062 c 0
 538.115234375 717.965820312 549.248046875 715.479492188 549.248046875 696.479492188 c 0
 549.248046875 685.569335938 544.53515625 678.963867188 541.900390625 675.215820312 c 0
 539.5625 671.913085938 539.451171875 672.172851562 538.931640625 671.245117188 c 1024
50.1640625 299.780273438 m 0
 36.025390625 299.780273438 24.55859375 311.247070312 24.55859375 325.385742188 c 0
 24.55859375 339.524414062 36.025390625 350.991210938 50.1640625 350.991210938 c 2
 50.683593326 350.991210938 l 1
 50.68359375 350.991210938 l 2
 64.822265625 350.991210938 76.2890625 339.524414062 76.2890625 325.385742188 c 0
 76.2890625 311.247070312 64.822265625 299.780273438 50.68359375 299.780273438 c 0
 50.646484375 299.780273438 50.498046875 299.780273438 50.1640625 299.780273438 c 0
EndSplineSet
EndChar

StartChar: G
Encoding: 71 71 6
Width: 811
Flags: HW
LayerCount: 2
Fore
SplineSet
660.172851562 597.171875 m 0
 653.864257812 584.5546875 638.500976562 579.43359375 625.846679688 585.7421875 c 0
 613.192382812 592.05078125 608.071289062 607.4140625 614.416992188 620.068359375 c 0
 619.983398438 631.201171875 620.428710938 628.9375 620.614257812 630.013671875 c 0
 620.354492188 627.0078125 l 0
 620.354492188 627.08203125 619.983398438 630.05078125 618.795898438 633.427734375 c 0
 614.231445312 646.6015625 613.229492188 652.501953125 612.116210938 653.578125 c 0
 606.438476562 658.958984375 594.600585938 666.083984375 579.979492188 670.27734375 c 0
 562.055664062 675.47265625 541.385742188 679.962890625 519.231445312 678.8125 c 0
 493.959960938 677.4765625 463.975585938 671.91015625 432.766601562 661.96484375 c 0
 401.372070312 651.982421875 366.043945312 638.36328125 334.723632812 619.80859375 c 0
 301.473632812 600.103515625 266.776367188 574.498046875 238.053710938 546.666015625 c 0
 208.291992188 517.83203125 180.942382812 484.990234375 159.567382812 450.21875 c 0
 139.305664062 417.19140625 122.754882812 377.298828125 112.067382812 341.5625 c 0
 101.416992188 306.048828125 95.7763671875 279.421875 96.0732421875 249.21484375 c 0
 96.3701171875 219.52734375 102.418945312 193.810546875 112.846679688 170.208984375 c 0
 122.680664062 147.98046875 137.190429688 127.904296875 156.041992188 112.244140625 c 0
 175.524414062 96.02734375 202.874023438 82.4453125 232.413085938 72.203125 c 0
 262.063476562 61.923828125 296.092773438 55.986328125 334.055664062 51.64453125 c 0
 371.313476562 47.376953125 416.104492188 45.224609375 454.067382812 47.04296875 c 0
 491.918945312 48.861328125 530.512695312 55.466796875 562.575195312 62.591796875 c 0
 594.600585938 69.642578125 622.098632812 77.658203125 640.208007812 87.529296875 c 0
 654.717773438 95.470703125 663.290039062 106.455078125 671.602539062 119.5546875 c 0
 678.579101562 130.501953125 682.252929688 142.859375 682.846679688 154.474609375 c 0
 683.403320312 166.201171875 680.657226562 179.412109375 674.868164062 191.435546875 c 0
 668.967773438 203.79296875 659.319335938 217.078125 647.963867188 226.05859375 c 0
 636.645507812 235.001953125 617.088867188 243.462890625 598.014648438 250.587890625 c 0
 580.016601562 257.267578125 559.309570312 261.869140625 539.752929688 265.505859375 c 0
 522.645507812 268.697265625 504.647460938 269.69921875 487.762695312 270.8125 c 0
 471.879882812 271.8515625 457.741210938 271.703125 442.971679688 271.703125 c 0
 429.055664062 271.703125 416.030273438 271.40625 403.487304688 270.775390625 c 0
 391.241210938 270.181640625 378.698242188 269.25390625 369.346679688 268.103515625 c 0
 360.588867188 267.02734375 353.129882812 265.283203125 345.967773438 263.724609375 c 0
 342.999023438 263.09375 339.993164062 262.388671875 337.803710938 261.83203125 c 0
 336.801757812 261.572265625 336.022460938 261.3125 335.874023438 261.275390625 c 0
 335.836914062 261.275390625 336.653320312 261.572265625 336.653320312 261.572265625 c 0
 336.282226562 261.423828125 338.397460938 262.388671875 338.397460938 262.388671875 c 0
 343.036132812 265.54296875 l 0
 342.887695312 265.431640625 344.446289062 266.87890625 344.446289062 266.87890625 c 0
 347.971679688 271.703125 l 0
 350.049804688 276.6015625 l 0
 351.088867188 283.763671875 l 0
 349.715820312 292.0390625 l 0
 351.459960938 286.91796875 338.805664062 305.732421875 341.700195312 303.39453125 c 0
 335.614257812 306.95703125 l 0
 330.604492188 308.3671875 l 0
 332.719726562 308.0703125 329.713867188 308.404296875 332.385742188 308.626953125 c 0
 336.319335938 308.88671875 349.715820312 310.51953125 368.307617188 313.154296875 c 0
 387.752929688 315.900390625 415.362304688 319.796875 443.565429688 324.435546875 c 0
 472.622070312 329.259765625 508.469726562 336.34765625 540.309570312 341.505859375 c 0
 572.186523438 346.701171875 604.137695312 351.4140625 631.190429688 354.90234375 c 0
 656.795898438 358.205078125 679.506835938 360.3203125 696.948242188 361.693359375 c 0
 713.053710938 362.91796875 724.520507812 363.66015625 735.541992188 362.583984375 c 0
 739.549804688 362.17578125 743.928710938 362.138671875 750.534179688 360.060546875 c 0
 757.918945312 357.72265625 769.793945312 348.333984375 772.280273438 336.79296875 c 0
 776.696289062 316.0859375 766.750976562 308.44140625 761.147460938 298.236328125 c 0
 753.651367188 284.6171875 742.815429688 269.439453125 733.352539062 253.185546875 c 0
 722.182617188 233.888671875 708.971679688 214.2578125 700.733398438 194.515625 c 0
 692.235351562 174.25390625 684.813476562 149.279296875 680.397460938 127.310546875 c 0
 676.092773438 106.046875 675.016601562 83.224609375 674.237304688 62.220703125 c 0
 673.495117188 42.478515625 674.608398438 23.478515625 676.055664062 7.669921875 c 0
 677.243164062 -5.20703125 679.692382812 -15.708984375 681.918945312 -24.021484375 c 0
 683.403320312 -29.625 683.997070312 -29.921875 686.780273438 -34.671875 c 0
 686.965820312 -34.931640625 686.483398438 -33.6328125 691.493164062 -39.236328125 c 0
 700.881835938 -49.8125 699.916992188 -65.9921875 689.377929688 -75.380859375 c 0
 678.801757812 -84.76953125 662.622070312 -83.8046875 653.233398438 -73.265625 c 0
 653.196289062 -73.154296875 647.778320312 -69.220703125 642.768554688 -60.759765625 c 0
 640.579101562 -57.0859375 635.532226562 -48.736328125 632.489257812 -37.26953125 c 0
 629.891601562 -27.546875 626.625976562 -13.81640625 625.067382812 3.03125 c 0
 623.508789062 20.212890625 622.247070312 41.328125 623.100585938 64.11328125 c 0
 623.916992188 85.63671875 624.918945312 111.205078125 630.225585938 137.44140625 c 0
 635.309570312 162.787109375 643.399414062 190.173828125 653.493164062 214.294921875 c 0
 664.254882812 239.9375 679.024414062 261.53515625 689.081054688 278.865234375 c 0
 699.842773438 297.345703125 711.124023438 313.525390625 716.319335938 322.9140625 c 0
 719.325195312 328.40625 721.514648438 332.33984375 722.256835938 334.009765625 c 0
 722.182617188 333.341796875 l 0
 722.219726562 326.068359375 l 0
 721.477539062 329.51953125 731.497070312 312.44921875 728.416992188 315.26953125 c 0
 726.227539062 317.310546875 734.094726562 311.6328125 734.094726562 311.6328125 c 0
 735.467773438 311.11328125 l 0
 734.577148438 311.26171875 732.833007812 311.41015625 730.532226562 311.6328125 c 0
 725.299804688 312.15234375 716.208007812 311.818359375 700.881835938 310.630859375 c 0
 684.182617188 309.369140625 662.288085938 307.291015625 637.721679688 304.13671875 c 0
 611.411132812 300.759765625 579.905273438 296.083984375 548.510742188 291 c 0
 517.858398438 286.02734375 482.122070312 278.939453125 451.877929688 273.9296875 c 0
 422.932617188 269.1796875 394.952148438 265.24609375 375.469726562 262.462890625 c 0
 356.506835938 259.791015625 343.629882812 258.046875 335.577148438 257.52734375 c 0
 329.750976562 257.193359375 327.153320312 254.41015625 314.944335938 260.19921875 c 0
 311.084960938 262.017578125 304.999023438 266.0625 301.770507812 274.115234375 c 0
 296.834960938 286.435546875 302.586914062 296.12109375 305.258789062 299.646484375 c 0
 307.522460938 302.689453125 308.932617188 303.728515625 309.749023438 304.396484375 c 0
 323.219726562 315.974609375 321.661132812 310.51953125 324.815429688 311.3359375 c 0
 328.043945312 312.189453125 331.606445312 313.005859375 335.243164062 313.78515625 c 0
 341.774414062 315.1953125 351.311523438 317.458984375 363.075195312 318.90625 c 0
 374.467773438 320.31640625 387.864257812 321.28125 400.963867188 321.912109375 c 0
 414.434570312 322.580078125 428.313476562 322.876953125 442.971679688 322.876953125 c 0
 457.518554688 322.876953125 473.030273438 323.099609375 491.102539062 321.875 c 0
 507.838867188 320.798828125 527.915039062 319.72265625 549.067382812 315.826171875 c 0
 569.959960938 311.9296875 593.338867188 306.919921875 615.901367188 298.533203125 c 0
 636.534179688 290.8515625 660.098632812 281.72265625 679.729492188 266.173828125 c 0
 698.618164062 251.21875 712.125976562 232.14453125 721.032226562 213.58984375 c 0
 730.309570312 194.21875 734.985351562 172.955078125 733.946289062 151.951171875 c 0
 732.944335938 131.578125 726.672851562 110.759765625 714.834960938 92.130859375 c 0
 704.592773438 75.951171875 689.600585938 56.171875 664.700195312 42.58984375 c 0
 638.909179688 28.525390625 607.625976562 20.1015625 573.633789062 12.60546875 c 0
 539.604492188 5.072265625 498.524414062 -2.08984375 456.516601562 -4.09375 c 0
 414.842773438 -6.09765625 368.159179688 -3.796875 328.229492188 0.767578125 c 0
 288.299804688 5.369140625 250.670898438 11.677734375 215.639648438 23.8125 c 0
 182.055664062 35.46484375 149.510742188 51.087890625 123.311523438 72.87109375 c 0
 97.9287109375 93.94921875 78.7802734375 120.630859375 66.0146484375 149.501953125 c 0
 52.9521484375 179.041015625 45.2333984375 212.216796875 44.8623046875 248.6953125 c 0
 44.5283203125 285.322265625 51.0224609375 316.216796875 63.0087890625 356.2578125 c 0
 74.8837890625 395.81640625 92.6591796875 439.048828125 115.963867188 476.974609375 c 0
 139.936523438 516.05078125 169.958007812 551.935546875 202.428710938 583.404296875 c 0
 234.565429688 614.576171875 272.083007812 642.185546875 308.598632812 663.8203125 c 0
 344.817382812 685.26953125 383.485351562 699.96484375 417.217773438 710.7265625 c 0
 452.249023438 721.896484375 486.166992188 728.31640625 516.522460938 729.912109375 c 0
 547.026367188 731.5078125 573.596679688 725.384765625 594.155273438 719.484375 c 0
 616.012695312 713.17578125 634.196289062 703.15625 647.333007812 690.6875 c 0
 664.848632812 674.0625 665.999023438 653.541015625 667.149414062 650.201171875 c 0
 670.786132812 639.7734375 673.086914062 633.2421875 671.045898438 621.3671875 c 0
 668.374023438 605.818359375 660.247070312 597.283203125 660.172851562 597.171875 c 1024
EndSplineSet
EndChar

StartChar: H
Encoding: 72 72 7
Width: 607
Flags: HW
LayerCount: 2
Fore
SplineSet
512.266601562 377.814453125 m 0
 524.883789062 384.16015625 540.284179688 379.0390625 546.592773438 366.384765625 c 0
 552.901367188 353.73046875 547.780273438 338.3671875 535.163085938 332.05859375 c 0
 533.456054688 331.205078125 538.057617188 333.765625 534.383789062 331.16796875 c 0
 530.116210938 328.19921875 524.252929688 325.82421875 518.352539062 324.376953125 c 0
 511.301757812 322.669921875 506.551757812 322.744140625 494.342773438 321.853515625 c 0
 481.799804688 320.888671875 460.758789062 318.625 437.194335938 317.994140625 c 0
 412.256835938 317.2890625 384.350585938 318.439453125 355.368164062 317.994140625 c 0
 324.567382812 317.474609375 288.200195312 316.47265625 256.508789062 315.13671875 c 0
 226.932617188 313.912109375 197.170898438 312.056640625 172.752929688 310.423828125 c 0
 149.040039062 308.90234375 128.221679688 306.8984375 112.301757812 305.7109375 c 0
 97.5322265625 304.634765625 87.7353515625 304.041015625 82.2431640625 303.78125 c 0
 76.9365234375 303.521484375 72.8544921875 303.744140625 70.5166015625 303.9296875 c 0
 70.9248046875 303.966796875 l 0
 77.0478515625 304.857421875 l 0
 84.3583984375 308.419921875 l 0
 81.6123046875 306.453125 92.0400390625 317.177734375 92.0400390625 317.177734375 c 0
 90.1474609375 313.615234375 94.9716796875 328.087890625 94.9716796875 328.087890625 c 0
 94.1181640625 335.6953125 l 0
 95.0830078125 332.169921875 91.1123046875 342.5234375 91.1123046875 342.5234375 c 0
 88.5517578125 345.7890625 l 0
 89.3310546875 344.97265625 88.8486328125 346.75390625 92.8935546875 340.705078125 c 0
 100.723632812 328.94140625 97.5322265625 313.05859375 85.8056640625 305.228515625 c 0
 74.0419921875 297.3984375 58.1220703125 300.552734375 50.2919921875 312.31640625 c 0
 52.9267578125 309.087890625 l 0
 52.8896484375 309.125 51.9248046875 309.64453125 49.3642578125 312.984375 c 0
 47.8056640625 315.025390625 44.2431640625 318.068359375 43.8349609375 328.05078125 c 0
 43.3896484375 339.48046875 55.5986328125 351.837890625 62.3525390625 353.87890625 c 0
 73.8564453125 357.330078125 73.9306640625 354.658203125 79.8681640625 354.91796875 c 0
 84.6181640625 355.103515625 94.1552734375 355.697265625 108.553710938 356.7734375 c 0
 123.620117188 357.88671875 144.883789062 359.927734375 169.450195312 361.5234375 c 0
 193.979492188 363.119140625 224.112304688 365.048828125 254.430664062 366.310546875 c 0
 286.604492188 367.609375 323.268554688 368.685546875 354.588867188 369.16796875 c 0
 385.166992188 369.650390625 413.295898438 368.537109375 435.821289062 369.16796875 c 0
 457.010742188 369.76171875 476.678710938 371.83984375 490.520507812 372.87890625 c 0
 502.543945312 373.806640625 504.065429688 373.583984375 506.329101562 374.140625 c 0
 509.594726562 374.919921875 501.838867188 372.619140625 512.266601562 377.8515625 c 1024
507.702148438 736.068359375 m 0
 518.760742188 744.900390625 534.866210938 743.08203125 543.698242188 732.060546875 c 0
 552.530273438 721.0390625 550.711914062 704.93359375 539.690429688 696.1015625 c 0
 535.645507812 692.873046875 530.932617188 691.12890625 528.409179688 690.4609375 c 0
 527.555664062 690.275390625 l 0
 525.588867188 689.71875 536.647460938 695.58203125 536.647460938 695.58203125 c 0
 534.086914062 693.021484375 540.209960938 700.517578125 540.209960938 700.517578125 c 0
 541.249023438 703.783203125 l 0
 541.137695312 703.15234375 540.506835938 698.25390625 539.653320312 690.4609375 c 0
 538.280273438 678.177734375 535.756835938 666.04296875 535.051757812 645.966796875 c 0
 534.272460938 623.330078125 535.051757812 592.380859375 535.051757812 555.865234375 c 0
 535.051757812 516.900390625 534.569335938 469.400390625 535.051757812 423.421875 c 0
 535.534179688 378.296875 536.610351562 327.0859375 537.909179688 284.595703125 c 0
 539.170898438 242.921875 540.840820312 203.400390625 542.622070312 173.490234375 c 0
 544.254882812 145.3984375 546.555664062 126.76953125 548.225585938 108.994140625 c 0
 549.672851562 93.556640625 550.860351562 83.462890625 551.936523438 74.630859375 c 0
 552.975585938 66.318359375 553.680664062 62.013671875 554.571289062 57.115234375 c 0
 555.387695312 52.587890625 555.944335938 50.25 556.723632812 47.689453125 c 0
 557.391601562 45.462890625 557.799804688 43.978515625 557.948242188 43.5703125 c 0
 557.985351562 43.421875 556.018554688 46.724609375 556.018554688 46.724609375 c 0
 558.319335938 43.830078125 550.452148438 50.658203125 550.452148438 50.658203125 c 0
 546.666992188 51.251953125 l 0
 547.409179688 51.2890625 549.524414062 51.623046875 553.086914062 51.623046875 c 0
 567.225585938 51.623046875 578.655273438 40.15625 578.655273438 26.017578125 c 0
 578.655273438 11.87890625 567.225585938 0.44921875 553.086914062 0.44921875 c 0
 552.678710938 0.44921875 548.188476562 -1.814453125 536.758789062 1.376953125 c 0
 529.708007812 3.34375 522.174804688 7.12890625 516.014648438 14.7734375 c 0
 508.963867188 23.642578125 508.592773438 29.98828125 507.739257812 32.80859375 c 0
 506.291992188 37.55859375 505.215820312 42.419921875 504.213867188 47.986328125 c 0
 503.211914062 53.404296875 502.247070312 59.267578125 501.133789062 68.396484375 c 0
 500.020507812 77.48828125 498.758789062 88.25 497.274414062 104.20703125 c 0
 495.678710938 121.0546875 493.229492188 141.01953125 491.522460938 170.484375 c 0
 489.704101562 201.099609375 487.997070312 240.955078125 486.735351562 283.07421875 c 0
 485.436523438 325.935546875 484.360351562 377.369140625 483.877929688 422.90234375 c 0
 483.395507812 469.548828125 483.877929688 517.271484375 483.877929688 555.90234375 c 0
 483.877929688 591.75 483.024414062 622.69921875 483.877929688 647.748046875 c 0
 484.694335938 671.3125 487.774414062 687.158203125 488.776367188 696.17578125 c 0
 489.926757812 706.41796875 488.331054688 709.1640625 492.969726562 720.22265625 c 0
 495.752929688 726.90234375 503.323242188 735.80859375 511.301757812 738.77734375 c 0
 514.752929688 740.0390625 514.604492188 739.779296875 515.458007812 740.001953125 c 0
 507.702148438 736.068359375 l 1024
40.5322265625 698.83984375 m 0
 42.4248046875 712.8671875 55.3388671875 722.6640625 69.3291015625 720.734375 c 0
 83.3564453125 718.841796875 93.1533203125 705.927734375 91.2236328125 691.9375 c 0
 89.7021484375 680.619140625 88.6259765625 680.099609375 87.1044921875 661.990234375 c 0
 87.1044921875 661.619140625 86.4365234375 646.404296875 85.7685546875 626.291015625 c 0
 84.9892578125 602.94921875 82.7998046875 571.03515625 82.9482421875 537.19140625 c 0
 83.0966796875 500.97265625 84.7666015625 458.37109375 86.6962890625 414.025390625 c 0
 88.5888671875 371.1640625 91.4091796875 321.251953125 94.2666015625 278.130859375 c 0
 97.1240234375 234.82421875 100.649414062 191.109375 103.692382812 157.4140625 c 0
 106.586914062 125.314453125 109.815429688 101.3046875 112.153320312 80.189453125 c 0
 114.342773438 60.818359375 116.346679688 42.078125 116.717773438 39.814453125 c 0
 117.274414062 36.548828125 117.645507812 34.43359375 117.831054688 33.54296875 c 0
 117.905273438 33.060546875 117.088867188 35.6953125 117.088867188 35.6953125 c 0
 114.565429688 40.37109375 l 0
 108.108398438 46.828125 l 0
 110.854492188 44.935546875 99.0908203125 50.6875 99.0908203125 50.6875 c 0
 93.1904296875 51.20703125 l 0
 91.5205078125 51.1328125 l 0
 95.4169921875 51.541015625 107.032226562 48.943359375 112.116210938 44.52734375 c 0
 114.231445312 42.634765625 104.657226562 49.0546875 104.657226562 49.0546875 c 0
 109.889648438 47.013671875 87.2529296875 49.72265625 90.8154296875 50.390625 c 0
 84.0244140625 48.08984375 l 0
 79.3115234375 44.97265625 l 0
 77.7529296875 43.525390625 l 0
 78.2724609375 44.15625 78.9775390625 45.158203125 80.9443359375 47.125 c 0
 90.9638671875 57.14453125 107.143554688 57.14453125 117.163085938 47.125 c 0
 127.145507812 37.142578125 127.145507812 20.92578125 117.163085938 10.943359375 c 0
 115.901367188 9.681640625 116.272460938 9.830078125 116.272460938 9.830078125 c 0
 115.530273438 8.9765625 114.713867188 7.900390625 112.375976562 5.896484375 c 0
 111.040039062 4.783203125 109.258789062 3.11328125 104.805664062 1.40625 c 0
 99.6845703125 -0.59765625 87.1787109375 -1.7109375 78.3837890625 6.0078125 c 0
 76.3798828125 7.751953125 87.6611328125 0.998046875 87.6611328125 0.998046875 c 0
 63.3544921875 7.86328125 68.0673828125 20.220703125 66.2119140625 31.5390625 c 0
 64.9873046875 39.072265625 63.4287109375 55.251953125 61.2763671875 74.5859375 c 0
 59.0498046875 94.84765625 55.7099609375 119.673828125 52.7041015625 152.8125 c 0
 49.6240234375 186.953125 46.0615234375 230.96484375 43.1669921875 274.75390625 c 0
 40.3095703125 318.24609375 37.4521484375 368.455078125 35.5595703125 411.8359375 c 0
 33.6298828125 456.3671875 31.9228515625 499.451171875 31.7373046875 537.005859375 c 0
 31.5888671875 573.0390625 33.8525390625 606.103515625 34.5947265625 627.998046875 c 0
 35.2998046875 648.296875 35.6337890625 660.876953125 36.1162109375 666.2578125 c 0
 37.7861328125 686.37109375 39.4560546875 691.232421875 40.4951171875 698.876953125 c 1024
EndSplineSet
EndChar

StartChar: I
Encoding: 73 73 8
Width: 698
Flags: W
LayerCount: 2
Fore
SplineSet
40 42 m 0
 51 51 67 49 76 38 c 0
 85 27 84 11 73 2 c 0
 70 0 71 1 69 -0 c 0
 66 -2 81 14 78 9 c 0
 81 17 l 0
 80 14 81 26 81 26 c 0
 82 21 75 38 77 36 c 0
 73 41 l 0
 69 44 l 0
 69 44 66 46 66 46 c 0
 67 46 66 46 68 45 c 0
 81 40 88 24 83 11 c 0
 78 -2 63 -8 50 -3 c 0
 49 -3 50 -3 49 -3 c 0
 48 -3 48 -3 46 -2 c 0
 45 -2 44 -1 40 2 c 0
 38 4 33 7 31 17 c 0
 29 28 38 41 43 44 c 0
 40 42 l 1024
605 38 m 0
 610 51 625 58 638 53 c 0
 651 48 658 33 653 20 c 0
 652 16 654 30 654 30 c 0
 653 35 l 0
 653 33 653 37 654 35 c 0
 655 31 656 21 651 13 c 0
 646 5 641 2 637 1 c 0
 642 4 l 0
 636 0 627 -2 616 -2 c 0
 592 -2 562 -2 524 -2 c 0
 503 -2 472 -1 443 -0 c 0
 384 1 321 2 263 3 c 0
 234 4 208 5 185 5 c 0
 162 5 140 4 123 3 c 0
 108 2 97 1 86 -0 c 0
 76 -1 69 -3 65 -3 c 0
 62 -3 61 -3 59 -3 c 0
 58 -3 58 -4 57 -4 c 0
 56 -4 l 0
 58 -4 l 0
 62 -3 l 0
 48 -6 34 2 31 16 c 0
 28 30 36 44 50 47 c 0
 63 50 56 48 56 48 c 0
 56 48 57 48 59 48 c 0
 61 48 70 50 81 51 c 0
 90 52 104 53 121 54 c 0
 139 55 161 56 185 56 c 0
 209 56 236 56 264 55 c 0
 322 54 386 52 444 51 c 0
 473 50 504 49 524 49 c 0
 561 49 592 49 616 49 c 0
 621 49 621 50 622 50 c 0
 624 50 618 48 618 48 c 0
 615 47 l 0
 610 43 l 0
 605 36 l 0
 607 41 605 19 604 22 c 0
 604 24 605 19 605 19 c 0
 605 19 600 26 605 38 c 1024
318 52 m 0
 306 59 301 75 308 87 c 0
 315 99 331 104 343 97 c 0
 344 96 344 96 346 95 c 0
 350 92 332 99 335 99 c 0
 330 100 l 0
 326 99 l 0
 327 99 325 99 330 100 c 0
 344 103 357 94 360 80 c 0
 363 66 354 53 340 50 c 0
 337 49 342 51 340 50 c 0
 337 49 331 42 315 54 c 0
 318 52 l 1024
364 644 m 4
 366 630 355 617 341 615 c 4
 327 613 315 624 313 638 c 4
 313 642 312 644 311 649 c 4
 311 651 311 653 311 653 c 4
 311 655 310 658 310 659 c 4
 311 657 l 4
 311 655 l 4
 314 649 l 4
 318 645 l 4
 326 639 l 4
 322 641 345 639 340 638 c 4
 336 637 351 643 351 643 c 4
 356 648 l 4
 359 654 l 4
 360 658 l 4
 360 656 361 661 361 661 c 4
 361 659 361 656 361 644 c 4
 361 632 361 612 361 590 c 4
 361 566 361 536 361 504 c 4
 361 471 361 395 361 360 c 4
 361 326 361 280 361 250 c 0
 361 220 361 192 361 169 c 0
 361 147 360 131 360 117 c 0
 360 105 360 97 359 89 c 0
 358 80 357 76 357 74 c 0
 356 69 352 60 351 59 c 0
 343 48 326 46 315 54 c 0
 304 63 302 79 310 90 c 0
 307 84 l 0
 307 84 306 82 306 82 c 0
 307 87 308 88 308 92 c 0
 308 98 309 106 309 118 c 0
 309 132 310 148 310 169 c 0
 310 191 310 220 310 250 c 0
 310 280 310 326 310 360 c 4
 310 395 310 471 310 504 c 4
 310 536 310 566 310 590 c 4
 310 612 310 632 310 644 c 4
 310 655 310 659 310 664 c 4
 310 665 309 666 311 671 c 4
 311 672 312 674 314 677 c 4
 316 680 321 688 332 689 c 4
 343 690 351 685 354 681 c 4
 363 671 361 669 361 668 c 4
 362 662 362 660 362 660 c 4
 362 657 362 656 362 655 c 4
 363 651 364 648 364 644 c 1028
54 652 m 4
 40 652 28 664 28 678 c 4
 28 692 40 703 54 703 c 4
 54 703 58 703 61 703 c 4
 62 703 69 704 78 703 c 4
 87 702 93 700 97 699 c 4
 111 696 119 682 116 668 c 4
 113 654 99 646 85 649 c 4
 78 651 74 652 72 652 c 4
 71 652 67 652 61 652 c 4
 58 652 54 652 54 652 c 1028
579 679 m 4
 565 683 557 696 561 710 c 4
 565 724 578 732 592 728 c 4
 601 726 613 723 623 720 c 4
 627 719 626 720 632 719 c 4
 634 719 635 719 642 715 c 4
 646 713 657 705 654 688 c 4
 651 674 643 672 640 670 c 4
 626 663 627 666 620 666 c 4
 603 665 558 666 513 666 c 4
 489 666 449 666 415 666 c 4
 347 666 274 665 211 664 c 4
 181 663 158 662 137 660 c 4
 118 659 104 656 91 655 c 4
 80 654 71 652 65 652 c 4
 61 652 57 652 54 652 c 4
 52 652 50 653 49 653 c 4
 48 653 48 653 48 653 c 4
 54 652 l 4
 40 652 28 664 28 678 c 4
 28 692 40 703 54 703 c 4
 54 703 56 703 57 703 c 4
 58 703 57 703 60 703 c 4
 63 703 73 705 85 706 c 4
 97 707 113 709 133 711 c 4
 153 713 178 715 210 716 c 4
 273 718 347 718 415 718 c 4
 450 718 489 718 513 718 c 4
 559 718 605 717 618 717 c 4
 621 717 622 718 623 718 c 4
 624 718 622 718 623 718 c 4
 619 716 l 4
 613 713 l 4
 609 708 l 4
 611 710 603 696 604 700 c 4
 605 704 605 684 604 688 c 4
 607 680 l 4
 614 672 l 4
 620 669 l 4
 622 668 l 4
 619 668 615 668 607 671 c 4
 603 672 590 676 579 679 c 1028
EndSplineSet
EndChar

StartChar: J
Encoding: 74 74 9
Width: 646
Flags: HW
LayerCount: 2
Fore
SplineSet
375.234375 686.967773438 m 0
 380.50390625 700.104492188 395.384765625 706.487304688 408.521484375 701.254882812 c 0
 421.62109375 695.985351562 428.00390625 681.104492188 422.771484375 667.967773438 c 0
 420.173828125 661.547851562 403.36328125 650.043945312 394.048828125 651.602539062 c 0
 391.228515625 652.047851562 390.2265625 652.530273438 390.15234375 652.567382812 c 0
 389.85546875 652.641601562 394.3828125 651.602539062 394.3828125 651.602539062 c 0
 391.859375 651.936523438 404.7734375 652.456054688 404.7734375 652.456054688 c 0
 401.13671875 651.379882812 414.34765625 657.836914062 414.34765625 657.836914062 c 0
 418.875 663.254882812 l 0
 421.3984375 668.895507812 l 0
 420.544921875 666.000976562 421.806640625 671.122070312 421.6953125 669.043945312 c 0
 421.658203125 668.116210938 421.32421875 657.799804688 422.5859375 643.735351562 c 0
 424.033203125 627.407226562 426.4453125 604.956054688 430.044921875 577.532226562 c 0
 433.904296875 548.252929688 440.17578125 511.106445312 445.22265625 472.252929688 c 0
 450.12109375 434.549804688 456.021484375 391.243164062 459.546875 349.829101562 c 0
 463.072265625 308.563476562 467.1171875 264.625976562 466.263671875 224.844726562 c 0
 465.447265625 186.213867188 462.626953125 149.067382812 454.091796875 116.522460938 c 0
 446.26171875 86.7236328125 434.869140625 58.8544921875 414.49609375 37.8876953125 c 0
 393.826171875 16.5869140625 366.10546875 4.6376953125 338.681640625 0.1103515625 c 0
 308.697265625 -4.8251953125 278.341796875 1.2607421875 251.400390625 8.1630859375 c 0
 223.419921875 15.3251953125 196.0703125 28.6474609375 174.1015625 40.9677734375 c 0
 150.388671875 54.3271484375 133.1328125 71.4345703125 120.8125 80.9345703125 c 0
 107.193359375 91.3994140625 98.509765625 98.6357421875 88.3046875 106.762695312 c 0
 77.208984375 115.557617188 75.353515625 131.625976562 84.1484375 142.721679688 c 0
 92.943359375 153.780273438 109.048828125 155.635742188 120.107421875 146.840820312 c 0
 130.794921875 138.342773438 139.0703125 131.477539062 152.05859375 121.495117188 c 0
 167.755859375 109.360351562 182.5625 94.9619140625 199.224609375 85.6103515625 c 0
 218.55859375 74.7001953125 243.19921875 63.1220703125 264.12890625 57.7412109375 c 0
 287.990234375 51.6181640625 312.890625 47.7587890625 330.369140625 50.6162109375 c 0
 348.515625 53.6220703125 366.587890625 62.0087890625 377.794921875 73.5126953125 c 0
 389.001953125 85.0537109375 398.01953125 104.573242188 404.55078125 129.510742188 c 0
 411.453125 155.672851562 414.34765625 189.442382812 415.08984375 225.920898438 c 0
 415.869140625 261.620117188 412.083984375 304.258789062 408.55859375 345.450195312 c 0
 405.14453125 385.157226562 399.35546875 427.870117188 394.45703125 465.684570312 c 0
 389.55859375 503.387695312 383.32421875 540.200195312 379.31640625 570.852539062 c 0
 375.60546875 598.981445312 373.119140625 622.063476562 371.59765625 639.245117188 c 0
 370.11328125 656.166992188 370.373046875 667.782226562 370.595703125 671.752929688 c 0
 370.744140625 674.981445312 370.892578125 677.616210938 371.708984375 681.215820312 c 0
 372.376953125 684.184570312 372.78515625 689.194335938 379.873046875 695.725585938 c 0
 385.736328125 701.106445312 396.08984375 703.110351562 401.322265625 702.368164062 c 0
 404.736328125 701.848632812 405.404296875 701.440429688 405.701171875 701.329101562 c 0
 406.146484375 701.180664062 401.173828125 702.293945312 401.173828125 702.293945312 c 0
 392.712890625 701.774414062 l 0
 397.833984375 702.961914062 376.904296875 691.049804688 379.76171875 694.204101562 c 0
 382.470703125 697.172851562 375.234375 686.967773438 375.234375 686.967773438 c 1024
628.0234375 691.272460938 m 0
 632.4765625 677.838867188 625.240234375 663.366210938 611.84375 658.875976562 c 0
 598.41015625 654.422851562 583.9375 661.659179688 579.447265625 675.055664062 c 0
 575.587890625 686.745117188 581.1171875 696.096679688 583.046875 698.879882812 c 0
 584.197265625 700.475585938 582.119140625 697.395507812 583.1953125 699.028320312 c 0
 581.451171875 695.799804688 l 0
 579.70703125 690.456054688 l 0
 580.5234375 694.500976562 582.787109375 671.975585938 581.005859375 676.465820312 c 0
 579.70703125 679.805664062 585.904296875 668.747070312 585.904296875 668.747070312 c 0
 583.4921875 671.307617188 591.65625 664.331054688 591.65625 664.331054688 c 0
 593.845703125 663.329101562 l 0
 597.1484375 662.401367188 l 0
 594.10546875 663.032226562 593.771484375 662.772460938 585.71875 663.366210938 c 0
 575.216796875 664.145507812 563.37890625 665.555664062 545.12109375 666.149414062 c 0
 526.046875 666.743164062 498.177734375 666.297851562 469.41796875 667.077148438 c 0
 439.65625 667.893554688 405.29296875 669.637695312 374.26953125 670.899414062 c 0
 343.134765625 672.161132812 312.59375 673.571289062 283.3515625 674.684570312 c 0
 254.814453125 675.797851562 226.203125 677.356445312 202.638671875 677.504882812 c 0
 179.408203125 677.653320312 159.443359375 676.762695312 140.814453125 675.649414062 c 0
 122.51953125 674.573242188 105.634765625 672.829101562 92.423828125 671.084960938 c 0
 81.55078125 669.637695312 74.42578125 667.708007812 66.484375 665.852539062 c 0
 60.47265625 664.442382812 56.724609375 663.106445312 52.60546875 661.770507812 c 0
 51.158203125 661.250976562 50.08203125 660.842773438 49.859375 660.768554688 c 0
 51.158203125 661.436523438 l 0
 54.015625 663.366210938 l 0
 56.91015625 666.075195312 l 0
 61.2890625 672.829101562 l 0
 63.21875 680.659179688 l 0
 62.84765625 675.612304688 60.658203125 692.905273438 60.658203125 692.905273438 c 0
 58.357421875 696.393554688 l 0
 59.322265625 695.243164062 59.953125 696.282226562 63.626953125 688.971679688 c 0
 69.97265625 676.317382812 64.8515625 660.954101562 52.197265625 654.608398438 c 0
 39.54296875 648.299804688 24.1796875 653.420898438 17.87109375 666.075195312 c 0
 20.69140625 661.770507812 l 0
 20.654296875 661.807617188 18.873046875 663.106445312 16.08984375 667.819335938 c 0
 12.861328125 673.200195312 10.708984375 685.000976562 14.53125 693.610351562 c 0
 19.986328125 705.930664062 23.919921875 704.817382812 25.8125 705.893554688 c 0
 30.525390625 708.602539062 32.974609375 709.159179688 36.42578125 710.309570312 c 0
 40.0625 711.534179688 46.333984375 713.723632812 54.83203125 715.690429688 c 0
 61.771484375 717.323242188 71.791015625 719.995117188 85.70703125 721.850585938 c 0
 100.10546875 723.743164062 118.140625 725.598632812 137.845703125 726.749023438 c 0
 156.994140625 727.899414062 178.2578125 728.864257812 203.009765625 728.715820312 c 0
 228.35546875 728.530273438 257.263671875 726.897460938 285.318359375 725.821289062 c 0
 314.8203125 724.708007812 345.361328125 723.297851562 376.384765625 722.036132812 c 0
 407.66796875 720.774414062 441.8828125 719.067382812 470.828125 718.250976562 c 0
 498.251953125 717.508789062 525.67578125 717.991210938 546.791015625 717.323242188 c 0
 566.904296875 716.655273438 580.59765625 715.096679688 589.578125 714.428710938 c 0
 594.328125 714.057617188 598.076171875 713.723632812 600.93359375 713.426757812 c 0
 603.60546875 713.166992188 600.48828125 715.282226562 610.87890625 711.608398438 c 0
 613.99609375 710.495117188 618.2265625 709.493164062 623.755859375 703.221679688 c 0
 628.431640625 697.989257812 631.474609375 687.153320312 629.767578125 679.768554688 c 0
 627.541015625 670.008789062 625.12890625 669.674804688 624.646484375 669.043945312 c 0
 627.689453125 674.610351562 l 0
 629.28515625 681.846679688 l 0
 629.0625 678.840820312 628.060546875 691.309570312 628.060546875 691.309570312 c 1024
EndSplineSet
EndChar

StartChar: K
Encoding: 75 75 10
Width: 576
Flags: HW
LayerCount: 2
Fore
SplineSet
76.416015625 293.34375 m 0
 62.314453125 292.416015625 50.10546875 303.103515625 49.21484375 317.205078125 c 0
 48.287109375 331.306640625 58.974609375 343.478515625 73.076171875 344.40625 c 0
 74.2265625 344.443359375 74.5234375 344.443359375 74.857421875 344.443359375 c 0
 82.46484375 344.443359375 70.330078125 343.44140625 74.44921875 344.109375 c 0
 74.44921875 344.109375 74.8203125 343.701171875 76.453125 344.40625 c 0
 78.642578125 345.296875 85.43359375 349.119140625 95.935546875 353.68359375 c 0
 105.064453125 357.69140625 118.720703125 364.66796875 137.052734375 370.6796875 c 0
 153.71484375 376.09765625 175.7578125 383.51953125 200.435546875 387.67578125 c 0
 223.814453125 391.646484375 252.462890625 396.43359375 281.22265625 394.615234375 c 0
 308.53515625 392.908203125 337.2578125 388.1953125 364.5703125 376.505859375 c 0
 390.806640625 365.26171875 416.189453125 348.154296875 436.970703125 327.55859375 c 0
 458.939453125 305.73828125 474.302734375 279.2421875 487.662109375 255.640625 c 0
 501.875 230.48046875 512.04296875 203.650390625 520.615234375 180.939453125 c 0
 529.26171875 158.04296875 534.939453125 136.037109375 539.4296875 118.6328125 c 0
 544.1796875 100.44921875 546.517578125 85.271484375 548.447265625 73.767578125 c 0
 550.48828125 61.447265625 550.93359375 52.4296875 551.52734375 46.41796875 c 0
 552.009765625 41.37109375 554.05078125 36.064453125 552.1953125 25.376953125 c 0
 551.0078125 18.474609375 547.333984375 12.462890625 544.84765625 9.419921875 c 0
 542.806640625 6.859375 545.21875 10.5703125 543.95703125 8.603515625 c 0
 536.4609375 -3.3828125 520.689453125 -7.01953125 508.703125 0.4765625 c 0
 496.716796875 7.97265625 493.080078125 23.744140625 500.576171875 35.73046875 c 0
 503.359375 40.220703125 504.84375 41.333984375 505.103515625 41.630859375 c 0
 501.80078125 34.134765625 l 0
 501.541015625 33.1328125 l 0
 501.35546875 34.728515625 500.947265625 37.66015625 500.576171875 41.556640625 c 0
 499.833984375 49.1640625 499.57421875 55.732421875 497.94140625 65.34375 c 0
 496.01171875 77.0703125 493.93359375 90.169921875 489.888671875 105.79296875 c 0
 485.435546875 122.9375 480.166015625 143.087890625 472.70703125 162.904296875 c 0
 464.3203125 185.1328125 454.857421875 209.662109375 443.09375 230.40625 c 0
 430.291015625 253.04296875 416.634765625 275.60546875 400.9375 291.19140625 c 0
 385.0546875 306.92578125 364.162109375 320.990234375 344.3828125 329.451171875 c 0
 324.380859375 338.0234375 301.447265625 342.068359375 277.994140625 343.552734375 c 0
 257.1015625 344.8515625 231.533203125 341.029296875 208.970703125 337.20703125 c 0
 189.080078125 333.8671875 169.486328125 327.41015625 152.97265625 321.9921875 c 0
 138.57421875 317.31640625 127.552734375 311.638671875 116.345703125 306.77734375 c 0
 108.255859375 303.21484375 103.357421875 300.134765625 96.009765625 297.091796875 c 0
 89.29296875 294.30859375 84.6171875 293.900390625 82.873046875 293.603515625 c 0
 79.607421875 293.046875 76.712890625 293.046875 74.634765625 293.1953125 c 0
 73.669921875 293.232421875 72.927734375 293.34375 72.59375 293.41796875 c 0
 72.408203125 293.41796875 74.857421875 293.306640625 74.857421875 293.306640625 c 0
 74.671875 293.306640625 76.416015625 293.34375 76.416015625 293.34375 c 1024
432.498046875 707.61328125 m 0
 435.94921875 721.34375 449.828125 729.693359375 463.55859375 726.2421875 c 0
 477.251953125 722.828125 485.6015625 708.94921875 482.1875 695.21875 c 0
 482.1875 695.21875 482.843253532 699.698160324 482.076171875 692.02734375 c 0
 481.4453125 686.498046875 479.404296875 680.115234375 476.212890625 673.361328125 c 0
 471.9453125 664.380859375 468.197265625 660.744140625 460.701171875 649.42578125 c 0
 452.57421875 637.10546875 430.587890625 606.435546875 414.853515625 585.208984375 c 0
 399.08203125 563.908203125 379.822265625 540.7890625 359.96875 516.81640625 c 0
 340.00390625 492.6953125 316.513671875 464.046875 294.73046875 440.07421875 c 0
 273.466796875 416.6953125 252.203125 394.763671875 232.3125 376.728515625 c 0
 212.5703125 358.8046875 193.79296875 344.888671875 177.353515625 333.71875 c 0
 160.765625 322.51171875 145.736328125 315.869140625 134.900390625 310.859375 c 0
 122.060546875 304.884765625 111.55859375 302.287109375 105.6953125 300.3203125 c 0
 97.53125 297.611328125 90.220703125 295.681640625 87.95703125 295.087890625 c 0
 84.765625 294.271484375 83.095703125 293.529296875 78.048828125 293.34375 c 0
 75.228515625 293.232421875 75.451171875 293.34375 73.966796875 293.4921875 c 0
 79.421875 293.529296875 l 0
 74.671875 292.861328125 75.859375 292.97265625 71.703125 293.455078125 c 0
 57.67578125 295.125 47.65625 307.853515625 49.326171875 321.880859375 c 0
 50.99609375 335.908203125 63.76171875 345.927734375 77.7890625 344.2578125 c 0
 72.185546875 344.220703125 l 0
 72.185546875 344.220703125 71.072265625 343.552734375 75.005859375 344.591796875 c 0
 76.82421875 345.037109375 83.318359375 346.78125 89.515625 348.822265625 c 0
 97.9765625 351.642578125 104.841796875 353.3125 113.376953125 357.24609375 c 0
 124.546875 362.44140625 136.125 367.599609375 148.66796875 376.060546875 c 0
 163.66015625 386.228515625 180.359375 398.623046875 197.94921875 414.580078125 c 0
 216.021484375 431.01953125 236.357421875 451.94921875 256.87890625 474.474609375 c 0
 277.36328125 497 300.51953125 525.240234375 320.521484375 549.3984375 c 0
 340.375 573.37109375 359.2265625 596.0078125 373.69921875 615.6015625 c 0
 387.466796875 634.23046875 408.599609375 663.37890625 417.98828125 677.5546875 c 0
 421.99609375 683.603515625 425.26171875 688.46484375 427.63671875 691.990234375 c 0
 429.826171875 695.255859375 428.453125 692.1015625 429.974609375 695.29296875 c 0
 433.017578125 701.67578125 429.529296875 695.552734375 432.53515625 707.576171875 c 1024
29.62109375 706.2734375 m 0
 31.7734375 720.263671875 44.8359375 729.837890625 58.826171875 727.685546875 c 0
 72.779296875 725.533203125 82.353515625 712.470703125 80.201171875 698.48046875 c 0
 79.125 691.466796875 78.45703125 680.66796875 65.0234375 673.060546875 c 0
 60.2734375 670.388671875 56.93359375 670.0546875 56.822265625 670.017578125 c 0
 56.525390625 669.98046875 59.3828125 670.72265625 59.3828125 670.72265625 c 0
 56.525390625 669.7578125 68.8828125 676.919921875 68.8828125 676.919921875 c 0
 66.65625 674.544921875 72.890625 682.857421875 72.890625 682.857421875 c 0
 73.55859375 684.453125 l 0
 72.81640625 680.259765625 71.740234375 666.455078125 71.03515625 640.0703125 c 0
 70.404296875 617.544921875 70.73828125 485.103515625 72.927734375 402.498046875 c 0
 73.966796875 363.64453125 78.197265625 311.98828125 80.4609375 269.53515625 c 0
 82.724609375 228.12109375 84.69140625 187.59765625 86.17578125 156.57421875 c 0
 87.5859375 126.8125 88.662109375 103.5078125 89.033203125 87.69921875 c 0
 89.6640625 59.8671875 88.7734375 37.75 89.033203125 30.068359375 c 0
 89.14453125 26.69140625 89.14453125 24.2421875 89.14453125 22.7578125 c 0
 89.033203125 23.537109375 l 0
 88.25390625 27.619140625 l 0
 86.435546875 32.369140625 l 0
 87.548828125 30.1796875 76.0078125 43.76171875 79.79296875 40.64453125 c 0
 83.7265625 37.453125 57.3046875 46.396484375 63.390625 46.43359375 c 0
 69.10546875 46.470703125 50.4765625 42.796875 50.4765625 42.796875 c 0
 45.35546875 38.751953125 l 0
 42.1640625 34.818359375 l 0
 41.2734375 33.296875 l 0
 42.53515625 35.634765625 46.208984375 43.576171875 57.787109375 47.138671875 c 0
 52.740234375 44.912109375 l 0
 49.994140625 43.01953125 l 0
 50.99609375 43.8359375 53.37109375 46.916015625 57.638671875 51.18359375 c 0
 67.658203125 61.203125 83.875 61.203125 93.857421875 51.18359375 c 0
 103.83984375 41.201171875 103.83984375 24.984375 93.857421875 15.001953125 c 0
 92.892578125 14.07421875 90.8515625 11.7734375 88.55078125 9.32421875 c 0
 86.212890625 6.80078125 89.88671875 3.4609375 72.853515625 -1.771484375 c 0
 44.16796875 -10.603515625 38.15625 18.453125 37.859375 28.546875 c 0
 37.48828125 40.458984375 38.453125 60.3125 37.859375 86.548828125 c 0
 37.48828125 101.20703125 36.412109375 124.4375 35.0390625 154.162109375 c 0
 33.5546875 185.07421875 31.55078125 225.486328125 29.361328125 266.7890625 c 0
 27.09765625 308.27734375 22.830078125 360.08203125 21.716796875 401.125 c 0
 20.640625 442.056640625 20.12109375 511.671875 19.861328125 555.720703125 c 0
 19.6015625 598.099609375 19.564453125 630.755859375 19.82421875 641.48046875 c 0
 20.86328125 679.18359375 17.560546875 689.908203125 27.83984375 707.015625 c 0
 30.994140625 712.28515625 38.75 718 43.759765625 719.484375 c 0
 45.35546875 719.9296875 46.24609375 720.115234375 46.283203125 720.115234375 c 0
 46.39453125 720.115234375 44.2421875 719.55859375 44.2421875 719.55859375 c 0
 46.654296875 720.337890625 35.3359375 714.36328125 35.3359375 714.36328125 c 0
 31.068359375 708.982421875 l 0
 29.435546875 705.234375 l 0
 29.546875 705.53125 29.47265625 705.30859375 29.62109375 706.2734375 c 1024
EndSplineSet
EndChar

StartChar: L
Encoding: 76 76 11
Width: 575
Flags: HW
LayerCount: 2
Fore
SplineSet
57.94921875 -9.357421875 m 0
 44.21875 -12.771484375 30.33984375 -4.384765625 26.962890625 9.345703125 c 0
 23.548828125 23.076171875 31.935546875 36.91796875 45.62890625 40.33203125 c 0
 48.8203125 41.037109375 39.46875 37.919921875 39.46875 37.919921875 c 0
 36.57421875 36.064453125 l 0
 36.982421875 36.361328125 41.62109375 39.404296875 45.888671875 40.62890625 c 0
 49.1171875 41.51953125 37.01953125 35.767578125 37.01953125 35.767578125 c 0
 38.578125 37.21484375 44.6640625 42.298828125 54.08984375 46.232421875 c 0
 49.599609375 43.783203125 l 0
 52.494140625 45.82421875 63.9146796638 54.1444109012 84.037109375 55.509765625 c 0
 106 57 105 58 133.865234375 57.822265625 c 0
 163.446804735 57.6401204932 202.443359375 55.744140625 235.099609375 54.296875 c 0
 268.720703125 52.8125 302.490234375 50.5859375 331.806640625 49.17578125 c 0
 359.712890625 47.876953125 387.5078125 46.20703125 404.65234375 46.169921875 c 0
 439.423828125 46.05859375 468.294921875 46.4296875 486.478515625 48.619140625 c 0
 500.431640625 50.251953125 498.279296875 51.1796875 508.595703125 56.931640625 c 0
 503.95703125 53.072265625 l 0
 502.17578125 50.4375 l 0
 502.62109375 51.587890625 503.734375 54.59375 506.443359375 58.712890625 c 0
 514.310546875 70.439453125 530.23046875 73.556640625 541.95703125 65.65234375 c 0
 553.68359375 57.78515625 556.80078125 41.865234375 548.93359375 30.138671875 c 0
 547.412109375 28.0234375 550.083984375 31.80859375 548.33984375 28.134765625 c 0
 546.26171875 23.755859375 541.177734375 16.408203125 533.5703125 12.177734375 c 0
 527.78125 8.94921875 514.19921875 0.376953125 492.67578125 -2.220703125 c 0
 469.66796875 -4.966796875 439.869140625 -5.115234375 404.578125 -5.00390625 c 0
 384.873046875 -4.966796875 357.078125 -3.259765625 329.46875 -1.9609375 c 0
 299.521484375 -0.4765625 265.86328125 1.75 232.947265625 3.197265625 c 0
 199.623046875 4.64453125 160.80668569 7.16554650931 134.94140625 6.685546875 c 0
 98 6 102 6 89.083984375 4.595703125 c 0
 82.8948147707 3.92278418572 80.4375 2.962890625 80.177734375 2.8515625 c 0
 80.177734375 2.8515625 89.3153369068 5.46209532649 73.869140625 -0.970703125 c 0
 68.154296875 -3.3828125 78.322265625 -3.3828125 59.87890625 -8.578125 c 0
 56.09375 -9.728515625 85.484375 -2.4921875 58.060546875 -9.283203125 c 1024
56.5390625 718.259765625 m 0
 65.111328125 729.50390625 81.1796875 731.693359375 92.423828125 723.12109375 c 0
 103.66796875 714.548828125 105.8203125 698.517578125 97.28515625 687.2734375 c 0
 95.095703125 684.37890625 92.23828125 681.818359375 90.3828125 680.408203125 c 0
 86.74609375 677.662109375 93.796875 685.640625 92.498046875 682.44921875 c 0
 84.2373842531 662.10275909 91.7819201271 682.098856036 91.384765625 681.001953125 c 0
 91.05078125 679.8515625 90.791015625 678.552734375 90.0859375 670.240234375 c 0
 86.671875 630.013671875 82.404296875 577.244140625 79.546875 515.16015625 c 0
 77.98828125 481.576171875 77.654296875 427.13671875 76.94921875 384.7578125 c 0
 75.576171875 303.48828125 74.42578125 246.36328125 73.38671875 177.005859375 c 0
 72.94140625 144.572265625 72.607421875 125.1640625 72.49609375 105.94140625 c 0
 72.421875 86.5703125 72.5703125 71.65234375 72.8671875 58.998046875 c 0
 73.126953125 47.60546875 73.498046875 39.88671875 74.0546875 34.208984375 c 0
 74.42578125 30.794921875 75.01953125 29.125 75.91015625 25.78515625 c 0
 76.615234375 23.224609375 77.09765625 20.73828125 77.283203125 18.2890625 c 0
 77.39453125 17.138671875 77.357421875 15.9140625 77.357421875 15.171875 c 0
 77.357421875 15.3203125 l 0
 77.357421875 15.060546875 77.283203125 17.62109375 77.283203125 17.62109375 c 0
 76.875 20.552734375 l 0
 75.09375 26.044921875 l 0
 80.919921875 13.205078125 75.2421875 -1.97265625 62.365234375 -7.8359375 c 0
 49.48828125 -13.662109375 34.310546875 -7.947265625 28.484375 4.9296875 c 0
 21.3828274496 20.5608111843 26.18359375 15.951171875 26.18359375 16.248046875 c 0
 26.517578125 12.240234375 l 0
 26.18359375 13.390625 24.068359375 19.55078125 23.140625 29.05078125 c 0
 22.32421875 36.806640625 21.953125 45.75 21.65625 57.810546875 c 0
 21.359375 70.947265625 21.2109375 86.384765625 21.322265625 106.126953125 c 0
 21.396484375 125.7578125 21.73046875 145.3515625 22.212890625 177.7109375 c 0
 23.21484375 247.068359375 24.365234375 304.23046875 25.73828125 385.611328125 c 0
 26.443359375 427.619140625 26.740234375 481.984375 28.373046875 517.4609375 c 0
 31.3046875 580.583984375 35.68359375 634.095703125 39.060546875 674.544921875 c 0
 39.951171875 684.8984375 40.841796875 691.28125 42.95703125 697.478515625 c 0
 44.033203125 700.6328125 45.814453125 704.34375 48.337890625 707.423828125 c 0
 49.525390625 708.908203125 50.193359375 709.501953125 50.416015625 709.76171875 c 0
 50.638671875 710.021484375 48.486328125 707.53515625 48.486328125 707.53515625 c 0
 45.072265625 701.634765625 l 0
 47.669921875 707.98046875 51.34375 714.2890625 56.390625 718.705078125 c 0
 58.654296875 720.708984375 59.28515625 720.96875 59.65625 721.265625 c 0
 56.5390625 718.185546875 l 1024
EndSplineSet
EndChar

StartChar: M
Encoding: 77 77 12
Width: 632
Flags: HW
LayerCount: 2
Fore
SplineSet
68 28 m 0
 71 14 62 1 48 -2 c 0
 34 -5 21 4 18 18 c 0
 20 12 l 0
 23 7 l 0
 30 1 l 0
 27 3 45 -3 41 -3 c 0
 37 -3 52 -1 52 -1 c 0
 58 2 l 0
 55 0 63 7 63 7 c 0
 61 5 65 11 65 11 c 0
 64 9 66 12 66 11 c 0
 66 10 67 10 61 3 c 0
 58 0 47 -10 32 -4 c 0
 19 1 18 9 17 12 c 0
 13 27 15 25 16 32 c 0
 17 45 21 96 30 141 c 0
 35 168 48 210 59 252 c 0
 70 294 86 344 97 387 c 0
 109 431 120 474 127 511 c 0
 134 547 137 581 141 609 c 0
 144 634 146 652 147 668 c 0
 148 681 147 689 149 700 c 0
 150 704 150 708 153 714 c 0
 156 720 168 732 183 730 c 0
 198 728 200 720 203 716 c 0
 206 712 208 708 210 704 c 0
 213 697 218 685 222 668 c 0
 227 649 230 626 235 601 c 0
 240 575 246 546 253 516 c 0
 260 485 269 447 277 419 c 0
 285 391 294 367 302 347 c 0
 309 329 316 314 321 305 c 0
 323 301 326 298 326 298 c 0
 324 300 l 0
 324 300 311 303 315 303 c 0
 306 302 l 0
 309 303 300 298 300 298 c 0
 300 298 297 295 297 295 c 0
 297 295 297 296 298 298 c 0
 300 304 303 319 306 341 c 0
 310 364 313 396 318 427 c 0
 323 459 328 497 334 530 c 0
 340 561 347 592 353 615 c 0
 359 638 365 655 370 669 c 0
 375 684 381 698 384 703 c 0
 388 709 389 715 396 721 c 0
 397 722 394 724 407 729 c 0
 415 732 429 728 435 723 c 0
 440 718 441 715 442 712 c 0
 446 703 446 690 449 677 c 0
 452 662 456 642 461 617 c 0
 466 590 472 558 479 524 c 0
 487 488 496 446 506 406 c 0
 515 367 526 325 536 288 c 0
 546 251 557 215 565 184 c 0
 573 154 579 130 585 109 c 0
 590 89 592 87 596 75 c 0
 600 63 602 55 604 50 c 0
 606 46 604 49 607 46 c 0
 607 46 605 47 605 47 c 0
 606 47 608 46 611 44 c 0
 623 36 626 20 618 8 c 0
 610 -4 594 -7 582 1 c 0
 582 1 576 3 569 11 c 0
 567 14 561 20 557 29 c 0
 553 38 550 48 546 61 c 0
 542 75 541 76 536 96 c 0
 530 118 524 141 516 170 c 0
 508 200 497 237 487 275 c 0
 477 312 466 355 456 394 c 0
 446 435 437 476 429 513 c 0
 421 548 415 581 410 607 c 0
 405 632 402 653 399 667 c 0
 396 681 395 687 395 687 c 0
 396 685 l 0
 399 681 l 0
 406 676 l 0
 416 673 l 0
 424 674 l 0
 420 673 431 678 431 678 c 0
 429 677 433 680 433 680 c 0
 433 680 432 679 431 678 c 0
 430 677 433 679 432 678 c 0
 431 677 430 676 429 673 c 0
 425 665 422 662 418 652 c 0
 413 640 409 623 403 602 c 0
 397 579 389 549 384 520 c 0
 378 489 374 453 369 420 c 0
 364 389 361 357 357 333 c 0
 354 312 351 296 347 282 c 0
 345 275 343 268 337 262 c 0
 331 255 318 251 309 252 c 0
 287 255 283 269 277 280 c 0
 270 292 262 308 254 328 c 0
 246 349 237 375 228 405 c 0
 219 435 210 472 203 504 c 0
 196 535 190 566 185 591 c 0
 180 617 176 640 172 656 c 0
 169 670 166 677 163 684 c 0
 162 687 161 688 161 688 c 0
 161 688 165 684 163 685 c 0
 167 683 l 0
 175 680 l 0
 172 681 188 681 185 680 c 0
 182 679 192 684 192 684 c 0
 189 682 198 690 198 690 c 0
 198 690 200 693 200 693 c 0
 200 693 199 692 199 691 c 0
 199 689 199 680 198 664 c 0
 197 649 195 628 192 602 c 0
 189 575 185 540 177 501 c 0
 169 462 159 418 147 374 c 0
 135 330 120 280 109 239 c 0
 98 197 85 154 81 131 c 0
 73 90 69 44 67 27 c 0
 67 23 67 21 67 21 c 0
 67 21 66 23 66 22 c 0
 66 26 l 0
 65 30 l 0
 61 36 l 0
 63 33 45 46 50 44 c 0
 55 42 31 43 35 44 c 0
 39 45 26 40 26 40 c 0
 20 35 l 0
 18 31 l 0
 18 31 18 30 19 32 c 0
 20 33 19 35 25 41 c 0
 27 43 30 46 36 48 c 0
 46 51 60 44 64 38 c 0
 67 33 68 30 68 28 c 1024
EndSplineSet
EndChar

StartChar: N
Encoding: 78 78 13
Width: 517
Flags: HW
LayerCount: 2
Fore
SplineSet
81 22 m 0
 81 8 69 -4 55 -4 c 0
 41 -4 29 8 29 22 c 0
 29 28 29 29 29 40 c 0
 29 43 28 53 29 71 c 0
 30 89 31 116 33 147 c 0
 35 180 39 282 42 322 c 0
 45 363 48 407 51 447 c 0
 54 485 56 526 58 557 c 0
 60 586 60 607 61 627 c 0
 62 645 63 658 65 670 c 0
 67 682 70 691 72 695 c 0
 75 703 81 709 82 710 c 0
 87 715 92 719 93 719 c 0
 93 719 90 717 90 717 c 0
 90 717 91 720 100 723 c 0
 111 727 128 717 131 711 c 0
 136 702 138 700 152 668 c 0
 156 658 172 621 187 586 c 0
 203 550 223 505 242 463 c 0
 262 419 314 306 334 265 c 0
 353 227 372 189 388 160 c 0
 404 132 417 111 429 93 c 0
 440 77 448 67 455 58 c 0
 460 52 462 52 468 46 c 0
 470 44 472 43 472 42 c 0
 468 45 l 0
 470 43 457 48 460 48 c 0
 464 47 448 47 450 48 c 0
 451 48 447 47 452 48 c 0
 441 42 l 0
 446 47 434 26 435 31 c 0
 436 34 435 26 435 26 c 0
 435 26 435 27 435 29 c 0
 435 30 435 30 435 34 c 0
 435 39 435 43 435 57 c 0
 435 72 435 92 435 123 c 0
 435 157 435 202 435 249 c 0
 435 299 434 318 433 370 c 0
 432 420 431 538 430 577 c 0
 429 613 428 641 427 661 c 0
 426 678 425 684 426 694 c 0
 427 701 430 709 434 714 c 0
 434 714 436 716 436 716 c 0
 434 713 l 0
 440 726 455 730 468 724 c 0
 481 718 485 703 479 690 c 0
 476 683 475 684 474 682 c 0
 472 680 477 689 477 689 c 0
 477 686 477 680 478 662 c 0
 479 643 480 616 481 579 c 0
 482 540 483 421 484 371 c 0
 485 319 486 300 486 250 c 0
 486 202 486 157 486 123 c 0
 486 92 486 72 486 57 c 0
 486 43 486 39 486 34 c 0
 486 30 486 30 486 29 c 0
 486 28 486 28 485 21 c 0
 484 14 482 11 477 6 c 0
 475 4 464 -2 462 -2 c 0
 462 -2 465 -1 465 -1 c 0
 462 -2 450 -5 441 1 c 0
 435 5 434 8 432 10 c 0
 431 11 424 16 416 26 c 0
 409 35 399 47 387 65 c 0
 375 83 360 105 343 135 c 0
 326 165 307 203 288 242 c 0
 268 284 216 398 196 442 c 0
 177 484 156 529 140 565 c 0
 125 600 108 640 105 647 c 0
 91 679 93 675 87 686 c 0
 86 688 95 678 92 680 c 0
 90 682 106 673 102 674 c 0
 98 675 116 675 113 674 c 0
 119 676 l 0
 116 675 124 679 124 679 c 0
 122 678 124 679 120 676 c 0
 118 675 121 677 121 677 c 0
 115.472135955 671.472135955 119 676.708203932 119 676 c 0
 117 671 116 669 115 662 c 0
 114 653 113 642 112 624 c 0
 111 606 111 584 109 554 c 0
 107 523 105 483 102 444 c 0
 99 403 96 360 93 319 c 0
 90 279 86 177 84 144 c 0
 82 113 82 87 81 69 c 0
 80 53 81 46 81 40 c 0
 81 29 81 28 81 22 c 1024
EndSplineSet
EndChar

StartChar: O
Encoding: 79 79 14
Width: 710
Flags: W
LayerCount: 2
Fore
SplineSet
407.033203125 697.641601562 m 0
 420.169921875 692.372070312 426.552734375 677.491210938 421.283203125 664.354492188 c 0
 416.05078125 651.217773438 401.169921875 644.872070312 388.033203125 650.104492188 c 0
 380.388671875 653.147460938 382.169921875 653.370117188 376.71484375 654.817382812 c 0
 378.162109375 654.520507812 l 0
 376.1953125 654.817382812 371.630859375 655.411132812 365.953125 656.116210938 c 0
 356.8984375 657.266601562 345.9140625 659.233398438 336.451171875 659.752929688 c 0
 326.0234375 660.309570312 314.705078125 660.161132812 300.7890625 659.715820312 c 0
 283.421875 659.122070312 269.69140625 660.717773438 255.3671875 657.489257812 c 0
 237.92578125 653.518554688 217.255859375 647.284179688 199.740234375 637.413085938 c 0
 179.404296875 625.946289062 158.474609375 612.141601562 142.8515625 594.403320312 c 0
 125.224609375 574.475585938 108.748046875 549.055664062 97.021484375 520.926757812 c 0
 85.666015625 493.651367188 77.501953125 459.918945312 73.197265625 426.149414062 c 0
 68.818359375 391.674804688 68.85546875 372.450195312 71.453125 336.491210938 c 0
 74.05078125 300.420898438 79.9140625 264.387695312 88.634765625 232.399414062 c 0
 96.947265625 201.895507812 108.673828125 172.801757812 122.14453125 149.311523438 c 0
 135.763671875 125.598632812 150.49609375 106.264648438 168.16015625 92.0517578125 c 0
 186.900390625 76.9111328125 207.458984375 66.0751953125 233.732421875 58.8759765625 c 0
 260.154296875 51.6396484375 295.333984375 47.7431640625 327.13671875 49.3388671875 c 0
 360.052734375 50.9716796875 395.677734375 58.1708984375 428.4453125 68.9326171875 c 0
 461.361328125 79.7685546875 495.46484375 95.3173828125 521.515625 113.129882812 c 0
 546.3046875 130.088867188 567.0859375 151.166992188 583.33984375 174.100585938 c 0
 599.81640625 197.368164062 612.025390625 222.899414062 619.26171875 250.991210938 c 0
 626.98046875 281.124023438 630.654296875 294.633789062 627.982421875 328.811523438 c 0
 625.458984375 361.282226562 614.623046875 400.247070312 602.748046875 435.352539062 c 0
 590.984375 470.049804688 575.138671875 505.897460938 558.736328125 532.541992188 c 0
 543.001953125 558.110351562 522.220703125 578.149414062 502.552734375 598.151367188 c 0
 485.51953125 615.481445312 469.04296875 628.989257812 453.53125 639.342773438 c 0
 439.65234375 648.583007812 422.87890625 654.631835938 408.40625 660.791992188 c 0
 384.396484375 671.034179688 365.2109375 677.454101562 342.87109375 686.063476562 c 0
 329.697265625 691.147460938 323.12890625 705.954101562 328.212890625 719.127929688 c 0
 333.296875 732.338867188 348.103515625 738.907226562 361.314453125 733.823242188 c 0
 382.466796875 725.622070312 402.654296875 718.905273438 428.482421875 707.883789062 c 0
 440.83984375 702.614257812 461.546875 695.526367188 481.919921875 681.944335938 c 0
 500.5859375 669.512695312 519.734375 653.666992188 539.068359375 634.036132812 c 0
 558.216796875 614.553710938 582.59765625 591.434570312 602.33984375 559.372070312 c 0
 621.5625 528.125976562 638.373046875 489.606445312 651.212890625 451.791992188 c 0
 663.830078125 414.571289062 675.927734375 372.637695312 679.044921875 332.782226562 c 0
 682.162109375 292.481445312 677.89453125 273.442382812 668.802734375 238.262695312 c 0
 659.970703125 203.899414062 644.904296875 172.504882812 625.087890625 144.524414062 c 0
 605.53125 116.877929688 580.51953125 91.4580078125 550.423828125 70.8994140625 c 0
 518.9921875 49.4130859375 481.21484375 32.4169921875 444.439453125 20.3193359375 c 0
 407.626953125 8.2216796875 368.03125 0.1318359375 329.66015625 -1.7978515625 c 0
 292.068359375 -3.6533203125 252.880859375 0.5400390625 220.1875 9.5205078125 c 0
 187.60546875 18.4267578125 159.84765625 32.9736328125 136.0234375 52.1962890625 c 0
 111.865234375 71.6416015625 93.421875 96.5419921875 77.76171875 123.817382812 c 0
 61.65625 151.834960938 48.59375 184.602539062 39.2421875 218.928710938 c 0
 29.51953125 254.627929688 23.2109375 293.629882812 20.390625 332.817382812 c 0
 17.607421875 371.448242188 17.458984375 393.493164062 22.431640625 432.569335938 c 0
 27.21875 470.198242188 36.125 507.827148438 49.78125 540.631835938 c 0
 63.80859375 574.290039062 83.142578125 604.125976562 104.443359375 628.284179688 c 0
 126.00390625 652.665039062 151.943359375 669.215820312 174.580078125 681.981445312 c 0
 198.6640625 695.563476562 223.787109375 702.799804688 244.048828125 707.401367188 c 0
 267.353515625 712.670898438 286.46484375 710.444335938 299.119140625 710.852539062 c 0
 313.62890625 711.297851562 326.46875 711.557617188 339.271484375 710.815429688 c 0
 352.890625 710.110351562 365.5078125 707.735351562 372.3359375 706.881835938 c 0
 379.794921875 705.879882812 381.76171875 706.436523438 389.962890625 704.321289062 c 0
 400.390625 701.538085938 405.8828125 698.161132812 407.0703125 697.678710938 c 1024
EndSplineSet
EndChar

StartChar: P
Encoding: 80 80 15
Width: 640
Flags: HW
LayerCount: 2
Fore
SplineSet
132.431640625 692.240234375 m 0
 146.19921875 695.46875 159.966796875 686.93359375 163.1953125 673.203125 c 0
 166.423828125 659.435546875 157.92578125 645.66796875 144.158203125 642.439453125 c 0
 137.14453125 640.76953125 128.052734375 637.615234375 117.291015625 636.2421875 c 0
 113.357421875 635.685546875 105.564453125 634.4609375 96.435546875 642.7734375 c 0
 89.125 649.416015625 87.26953125 660.51171875 88.345703125 666.486328125 c 0
 90.90625 680.99609375 95.65625 680.99609375 98.40234375 683.482421875 c 0
 101.296875 686.080078125 91.833984375 673.3515625 91.833984375 673.3515625 c 0
 90.83203125 668.08203125 l 0
 90.83203125 668.341796875 92.650390625 681.330078125 100.109375 688.4921875 c 0
 107.048828125 695.134765625 113.802734375 697.25 121.85546875 699.513671875 c 0
 156.9609375 709.5703125 209.099609375 727.01171875 265.24609375 733.505859375 c 0
 296.826171875 737.1796875 335.865234375 733.802734375 370.4140625 727.568359375 c 0
 404.740234375 721.333984375 441.21875 712.09375 473.169921875 695.83984375 c 0
 503.896484375 680.1796875 530.318359375 657.876953125 550.728515625 635.166015625 c 0
 571.287109375 612.306640625 586.984375 586.515625 596.70703125 558.052734375 c 0
 606.05859375 530.591796875 614.66796875 497.787109375 609.138671875 461.568359375 c 0
 603.869140625 427.056640625 589.13671875 389.501953125 566.240234375 355.435546875 c 0
 542.935546875 320.73828125 510.16796875 284.556640625 472.984375 257.169921875 c 0
 435.05859375 229.189453125 389.7109375 208.556640625 347.740234375 193.861328125 c 0
 306.251953125 179.388671875 262.5 173.5625 226.615234375 170.7421875 c 0
 189.09765625 167.7734375 155.958984375 172.89453125 130.798828125 176.60546875 c 0
 104.228515625 180.576171875 83.484375 187.849609375 67.787109375 194.455078125 c 0
 49.603515625 202.099609375 41.10546875 212.712890625 36.28125 216.1640625 c 0
 24.77734375 224.40234375 22.10546875 240.359375 30.34375 251.86328125 c 0
 38.544921875 263.3671875 54.5390625 266.0390625 66.04296875 257.837890625 c 0
 78.36328125 249.005859375 79.958984375 244.849609375 87.603515625 241.62109375 c 0
 100.92578125 236.017578125 116.845703125 230.4140625 138.33203125 227.259765625 c 0
 163.158203125 223.548828125 191.91796875 219.35546875 222.607421875 221.767578125 c 0
 255.89453125 224.365234375 295.8984375 229.96875 330.85546875 242.21484375 c 0
 369.263671875 255.6484375 410.640625 274.796875 442.591796875 298.361328125 c 0
 473.912109375 321.443359375 503.748046875 354.2109375 523.75 383.97265625 c 0
 542.453125 411.8046875 554.625 443.533203125 558.55859375 469.287109375 c 0
 562.232421875 493.296875 556.5546875 517.26953125 548.2421875 541.5390625 c 0
 540.857421875 563.173828125 529.130859375 582.65625 512.69140625 600.9140625 c 0
 495.91796875 619.54296875 473.615234375 638.171875 449.9765625 650.1953125 c 0
 425.001953125 662.923828125 392.642578125 671.533203125 361.28515625 677.2109375 c 0
 330.892578125 682.740234375 294.19140625 685.337890625 271.146484375 682.666015625 c 0
 221.568359375 676.9140625 172.361328125 660.734375 135.8828125 650.306640625 c 0
 126.60546875 647.634765625 161.5625 671.49609375 132.765625 645.482421875 c 0
 132.728515625 645.4453125 133.767578125 646.6328125 133.767578125 646.6328125 c 0
 136.328125 650.4921875 l 0
 139 659.064453125 l 0
 138.5546875 655.576171875 134.76953125 677.248046875 136.958984375 672.275390625 c 0
 138.666015625 668.490234375 129.42578125 681.923828125 129.42578125 681.923828125 c 0
 122.8203125 685.634765625 l 0
 125.7890625 684.484375 115.47265625 687.193359375 115.47265625 687.193359375 c 0
 110.982421875 687.044921875 l 0
 114.13671875 687.490234375 123.1171875 690.05078125 132.46875 692.27734375 c 1024
87.603515625 692.27734375 m 0
 90.38671875 706.119140625 103.857421875 715.099609375 117.736328125 712.353515625 c 0
 131.578125 709.5703125 140.55859375 696.099609375 137.8125 682.220703125 c 0
 136.1796875 674.16796875 136.068359375 677.990234375 135.326171875 670.53125 c 0
 135.029296875 667.970703125 134.47265625 647.44921875 134.47265625 647.44921875 c 0
 132.46875 592.52734375 129.166015625 518.9765625 126.90234375 436.296875 c 0
 125.603515625 391.060546875 124.37890625 316.73046875 124.044921875 270.9375 c 0
 123.48828125 187.44140625 124.044921875 112.146484375 124.044921875 55.962890625 c 0
 124.044921875 31.58203125 123.896484375 31.173828125 123.93359375 30.580078125 c 0
 124.457079259 23.7747665095 123.376953125 32.02734375 123.859375 30.431640625 c 0
 122.560546875 33.919921875 l 0
 118.8125 39.708984375 l 0
 120.59375 37.630859375 111.427734375 45.423828125 111.427734375 45.423828125 c 0
 103.8203125 47.91015625 l 0
 99.478515625 48.169921875 l 0
 99.44140625 48.169921875 l 0
 105.67578125 48.466796875 121.9296875 38.6328125 124.787109375 31.990234375 c 0
 130.353515625 19.001953125 124.341796875 3.97265625 111.31640625 -1.59375 c 0
 98.328125 -7.16015625 83.298828125 -1.185546875 77.732421875 11.83984375 c 0
 79.84765625 7.90625 l 0
 77.76953125 11.0234375 96.064453125 -3.189453125 91.0546875 -1.1484375 c 0
 86.75 0.6328125 101.037109375 -2.966796875 101.037109375 -2.966796875 c 0
 98.625 -3.00390625 100.62890625 -3.96875 93.392578125 -2.11328125 c 0
 81.40625 1.041015625 75.802734375 12.248046875 74.50390625 16.73828125 c 0
 73.353515625 20.671875 73.205078125 23.306640625 72.908203125 26.4609375 c 0
 72.611328125 29.837890625 72.796875 31.953125 72.796875 56.07421875 c 0
 72.796875 111.9609375 72.203125 187.515625 72.796875 271.45703125 c 0
 73.09375 317.732421875 74.35546875 392.025390625 75.654296875 437.818359375 c 0
 77.955078125 521.017578125 81.2578125 594.865234375 83.26171875 649.416015625 c 0
 84.115234375 672.53515625 84.115234375 674.056640625 84.263671875 675.615234375 c 0
 85.4140625 686.748046875 87.380859375 691.943359375 87.455078125 692.388671875 c 1024
EndSplineSet
EndChar

StartChar: Q
Encoding: 81 81 16
Width: 739
Flags: HW
LayerCount: 2
Fore
SplineSet
475.720703125 239.00390625 m 0
 467.7421875 250.65625 470.7109375 266.576171875 482.400390625 274.5546875 c 0
 494.052734375 282.533203125 509.97265625 279.564453125 517.951171875 267.875 c 0
 524.482421875 258.337890625 526.078125 254.58984375 535.7265625 241.861328125 c 0
 539.80859375 236.48046875 547.82421875 225.94140625 560.515625 211.654296875 c 0
 575.359375 194.955078125 597.365234375 170.017578125 616.291015625 151.203125 c 0
 635.625 132.0546875 656.2578125 113.27734375 675.109375 97.9140625 c 0
 692.40234375 83.775390625 711.365234375 71.232421875 726.09765625 61.546875 c 0
 738.603515625 53.271484375 747.658203125 49.263671875 757.86328125 43.4375 c 0
 766.32421875 38.576171875 771.333984375 35.71875 777.791015625 32.044921875 c 0
 790.037109375 25.03125 794.3046875 9.408203125 787.291015625 -2.875 c 0
 780.27734375 -15.12109375 764.654296875 -19.388671875 752.37109375 -12.375 c 0
 745.951171875 -8.701171875 740.94140625 -5.84375 732.48046875 -1.01953125 c 0
 724.984375 3.248046875 713.33203125 8.62890625 697.931640625 18.796875 c 0
 683.013671875 28.630859375 662.56640625 42.064453125 642.75 58.244140625 c 0
 622.33984375 74.90625 600.66796875 94.611328125 580.220703125 114.873046875 c 0
 559.439453125 135.505859375 537.0625 161 522.255859375 177.662109375 c 0
 508.33984375 193.322265625 499.173828125 205.345703125 494.90625 210.94921875 c 0
 483.99609375 225.384765625 480.73046875 231.65625 475.720703125 238.966796875 c 1024
366.099609375 705.80078125 m 0
 378.75390625 699.4921875 383.875 684.12890625 377.56640625 671.474609375 c 0
 371.220703125 658.8203125 355.857421875 653.69921875 343.203125 660.044921875 c 0
 329.361328125 666.947265625 338.564453125 665.3515625 333.40625 666.205078125 c 0
 335.0390625 665.908203125 l 0
 332.6640625 665.9453125 326.7265625 665.759765625 319.638671875 664.349609375 c 0
 304.572265625 661.4921875 288.318359375 659.970703125 272.3984375 653.4765625 c 0
 254.029296875 646.017578125 230.984375 634.439453125 211.2421875 620.337890625 c 0
 189.71875 604.974609375 167.08203125 586.234375 149.41796875 565.67578125 c 0
 130.083984375 543.26171875 112.9765625 521.29296875 101.509765625 493.869140625 c 0
 89.634765625 465.5546875 80.09765625 429.001953125 77.833984375 394.8984375 c 0
 75.421875 358.9765625 78.5390625 299.046875 87.51953125 263.458984375 c 0
 96.833984375 226.646484375 112.828125 188.08984375 132.421875 158.513671875 c 0
 151.162109375 130.19921875 176.099609375 105.484375 202.78125 88.1171875 c 0
 228.68359375 71.1953125 259.966796875 60.396484375 293.25390625 53.865234375 c 0
 327.24609375 47.185546875 365.505859375 45.998046875 403.505859375 49.486328125 c 0
 440.837890625 52.900390625 483.587890625 62.400390625 517.580078125 74.646484375 c 0
 551.23828125 86.744140625 582.6328125 102.29296875 601.966796875 119.771484375 c 0
 621.671875 137.62109375 633.732421875 158.810546875 642.119140625 185.306640625 c 0
 649.912109375 209.8359375 651.693359375 262.34375 649.50390625 295.408203125 c 0
 647.240234375 329.2890625 638.408203125 368.69921875 627.7578125 404.509765625 c 0
 617.29296875 439.689453125 602.783203125 475.796875 587.123046875 504.853515625 c 0
 572.46484375 532.0546875 553.427734375 556.064453125 535.689453125 575.658203125 c 0
 519.84375 593.173828125 502.291015625 605.568359375 485.2578125 617.18359375 c 0
 470.33984375 627.3515625 455.978515625 633.36328125 439.91015625 640.5625 c 0
 426.513671875 646.57421875 411.669921875 651.212890625 398.34765625 655.888671875 c 0
 386.84375 659.896484375 376.52734375 662.45703125 365.728515625 666.46484375 c 0
 355.5234375 670.212890625 348.732421875 673.775390625 342.572265625 676.484375 c 0
 329.583984375 682.087890625 323.646484375 697.19140625 329.287109375 710.142578125 c 0
 334.927734375 723.09375 349.994140625 729.03125 362.982421875 723.427734375 c 0
 371.072265625 719.90234375 376.193359375 717.15625 383.4296875 714.484375 c 0
 390.8515625 711.73828125 401.650390625 708.955078125 415.26953125 704.205078125 c 0
 427.44140625 699.9375 443.955078125 694.890625 460.876953125 687.283203125 c 0
 476.3515625 680.34375 494.53515625 672.84765625 514.091796875 659.48828125 c 0
 531.830078125 647.390625 553.390625 632.361328125 573.615234375 610.021484375 c 0
 593.208984375 588.423828125 614.806640625 561.37109375 632.173828125 529.16015625 c 0
 649.912109375 496.28125 665.38671875 457.501953125 676.81640625 419.09375 c 0
 688.208984375 380.796875 697.931640625 338.529296875 700.56640625 298.78515625 c 0
 703.052734375 261.638671875 701.568359375 203.638671875 690.91796875 169.83203125 c 0
 680.490234375 136.990234375 663.419921875 106.412109375 636.29296875 81.845703125 c 0
 608.794921875 56.9453125 572.130859375 39.912109375 534.91015625 26.478515625 c 0
 496.16796875 12.5625 450.412109375 2.39453125 408.181640625 -1.46484375 c 0
 365.98828125 -5.32421875 323.201171875 -4.173828125 283.3828125 3.65625 c 0
 245.45703125 11.115234375 207.865234375 23.6953125 174.80078125 45.255859375 c 0
 141.958984375 66.66796875 112.3828125 96.021484375 89.708984375 130.2734375 c 0
 66.14453125 165.935546875 48.5546875 208.908203125 37.904296875 250.916015625 c 0
 27.40234375 292.478515625 23.98828125 357.046875 26.771484375 398.349609375 c 0
 29.517578125 439.244140625 40.2421875 480.064453125 54.306640625 513.611328125 c 0
 68.890625 548.53125 90.1171875 575.287109375 110.638671875 599.111328125 c 0
 132.162109375 624.0859375 157.693359375 645.015625 181.517578125 662.01171875 c 0
 205.6015625 679.23046875 231.578125 692.14453125 253.064453125 700.90234375 c 0
 276.888671875 710.625 298.671875 712.517578125 310.1015625 714.669921875 c 0
 324.6484375 717.416015625 331.40234375 718.41796875 341.830078125 716.673828125 c 0
 350.328125 715.2265625 358.4921875 711.998046875 363.91015625 707.953125 c 0
 368.5859375 704.46484375 364.466796875 706.654296875 366.13671875 705.80078125 c 1024
EndSplineSet
EndChar

StartChar: R
Encoding: 82 82 17
Width: 711
Flags: HW
LayerCount: 2
Fore
SplineSet
84.0859375 666.83203125 m 0
 77.5938400139 699.119396081 127.726221124 709.372452983 134.2578125 676.888671875 c 0
 134.962890625 673.623046875 137.375 667.908203125 138.896484375 653.1015625 c 0
 140.1953125 641.00390625 137.89453125 641.041015625 141.234375 609.126953125 c 0
 149.1015625 533.83203125 159.751953125 412.20703125 172.40625 322.291015625 c 0
 184.986328125 233.04296875 203.80078125 127.115234375 215.861328125 59.16796875 c 0
 220.526015083 33.0111685507 220.059782925 35.7458735006 222.021484375 29.92578125 c 1
 218.533203125 35.083984375 l 1
 214.265625 38.869140625 l 1
 207.251953125 42.283203125 l 1
 209.923828125 41.392578125 198.6796875 43.28515625 198.6796875 43.28515625 c 1
 204.0234375 43.544921875 186.322265625 39.27734375 186.322265625 39.27734375 c 1
 181.794921875 35.529296875 l 1
 185.343960169 39.6682973585 194.596285299 47.8018616046 208.291015625 44.3984375 c 0
 240.290265625 36.3553827703 227.958456625 -13.3345659227 195.896484375 -5.25390625 c 0
 191.740234375 -4.251953125 212.1875 -4.103515625 208.40234375 -5.1796875 c 0
 204.98828125 -6.033203125 216.232421875 -1.54296875 216.232421875 -1.54296875 c 1
 213.041015625 -3.76953125 221.427734375 3.35546875 221.427734375 3.35546875 c 1
 216.210502713 -10.1531905216 187.069506299 -7.73724185041 179.271484375 2.31640625 c 0
 175.44921875 7.21484375 174.85546875 10.03515625 174.001953125 12.595703125 c 0
 173.296875 14.822265625 170.69921875 21.205078125 165.578125 50.11328125 c 0
 153.62890625 117.4296875 134.666015625 223.98828125 121.826171875 315.0546875 c 0
 108.912109375 406.71484375 98.26171875 528.7109375 90.431640625 603.708984375 c 0
 84.8915398628 656.859326062 89.4735847169 639.986307532 84.16015625 666.7578125 c 1024
63.3046875 613.9140625 m 0
 47.2972973648 585.100760257 2.46081921054 609.815412079 18.55078125 638.77734375 c 0
 20.703125 642.673828125 16.02734375 626.345703125 16.02734375 626.345703125 c 1
 14.670025169 638.222240708 23.5277391678 653.777071288 34.248046875 660.671875 c 0
 41.70703125 665.458984375 55.623046875 672.9921875 82.564453125 682.640625 c 0
 97.51953125 688.05859375 130.435546875 701.232421875 165.80078125 708.3203125 c 0
 199.978515625 715.1484375 244.6953125 723.943359375 286.072265625 723.015625 c 0
 366.792687896 721.218364872 438.410279497 692.930459759 480.93359375 650.05859375 c 0
 522.133363716 608.518891689 543.82764856 538.159800635 514.92578125 466.4609375 c 0
 490.414013958 405.761450673 431.752602943 364.300911292 370.681640625 340.400390625 c 0
 308.238434242 315.834983167 235.403663527 313.800897014 160.9765625 314.90625 c 0
 148.43359375 315.0546875 142.71875 314.869140625 135.779296875 316.724609375 c 0
 131.251953125 317.875 118.96875 321.4375 116.4453125 338.025390625 c 0
 113.171753305 359.114666208 131.385608341 367.011032518 141.642578125 369.30859375 c 0
 252.052385293 393.098552201 377.964817303 364.867243432 460.00390625 327.8203125 c 0
 491.9921875 313.384765625 523.201171875 296.12890625 551.330078125 274.568359375 c 0
 579.310546875 253.119140625 605.32421875 225.9921875 624.212890625 201.72265625 c 0
 643.47265625 176.93359375 653.455078125 152.0703125 661.73046875 132.40234375 c 0
 671.119140625 109.98828125 676.314453125 87.759765625 678.615234375 72.2109375 c 0
 682.474609375 46.048828125 679.6171875 29.126953125 679.765625 13.94921875 c 0
 680.371110595 -19.006497191 629.164138801 -20.1129699201 628.5546875 13.05859375 c 0
 628.294921875 33.46875 630.78125 45.306640625 627.849609375 64.71484375 c 0
 616.865474412 139.60667304 571.598794036 194.434888011 520.046875 233.93359375 c 0
 440.215456041 295.125418728 316.555676148 336.633478259 175.115234375 322.625 c 0
 165.05859375 321.623046875 156.560546875 320.17578125 152.478515625 319.28515625 c 0
 151.275408493 319.022660149 154.927734375 320.435546875 154.927734375 320.435546875 c 1
 159.900390625 324.2578125 l 1
 158.044921875 322.40234375 167.544921875 338.87890625 165.875 333.869140625 c 0
 164.576171875 329.8984375 165.1328125 353.314453125 166.431640625 348.23046875 c 0
 167.43359375 344.482421875 161.681640625 357.73046875 161.681640625 357.73046875 c 1
 164.501953125 354.2421875 153.8515625 364.1875 153.8515625 364.1875 c 1
 148.87890625 366.154296875 l 1
 160.536907347 364.211296692 181.943913858 365.168694054 203.80078125 366.04296875 c 0
 254.811401767 368.203639601 311.173644305 371.991695075 351.904296875 387.974609375 c 0
 401.060494729 407.25154971 448.756750519 439.607667186 467.388671875 485.572265625 c 0
 475.14453125 504.720703125 478.076171875 540.734375 474.513671875 558.84375 c 0
 464.998001889 607.715491968 424.276472519 637.006480584 377.02734375 654.400390625 c 0
 350.197265625 664.30859375 316.91015625 671.0625 284.84765625 671.767578125 c 0
 251.44921875 672.509765625 209.033203125 664.716796875 175.74609375 658.037109375 c 0
 146.318359375 652.173828125 116.037109375 640.26171875 99.74609375 634.435546875 c 0
 75.439453125 625.677734375 66.533203125 620.556640625 61.8203125 617.55078125 c 0
 60.373046875 616.66015625 62.080078125 618.255859375 62.080078125 618.255859375 c 1
 66.162109375 626.75390625 l 1
 66.607421875 633.359375 l 1
 67.0092037163 629.241111127 66.9493396698 620.556570892 63.267578125 613.83984375 c 1024
EndSplineSet
EndChar

StartChar: S
Encoding: 83 83 18
Width: 651
Flags: HW
LayerCount: 2
Fore
SplineSet
506.00390625 632.0234375 m 0
 513.27734375 619.888671875 509.34375 604.19140625 497.24609375 596.91796875 c 0
 485.111328125 589.64453125 469.376953125 593.578125 462.140625 605.67578125 c 0
 457.984375 612.615234375 458.05859375 627.79296875 461.546875 634.064453125 c 0
 462.697265625 636.03125 463.40234375 636.958984375 463.4765625 637.0703125 c 0
 463.55078125 637.107421875 462.06640625 634.76953125 462.06640625 634.76953125 c 0
 459.765625 628.4609375 l 0
 460.8046875 633.28515625 462.4375 611.353515625 461.064453125 614.767578125 c 0
 463.736328125 610.12890625 l 0
 462.21484375 612.095703125 464.181640625 609.68359375 460.58203125 612.244140625 c 0
 446.517578125 622.30078125 421.46875 642.19140625 390.779296875 654.919921875 c 0
 376.083984375 661.005859375 343.76171875 669.318359375 317.376953125 672.064453125 c 0
 289.767578125 674.921875 257.1484375 674.810546875 230.578125 671.2109375 c 0
 203.33984375 667.5 177.51171875 660.412109375 156.43359375 650.615234375 c 0
 137.025390625 641.59765625 119.02734375 628.3125 108.302734375 615.583984375 c 0
 98.171875 603.59765625 91.7890625 587.1953125 88.15234375 570.64453125 c 0
 84.29296875 553.27734375 83.142578125 538.470703125 87.55859375 524.03515625 c 0
 92.419921875 508.337890625 102.55078125 489.96875 117.876953125 475.162109375 c 0
 135.095703125 458.5 159.7734375 442.357421875 189.98046875 427.625 c 0
 221.189453125 412.373046875 263.568359375 399.05078125 304.462890625 385.283203125 c 0
 342.57421875 372.40625 386.994140625 362.201171875 426.255859375 348.13671875 c 0
 462.80859375 335.07421875 500.06640625 322.642578125 529.791015625 304.05078125 c 0
 557.95703125 286.38671875 578.923828125 265.642578125 594.02734375 240.59375 c 0
 609.8359375 214.39453125 617.591796875 183.037109375 619.447265625 155.130859375 c 0
 621.265625 127.818359375 618.1484375 108.650390625 604.046875 82.896484375 c 0
 591.05859375 59.109375 570.462890625 33.80078125 538.326171875 18.8828125 c 0
 506.5234375 4.150390625 466.4453125 -0.599609375 427.33203125 -2.41796875 c 0
 385.3984375 -4.34765625 334.6328125 -1.416015625 295.890625 6.63671875 c 0
 227.126953125 20.73828125 172.2421875 43.783203125 114.5 61.224609375 c 0
 100.955078125 65.306640625 93.310546875 79.556640625 97.392578125 93.1015625 c 0
 101.474609375 106.646484375 115.724609375 114.291015625 129.26953125 110.208984375 c 0
 189.83203125 91.951171875 242.67578125 69.796875 306.169921875 56.771484375 c 0
 338.640625 50.091796875 387.736328125 47.01171875 424.95703125 48.71875 c 0
 460.544921875 50.3515625 496.4296875 55.880859375 516.802734375 65.34375 c 0
 536.73046875 74.583984375 549.5703125 89.947265625 559.14453125 107.462890625 c 0
 566.900390625 121.638671875 569.7578125 131.232421875 568.384765625 151.75390625 c 0
 567.0859375 171.904296875 560.146484375 197.6953125 550.201171875 214.171875 c 0
 539.068359375 232.615234375 525.5234375 246.345703125 502.626953125 260.669921875 c 0
 480.47265625 274.51171875 445.515625 286.90625 409 299.96875 c 0
 373.560546875 312.66015625 329.251953125 322.90234375 288.09765625 336.78125 c 0
 247.685546875 350.4375 203.896484375 363.87109375 167.529296875 381.646484375 c 0
 133.87109375 398.048828125 104.77734375 416.603515625 82.2890625 438.38671875 c 0
 60.060546875 459.873046875 45.958984375 485.29296875 38.6484375 508.89453125 c 0
 30.595703125 534.9453125 33.3046875 560.068359375 38.091796875 581.740234375 c 0
 42.916015625 603.44921875 51.5625 627.830078125 69.115234375 648.6484375 c 0
 86 668.61328125 109.23046875 685.126953125 134.724609375 697.0390625 c 0
 161.517578125 709.5078125 192.021484375 717.634765625 223.6015625 721.939453125 c 0
 255.29296875 726.244140625 290.84375 726.28125 322.609375 722.94140625 c 0
 354.708984375 719.6015625 388.21875 711.326171875 410.3359375 702.16015625 c 0
 448.9296875 686.166015625 478.283203125 662.453125 490.306640625 653.84375 c 0
 495.056640625 650.4296875 498.767578125 647.609375 502.404296875 643.52734375 c 0
 505.298828125 640.26171875 509.158203125 635.36328125 510.234375 627.05078125 c 0
 511.087890625 620.59375 508.935546875 613.876953125 507.005859375 610.27734375 c 0
 505.70703125 607.939453125 504.853515625 606.9375 504.853515625 606.9375 c 0
 504.7421875 606.7890625 506.375 609.423828125 506.375 609.423828125 c 0
 505.076171875 606.826171875 508.75 626.345703125 509.009765625 621.55859375 c 0
 509.26953125 616.845703125 505.892578125 631.986328125 505.892578125 631.986328125 c 1024
EndSplineSet
EndChar

StartChar: T
Encoding: 84 84 19
Width: 779
Flags: HW
LayerCount: 2
Fore
SplineSet
421.826171875 676.829101562 m 0
 428.83984375 664.583007812 424.572265625 648.922851562 412.2890625 641.909179688 c 0
 400.04296875 634.895507812 384.419921875 639.163085938 377.369140625 651.446289062 c 0
 375.4765625 654.786132812 374.51171875 657.124023438 373.955078125 658.274414062 c 0
 373.658203125 658.682617188 373.91796875 658.422851562 373.91796875 658.422851562 c 0
 377.072265625 654.823242188 l 0
 385.310546875 650.036132812 l 0
 381.93359375 651.186523438 396.888671875 648.737304688 396.888671875 648.737304688 c 0
 393.400390625 648.291992188 405.943359375 651.706054688 405.943359375 651.706054688 c 0
 401.861328125 649.405273438 413.662109375 658.385742188 413.662109375 658.385742188 c 0
 416.4453125 663.321289062 l 0
 416.7421875 664.174804688 l 0
 413.99609375 653.821289062 414.21875 660.426757812 413.7734375 651.483398438 c 0
 413.216796875 639.645507812 413.365234375 620.200195312 413.810546875 594.446289062 c 0
 414.404296875 566.614257812 415.40625 529.950195312 416.66796875 492.469726562 c 0
 417.966796875 453.393554688 419.599609375 409.047851562 421.380859375 366.631835938 c 0
 423.125 325.403320312 425.462890625 249.833007812 427.05859375 213.465820312 c 0
 428.654296875 178.397460938 429.916015625 148.635742188 430.880859375 124.254882812 c 0
 431.8828125 100.541992188 432.291015625 83.1376953125 432.7734375 69.1474609375 c 0
 433.21875 56.5673828125 433.478515625 49.2197265625 433.775390625 42.3544921875 c 0
 433.923828125 35.1552734375 433.478515625 34.7841796875 433.73828125 30.8134765625 c 0
 434.03515625 26.4345703125 432.587890625 34.7470703125 432.587890625 34.7470703125 c 0
 430.583984375 38.5322265625 l 0
 428.39453125 41.3896484375 l 0
 426.353515625 43.2451171875 l 0
 428.580078125 41.5380859375 429.953125 40.0166015625 430.3984375 39.4970703125 c 0
 430.546875 39.2001953125 429.396484375 40.4990234375 429.396484375 40.4990234375 c 0
 431.140625 38.8291015625 414.775390625 47.6611328125 419.33984375 46.3251953125 c 0
 423.8671875 45.0263671875 408.318359375 46.8818359375 408.318359375 46.8818359375 c 0
 411.02734375 47.4755859375 409.0234375 47.4755859375 413.328125 48.8486328125 c 0
 426.724609375 53.3017578125 441.234375 46.0283203125 445.6875 32.6318359375 c 0
 450.177734375 19.2353515625 442.904296875 4.7255859375 429.5078125 0.2724609375 c 0
 428.060546875 -0.2841796875 425.017578125 -2.1025390625 417.447265625 -3.4755859375 c 0
 411.732421875 -4.4775390625 400.63671875 -2.1767578125 395.404296875 2.2392578125 c 0
 393.103515625 4.0947265625 392.3984375 5.1337890625 392.361328125 5.1708984375 c 0
 392.064453125 5.4677734375 395.6640625 2.1650390625 395.6640625 2.1650390625 c 0
 393.4375 3.8349609375 392.658203125 4.6513671875 391.73046875 5.6162109375 c 0
 390.69140625 6.6181640625 390.580078125 2.5732421875 385.533203125 14.5224609375 c 0
 388.16796875 10.0693359375 l 0
 387.166015625 11.3310546875 383.380859375 19.5693359375 382.935546875 22.9462890625 c 0
 382.67578125 25.5068359375 382.67578125 26.1376953125 382.67578125 27.8818359375 c 0
 382.37890625 33.9677734375 382.75 35.4150390625 382.638671875 40.9814453125 c 0
 382.490234375 47.0673828125 382.044921875 54.4521484375 381.63671875 67.2548828125 c 0
 381.04296875 81.5419921875 380.634765625 98.7236328125 379.744140625 122.139648438 c 0
 378.7421875 146.372070312 377.517578125 176.059570312 375.958984375 211.090820312 c 0
 374.36328125 247.198242188 371.98828125 322.842773438 370.28125 364.368164062 c 0
 368.5 406.969726562 366.830078125 451.463867188 365.53125 490.688476562 c 0
 364.232421875 528.280273438 363.15625 565.092773438 362.673828125 593.444335938 c 0
 362.228515625 619.495117188 361.931640625 639.385742188 362.673828125 653.932617188 c 0
 362.970703125 661.614257812 363.97265625 667.737304688 365.568359375 672.784179688 c 0
 367.015625 677.534179688 366.71875 675.307617188 367.3125 677.274414062 c 0
 368.166015625 680.391601562 368.462890625 683.471679688 372.693359375 689.038085938 c 0
 375.10546875 692.266601562 379.78125 697.424804688 388.6875 699.168945312 c 0
 397.927734375 700.987304688 406.796875 696.719726562 410.767578125 693.231445312 c 0
 422.345703125 683.137695312 421.640625 677.088867188 421.826171875 676.717773438 c 1024
751.951171875 689.038085938 m 0
 761.005859375 678.202148438 759.55859375 662.059570312 748.685546875 653.004882812 c 0
 737.849609375 643.950195312 721.70703125 645.434570312 712.65234375 656.270507812 c 0
 708.533203125 661.206054688 706.306640625 668.108398438 705.787109375 671.893554688 c 0
 705.787109375 671.893554688 705.935546875 671.596679688 705.67578125 673.006835938 c 0
 705.119140625 675.975585938 714.28515625 659.239257812 711.61328125 661.725585938 c 0
 712.912109375 660.426757812 l 0
 706.529296875 663.098632812 709.98046875 662.022460938 708.310546875 662.504882812 c 0
 706.009765625 663.061523438 700.814453125 664.100585938 691.388671875 664.137695312 c 0
 645.744140625 664.286132812 587.296875 661.911132812 518.013671875 659.424804688 c 0
 444.462890625 656.790039062 347.978515625 651.594726562 267.7109375 648.997070312 c 0
 228.671875 647.698242188 191.896484375 647.327148438 166.625 647.995117188 c 0
 120.423828125 649.293945312 80.568359375 653.004882812 58.302734375 654.674804688 c 0
 48.09765625 655.416992188 44.720703125 655.120117188 37.1875 657.717773438 c 0
 35.03515625 658.422851562 32.326171875 659.870117188 30.693359375 660.946289062 c 0
 28.021484375 662.764648438 38.2265625 657.754882812 38.2265625 657.754882812 c 0
 24.2734375 659.944335938 14.736328125 673.081054688 16.962890625 687.034179688 c 0
 19.15234375 700.987304688 32.251953125 710.524414062 46.205078125 708.297851562 c 0
 57.74609375 706.479492188 45.0546875 707.036132812 62.162109375 705.700195312 c 0
 85.169921875 703.956054688 123.689453125 700.356445312 168.03515625 699.131835938 c 0
 191.525390625 698.426757812 227.78125 698.872070312 266.041015625 700.170898438 c 0
 345.529296875 702.731445312 441.939453125 707.926757812 516.1953125 710.598632812 c 0
 585.330078125 713.047851562 644.1484375 715.534179688 691.611328125 715.348632812 c 0
 716.95703125 715.237304688 728.052734375 709.596679688 732.69140625 707.666992188 c 0
 741.263671875 704.067382812 752.025390625 696.497070312 755.365234375 685.030273438 c 0
 756.8125 679.946289062 756.21875 680.168945312 756.515625 678.833007812 c 0
 756.775390625 676.791992188 749.390625 692.155273438 751.951171875 689.075195312 c 1024
EndSplineSet
EndChar

StartChar: U
Encoding: 85 85 20
Width: 650
Flags: HW
LayerCount: 2
Fore
SplineSet
23.94140625 695.578125 m 0
 22.642578125 709.6796875 33.033203125 722.111328125 47.09765625 723.373046875 c 0
 61.19921875 724.671875 73.630859375 714.28125 74.9296875 700.216796875 c 0
 75.337890625 695.80078125 75.931640625 691.236328125 76.376953125 683.814453125 c 0
 76.673828125 679.32421875 76.673828125 674.833984375 76.970703125 667.375 c 0
 77.267578125 659.359375 77.97265625 647.3359375 77.97265625 633.45703125 c 0
 77.97265625 619.392578125 77.416015625 605.662109375 76.970703125 586.587890625 c 0
 76.673828125 566.251953125 75.44921875 543.986328125 75.96875 515.486328125 c 0
 76.673828125 482.978515625 75.5234375 444.681640625 80.49609375 407.423828125 c 0
 85.876953125 367.197265625 94.115234375 322.62890625 107.06640625 280.84375 c 0
 119.943359375 239.244140625 137.087890625 193.1171875 156.71875 160.3125 c 0
 176.572265625 127.099609375 199.580078125 99.6015625 224.517578125 81.751953125 c 0
 250.30859375 63.30859375 279.291015625 51.841796875 310.908203125 48.46484375 c 0
 340.669921875 45.310546875 341 44 375.705078125 50.751953125 c 0
 412.291763113 57.869977212 449.998046875 78.32421875 477.236328125 97.3984375 c 0
 504.845703125 116.6953125 525.701171875 137.7734375 540.619140625 164.640625 c 0
 555.091796875 190.765625 563.6640625 223.087890625 567.857421875 262.126953125 c 0
 572.310546875 303.1328125 570.974609375 324.232421875 565.07421875 373.216796875 c 0
 553.013671875 472.892578125 530.63671875 585.9453125 513.12109375 689.109375 c 0
 510.74609375 703.025390625 520.134765625 716.236328125 534.05078125 718.611328125 c 0
 548.00390625 720.986328125 561.21484375 711.59765625 563.58984375 697.681640625 c 0
 580.8828125 595.81640625 603.4453125 482.095703125 615.876953125 379.33984375 c 0
 622.22265625 327.015625 623.78125 302.91015625 618.771484375 256.59765625 c 0
 614.05859375 212.994140625 604.150390625 173.6953125 585.373046875 139.8515625 c 0
 566.150390625 105.154296875 538.80078125 78.02734375 506.58984375 55.46484375 c 0
 473.04296875 31.974609375 431.539193645 10.1166525005 390.06640625 1.619140625 c 0
 348 -7 346.5703125 -6.828125 305.490234375 -2.44921875 c 0
 264.966796875 1.892578125 227.189453125 16.884765625 194.71875 40.115234375 c 0
 162.13671875 63.419921875 135.26953125 96.484375 112.78125 134.0390625 c 0
 89.40234375 173.078125 71.73828125 221.9140625 58.15625 265.666015625 c 0
 44.017578125 311.310546875 35.37109375 358.439453125 29.767578125 400.669921875 c 0
 24.126953125 443.01171875 25.42578125 483.609375 24.794921875 514.41015625 c 0
 24.23828125 544.802734375 25.388671875 568.330078125 25.796875 587.404296875 c 0
 26.09375 607.146484375 26.798828125 620.876953125 26.798828125 633.45703125 c 0
 26.798828125 645.62890625 26.09375 656.6875 25.796875 665.853515625 c 0
 25.5 673.68359375 25.5 678.2109375 25.388671875 680.697265625 c 0
 25.091796875 686.59765625 24.498046875 689.900390625 24.08984375 695.578125 c 1024
EndSplineSet
EndChar

StartChar: V
Encoding: 86 86 21
Width: 582
Flags: HW
LayerCount: 2
Fore
SplineSet
302.84375 79.6953125 m 0
 294.6796875 91.236328125 297.42578125 107.193359375 308.966796875 115.357421875 c 0
 320.5078125 123.521484375 336.46484375 120.775390625 344.62890625 109.234375 c 0
 350.1953125 101.3671875 347.15234375 104.818359375 347.931640625 103.259765625 c 0
 350.4921875 97.953125 354.091796875 88.861328125 356.912109375 82.404296875 c 0
 358.0625 79.62109375 359.47265625 76.689453125 360.734375 73.7578125 c 0
 362.701171875 69.193359375 364 65.890625 365.55859375 62.216796875 c 0
 366.115234375 60.76953125 367.302734375 58.3203125 368.564453125 55.166015625 c 0
 370.01171875 51.56640625 371.013671875 48.5234375 371.236328125 48.041015625 c 0
 372.53515625 45.109375 374.130859375 41.91796875 375.912109375 37.724609375 c 0
 376.9140625 35.53515625 377.396484375 33.6796875 377.73046875 32.56640625 c 0
 377.73046875 32.56640625 377.73046875 32.529296875 377.841796875 32.12109375 c 0
 377.916015625 31.861328125 377.248046875 33.939453125 377.248046875 33.939453125 c 0
 376.09765625 36.611328125 l 0
 371.5703125 42.845703125 l 0
 379.029296875 35.38671875 378.84375 29.74609375 379.21484375 27.333984375 c 0
 379.474609375 25.849609375 379.2890625 26.48046875 379.2890625 26.48046875 c 0
 378.732421875 29.30078125 l 0
 376.134765625 35.201171875 l 0
 377.65625 32.71484375 363.666015625 46.22265625 367.896484375 43.587890625 c 0
 371.755859375 41.17578125 350.232421875 47.484375 354.6484375 47.447265625 c 0
 358.396484375 47.41015625 345.408203125 45.77734375 345.408203125 45.77734375 c 0
 349.23046875 47.26171875 338.3203125 41.62109375 338.3203125 41.62109375 c 0
 335.5 38.763671875 l 0
 335.203125 38.466796875 l 0
 336.09375 39.765625 336.984375 40.544921875 339.693359375 48.412109375 c 0
 343.849609375 60.546875 347.115234375 67.115234375 354.166015625 96.357421875 c 0
 370.419921875 163.451171875 389.3828125 252.25390625 410.08984375 339.83203125 c 0
 420.92578125 385.69921875 435.1015625 444.517578125 447.19921875 490.236328125 c 0
 458.92578125 534.470703125 478.876953125 598.81640625 486.818359375 623.419921875 c 0
 499.955078125 663.943359375 509.046875 686.802734375 517.28515625 704.837890625 c 0
 519.029296875 708.66015625 518.583984375 714.30078125 531.68359375 720.68359375 c 0
 543.55859375 726.435546875 561.333984375 717.12109375 565.08203125 711.62890625 c 0
 569.572265625 705.0234375 569.126953125 702.982421875 569.23828125 702.611328125 c 0
 569.275390625 702.611328125 568.087890625 705.134765625 568.087890625 705.134765625 c 0
 564.78515625 709.810546875 l 0
 566.7890625 707.62109375 549.162109375 718.30859375 554.3203125 716.6015625 c 0
 567.716796875 712.1484375 574.990234375 697.638671875 570.5 684.2421875 c 0
 566.046875 670.80859375 551.57421875 663.572265625 538.140625 668.025390625 c 0
 519.994140625 674.111328125 521.88671875 683.0546875 520.99609375 685.541015625 c 0
 520.40234375 687.0625 520.69921875 686.69140625 520.40234375 687.173828125 c 0
 520.328125 687.470703125 521.14453125 685.615234375 521.14453125 685.615234375 c 0
 523.07421875 682.38671875 l 0
 527.6015625 677.599609375 l 0
 536.099609375 673.146484375 l 0
 532.908203125 674.1484375 546.193359375 672.29296875 546.193359375 672.29296875 c 0
 553.615234375 674.408203125 l 0
 550.201171875 672.8125 560.517578125 679.1953125 560.517578125 679.1953125 c 0
 563.5234375 682.98046875 l 0
 563.8203125 683.57421875 l 0
 556.32421875 667.171875 548.197265625 646.947265625 535.505859375 607.6484375 c 0
 528.046875 584.603515625 508.1328125 520.48046875 496.666015625 477.13671875 c 0
 484.791015625 432.271484375 470.65234375 373.67578125 459.853515625 328.03125 c 0
 439.33203125 241.12109375 420.40625 152.4296875 403.892578125 84.296875 c 0
 396.359375 53.087890625 391.349609375 41.32421875 388.083984375 31.787109375 c 0
 383.66796875 18.91015625 377.767578125 10.041015625 377.359375 9.484375 c 0
 376.09765625 7.48046875 375.80078125 5.291015625 368.712890625 0.65234375 c 0
 365.521484375 -1.462890625 359.287109375 -4.83984375 350.083984375 -3.28125 c 0
 333.458984375 -0.4609375 330.15625 12.6015625 329.265625 16.201171875 c 0
 328.263671875 20.431640625 328.671875 18.798828125 328.671875 19.763671875 c 0
 329.7109375 15.904296875 l 0
 328.96875 18.09375 338.98828125 3.287109375 335.42578125 6.8125 c 0
 325.238076832 17.077383997 329.080078125 17.27734375 328.8203125 18.130859375 c 0
 328.2265625 19.80078125 329.1171875 17.72265625 329.1171875 17.72265625 c 0
 328.375 19.541015625 326.37109375 23.36328125 324.29296875 28.298828125 c 0
 322.734375 32.046875 321.806640625 34.978515625 321.287109375 36.314453125 c 0
 320.73046875 37.873046875 319.728515625 39.9140625 318.615234375 42.51171875 c 0
 316.87109375 46.66796875 315.646484375 49.748046875 313.939453125 53.71875 c 0
 313.234375 55.42578125 311.712890625 58.6171875 310.19140625 62.1796875 c 0
 307.111328125 69.267578125 302.361328125 80.548828125 302.1015625 81.10546875 c 0
 301.65625 81.99609375 301.359375 82.552734375 301.2109375 82.8125 c 0
 301.173828125 82.9609375 301.359375 82.404296875 301.359375 82.404296875 c 0
 301.2109375 82.701171875 302.9921875 79.806640625 302.9921875 79.806640625 c 1024
26.75 688.845703125 m 0
 24.44921875 702.798828125 33.875 715.97265625 47.791015625 718.2734375 c 0
 61.744140625 720.611328125 74.91796875 711.185546875 77.255859375 697.26953125 c 0
 79.408203125 684.466796875 76.25390625 690.626953125 80.85546875 674.595703125 c 0
 81.15234375 673.705078125 85.90234375 659.009765625 94.697265625 637.2265625 c 0
 104.419921875 613.142578125 118.9296875 576.330078125 135.072265625 540.51953125 c 0
 151.919921875 503.150390625 174.037109375 458.8046875 193.59375 417.798828125 c 0
 213.41015625 376.2734375 233.89453125 332.966796875 251.41015625 296.525390625 c 0
 267.478515625 262.978515625 282.396484375 232.845703125 294.0859375 208.31640625 c 0
 305.552734375 184.232421875 314.19921875 164.23046875 319.39453125 153.876953125 c 0
 329.63671875 133.615234375 338.951171875 118.66015625 342.513671875 112.27734375 c 0
 343.6640625 110.19921875 344.48046875 108.86328125 344.814453125 108.380859375 c 0
 344.962890625 108.083984375 343.3671875 110.162109375 343.3671875 110.162109375 c 0
 341.623046875 112.017578125 l 0
 337.244140625 115.357421875 l 0
 332.3828125 117.658203125 l 0
 323.662109375 119.068359375 l 0
 327.3359375 119.142578125 307.890625 113.798828125 311.75 115.951171875 c 0
 315.498046875 117.9921875 303.140625 108.232421875 303.140625 108.232421875 c 0
 299.689453125 101.3671875 l 0
 300.83984375 104.892578125 298.427734375 93.833984375 298.427734375 93.833984375 c 0
 298.8359375 88.67578125 l 0
 297.833984375 93.537109375 300.580078125 80.06640625 298.6875 89.12109375 c 0
 295.755859375 102.92578125 304.55078125 116.544921875 318.392578125 119.513671875 c 0
 332.197265625 122.4453125 345.779296875 113.650390625 348.748046875 99.80859375 c 0
 347.89453125 102.92578125 l 0
 348.04296875 102.48046875 348.04296875 102.77734375 348.599609375 100.662109375 c 0
 348.896484375 99.771484375 349.341796875 98.658203125 349.6015625 94.947265625 c 0
 349.712890625 93.0546875 350.046875 90.30859375 348.19140625 85.0390625 c 0
 346.224609375 79.361328125 338.3203125 69.861328125 328.078125 68.19140625 c 0
 310.93359375 65.408203125 308.26171875 73.08984375 306.294921875 74.9453125 c 0
 297.982421875 82.849609375 300.431640625 82.58984375 297.87109375 87.080078125 c 0
 295.71875 90.90234375 284.8828125 108.529296875 273.6015625 130.794921875 c 0
 267.033203125 143.8203125 258.83203125 163.1171875 247.7734375 186.310546875 c 0
 236.306640625 210.3203125 221.388671875 240.564453125 205.134765625 274.408203125 c 0
 187.58203125 310.998046875 167.060546875 354.3046875 147.28125 395.79296875 c 0
 127.984375 436.279296875 105.755859375 480.7734375 88.27734375 519.515625 c 0
 71.50390625 556.736328125 56.734375 594.25390625 47.123046875 618.078125 c 0
 37.80859375 641.234375 33.05859375 655.373046875 31.611328125 660.345703125 c 0
 25.859375 680.125 27.009765625 686.767578125 26.638671875 688.845703125 c 1024
EndSplineSet
EndChar

StartChar: W
Encoding: 87 87 22
Width: 636
Flags: HW
LayerCount: 2
Fore
SplineSet
531.93359375 9.4296875 m 0
 524.51171875 -2.59375 508.740234375 -6.37890625 496.716796875 1.005859375 c 0
 484.65625 8.427734375 480.908203125 24.19921875 488.330078125 36.22265625 c 0
 486.474609375 32.66015625 l 0
 487.513671875 35.109375 486.140625 31.806640625 486.51171875 32.80859375 c 0
 487.439453125 35.369140625 487.068359375 33.662109375 488.404296875 39.896484375 c 0
 490.111328125 47.80078125 491.85546875 56.966796875 495.900390625 77.376953125 c 0
 500.09375 98.529296875 506.587890625 128.4765625 512.896484375 163.2109375 c 0
 519.873046875 201.87890625 528.779296875 247.931640625 535.458984375 295.83984375 c 0
 542.583984375 346.90234375 549.337890625 406.017578125 554.2734375 459.603515625 c 0
 558.837890625 508.99609375 561.435546875 562.13671875 563.69921875 602.734375 c 0
 565.8515625 641.55078125 565.962890625 642.833984375 567.484375 666.806640625 c 0
 568.89453125 688.44140625 571.12109375 696.16015625 572.3828125 706.25390625 c 0
 574.126953125 720.28125 586.9296875 730.2265625 600.95703125 728.482421875 c 0
 614.984375 726.701171875 624.9296875 713.935546875 623.185546875 699.908203125 c 0
 621.478515625 686.400390625 619.80859375 682.578125 618.583984375 663.50390625 c 0
 617.173828125 642.0546875 617.025390625 639.9921875 614.798828125 599.876953125 c 0
 612.53515625 559.501953125 609.9375 505.767578125 605.26171875 454.890625 c 0
 600.251953125 400.48828125 593.423828125 340.779296875 586.150390625 288.7890625 c 0
 579.248046875 239.248046875 570.193359375 192.416015625 563.25390625 154.119140625 c 0
 556.796875 118.419921875 550.154296875 87.841796875 546.109375 67.431640625 c 0
 542.064453125 47.1328125 540.3203125 37.85546875 538.427734375 29.09765625 c 0
 536.646484375 20.859375 534.865234375 15.9609375 534.642578125 15.330078125 c 0
 534.642578125 15.330078125 538.55696766 20.1748147223 531.93359375 9.392578125 c 1024
202.259765625 26.478515625 m 0
 204.708984375 12.5625 195.357421875 -0.72265625 181.44140625 -3.134765625 c 0
 167.48828125 -5.546875 154.240234375 3.8046875 151.828125 17.720703125 c 0
 148.859375 35.013671875 152.904296875 31.080078125 154.091796875 33.7890625 c 0
 152.755859375 29.966796875 l 0
 153.126953125 31.451171875 153.7578125 34.75390625 156.28125 41.619140625 c 0
 158.396484375 47.482421875 161.736328125 59.1142578125 169.34375 75.72265625 c 0
 177.65625 93.869140625 188.53125 124.173828125 201 149 c 0
 213.357421875 173.4921875 230.7890625 214.311523438 243.1484375 239.173828125 c 0
 255.876953125 264.779296875 268.716796875 290.607421875 276.6953125 309.087890625 c 0
 284.080078125 326.083984375 287.123046875 337.587890625 291.056640625 349.537109375 c 0
 293.765625 357.8125 294.322265625 362.673828125 296.623046875 369.984375 c 0
 298.21875 375.1796875 301.521484375 381.859375 303.4140625 384.3828125 c 0
 306.123046875 387.982421875 310.205078125 392.25 317.515625 394.587890625 c 0
 325.234375 397.07421875 336.21875 395.14453125 342.712890625 389.94921875 c 0
 354.958984375 380.189453125 352.84375 374.734375 353.734375 370.28125 c 0
 354.7734375 364.900390625 354.810546875 361.30078125 355.107421875 357.8125 c 0
 355.58984375 351.65234375 355.478515625 347.5703125 355.8125 345.640625 c 0
 356.443359375 341.6328125 356.888671875 339.369140625 358.484375 334.841796875 c 0
 360.376953125 329.349609375 362.7890625 323.560546875 367.056640625 314.357421875 c 0
 371.658203125 304.30078125 376.890625 292.982421875 384.4609375 278.583984375 c 0
 392.40234375 263.48046875 403.423828125 244.2578125 414.556640625 224.0703125 c 0
 426.0234375 203.21484375 438.603515625 179.130859375 450.255859375 159.203125 c 0
 461.9453125 139.201171875 475.15625 119.384765625 485.955078125 101.943359375 c 0
 495.826171875 85.94921875 503.65625 71.958984375 509.037109375 63.98046875 c 0
 513.67578125 57.189453125 516.49609375 55.51953125 522.0625 48.54296875 c 0
 524.177734375 45.908203125 525.7734375 43.5703125 526.73828125 42.0859375 c 0
 525.958984375 42.939453125 l 0
 520.80078125 47.05859375 l 0
 522.28515625 46.16796875 516.79296875 49.13671875 521.134765625 46.947265625 c 0
 531.376953125 41.826171875 534.568359375 32.251953125 535.34765625 27.724609375 c 0
 535.71875 25.68359375 535.755859375 24.19921875 535.755859375 23.30859375 c 0
 535.755859375 22.900390625 535.755859375 22.900390625 535.755859375 22.751953125 c 0
 535.755859375 23.45703125 l 0
 535.458984375 26.685546875 l 0
 537.611328125 12.732421875 528.07421875 -0.330078125 514.083984375 -2.51953125 c 0
 500.130859375 -4.671875 487.03125 4.90234375 484.87890625 18.85546875 c 0
 483.357421875 28.615234375 485.509765625 15.58984375 484.916015625 19.00390625 c 0
 487.736328125 11.13671875 l 0
 485.76953125 14.625 503.099609375 -1.2578125 498.23828125 1.154296875 c 0
 499.537109375 0.59765625 l 0
 497.087890625 1.599609375 491.9296875 4.234375 487.736328125 8.984375 c 0
 483.0234375 14.291015625 483.83984375 14.4765625 482.1328125 16.62890625 c 0
 481.279296875 17.630859375 474.33984375 24.05078125 466.6953125 35.33203125 c 0
 459.19921875 46.390625 451.666015625 60.12109375 442.42578125 75.11328125 c 0
 432.2578125 91.515625 418.712890625 111.814453125 406.095703125 133.44921875 c 0
 393.58984375 154.82421875 380.861328125 179.2421875 369.728515625 199.4296875 c 0
 358.818359375 219.208984375 347.759765625 238.505859375 339.1875 254.833984375 c 0
 330.986328125 270.419921875 325.234375 282.888671875 320.55859375 293.01953125 c 0
 315.95703125 303.0390625 312.765625 310.609375 310.16796875 317.994140625 c 0
 307.5703125 325.490234375 306.16015625 332.05859375 305.26953125 337.55078125 c 0
 303.970703125 345.603515625 304.23046875 351.763671875 304.08203125 353.8046875 c 0
 303.7109375 357.9609375 303.63671875 359.890625 303.5625 360.298828125 c 0
 303.525390625 360.41015625 303.970703125 359 303.970703125 359 c 0
 305.41796875 356.068359375 l 0
 310.76171875 350.056640625 l 0
 307.904296875 352.3203125 325.75390625 344.416015625 321.560546875 345.158203125 c 0
 318.443359375 345.751953125 330.615234375 345.26953125 330.615234375 345.26953125 c 0
 326.5703125 344.416015625 339.9296875 349.388671875 339.9296875 349.388671875 c 0
 344.345703125 353.767578125 l 0
 344.345703125 353.767578125 346.63762865 358.575830292 345.458984375 354.91796875 c 0
 344.865234375 352.9140625 343.380859375 344.97265625 339.669921875 333.654296875 c 0
 336.330078125 323.44921875 332.3515625 308.778320312 323.67578125 288.7890625 c 0
 314.76953125 268.267578125 302.571289062 239.434570312 289.8203125 213.748046875 c 0
 277.017578125 187.95703125 261.961914062 155.78125 250 132 c 0
 237.494140625 107.13671875 223.459960938 71.0791015625 215.916015625 54.5703125 c 0
 209.607421875 40.765625 207.4921875 32.75 204.375 24.21484375 c 0
 202.51953125 19.16796875 206.416015625 25.625 200.849609375 13.08203125 c 0
 201.77734375 15.642578125 l 0
 202.333984375 18.240234375 l 0
 202.59375 20.65234375 l 0
 202.22265625 26.552734375 l 1024
67.435546875 723.84375 m 0
 81.537109375 722.544921875 91.890625 710.11328125 90.62890625 696.048828125 c 0
 89.330078125 681.947265625 76.8984375 671.59375 62.796875 672.85546875 c 0
 53.96484375 673.708984375 50.587890625 675.97265625 50.328125 676.046875 c 0
 55.15234375 675.490234375 l 0
 52.443359375 675.341796875 62.5 677.642578125 62.5 677.642578125 c 0
 56.63671875 674.19140625 53.7421875 674.4140625 53.037109375 674.265625 c 0
 52.666015625 674.228515625 54.892578125 674.7109375 54.892578125 674.7109375 c 0
 52.146484375 673.96875 64.7265625 680.0546875 64.7265625 680.0546875 c 0
 69.03125 685.583984375 l 0
 70.21875 688.515625 l 0
 70.181640625 688.255859375 69.958984375 686.8828125 69.810546875 684.619140625 c 0
 68.140625 652.7421875 64.392578125 646.081054688 67.91796875 595.4609375 c 0
 69.7734375 568.81640625 78.0546875 502.40625 86.0703125 458.3203125 c 0
 94.30859375 413.046875 104.810546875 361.650390625 115.201171875 316.302734375 c 0
 124.9609375 273.8125 136.650390625 231.025390625 146.224609375 196.03125 c 0
 155.5390625 162.001953125 164.296875 133.576171875 171.533203125 110.75390625 c 0
 178.138671875 89.8984375 183.66796875 76.16796875 188.26953125 63.328125 c 0
 192.240234375 52.34375 194.541015625 46.220703125 196.43359375 41.544921875 c 0
 197.6953125 38.46484375 196.619140625 40.98828125 198.919921875 36.7578125 c 0
 200.73828125 33.4921875 201.92578125 29.9296875 202.4453125 26.330078125 c 0
 202.927734375 22.73046875 206.6015625 23.361328125 199.7734375 10.26171875 c 0
 193.2421875 -2.28125 177.767578125 -7.142578125 165.224609375 -0.611328125 c 0
 152.71875 5.95703125 147.857421875 21.39453125 154.388671875 33.9375 c 0
 152.49609375 29.224609375 l 0
 151.53125 22.87890625 l 0
 151.642578125 27.2578125 154.166015625 11.931640625 154.166015625 11.931640625 c 0
 152.607421875 14.677734375 151.6796875 15.791015625 149.0078125 22.28515625 c 0
 146.744140625 27.888671875 144.18359375 34.716796875 140.138671875 45.998046875 c 0
 135.9453125 57.650390625 129.859375 72.828125 122.734375 95.279296875 c 0
 115.38671875 118.47265625 106.40625 147.640625 96.869140625 182.5234375 c 0
 87.2578125 217.62890625 75.3828125 261.046875 65.326171875 304.873046875 c 0
 54.712890625 351.07421875 44.099609375 403.064453125 35.712890625 449.1171875 c 0
 27.623046875 493.5 19.10546875 559.65234375 16.85546875 591.8984375 c 0
 13.033203125 646.671875 17.15234375 657.12109375 18.7109375 687.291015625 c 0
 19.193359375 696.642578125 19.52734375 704.32421875 26.244140625 713.453125 c 0
 29.806640625 718.3515625 36.30078125 722.58203125 41.2734375 724.029296875 c 0
 43.5 724.734375 45.05859375 724.8828125 45.05859375 724.8828125 c 0
 45.20703125 724.919921875 43.091796875 724.474609375 43.091796875 724.474609375 c 0
 36.44921875 721.728515625 l 0
 45.986328125 727.369140625 58.677734375 726.88671875 64.912109375 725.03125 c 0
 67.6953125 724.177734375 69.291015625 723.546875 69.84765625 723.32421875 c 0
 70.14453125 723.25 67.435546875 723.76953125 67.435546875 723.76953125 c 1024
EndSplineSet
EndChar

StartChar: X
Encoding: 88 88 23
Width: 700
Flags: HW
LayerCount: 2
Fore
SplineSet
552.080078125 723.419921875 m 4
 565.736328125 727.130859375 579.80078125 719.078125 583.51171875 705.458984375 c 4
 587.22265625 691.802734375 579.20703125 677.73828125 565.55078125 674.02734375 c 4
 558.0546875 671.986328125 545.66015625 674.880859375 540.6875 678.740234375 c 4
 539.091796875 679.890625 538.349609375 680.70703125 538.23828125 680.818359375 c 4
 538.201171875 680.85546875 539.9453125 679.408203125 539.9453125 679.408203125 c 4
 537.64453125 681.041015625 556.19921875 674.6953125 551.5234375 675.103515625 c 4
 548.146484375 675.400390625 559.650390625 675.95703125 559.650390625 675.95703125 c 4
 562.73046875 677.255859375 l 4
 562.43359375 677.107421875 561.3203125 676.25390625 559.61328125 674.806640625 c 4
 556.755859375 672.431640625 560.392578125 675.51171875 559.01953125 673.953125 c 4
 553.97265625 668.498046875 544.138671875 657.439453125 531.744140625 643.078125 c 4
 513.96875 622.4453125 498.5859375 604.8359375 472.349609375 571.51171875 c 0
 444.33203125 535.923828125 410.63671875 488.794921875 377.943359375 445.005859375 c 0
 344.8046875 400.5859375 309.736328125 354.34765625 277.599609375 310.595703125 c 0
 246.76171875 268.587890625 215.626953125 224.984375 189.650390625 188.580078125 c 0
 164.193359375 152.91796875 141.66796875 121.189453125 124.560546875 96.103515625 c 0
 108.158203125 72.130859375 97.359375 54.35546875 87.93359375 39.771484375 c 0
 79.806640625 27.19140625 74.240234375 18.544921875 73.423828125 17.134765625 c 0
 72.34765625 15.31640625 71.60546875 14.0546875 71.345703125 13.609375 c 0
 71.30859375 13.498046875 71.45703125 13.7578125 71.45703125 13.7578125 c 0
 71.30859375 13.4609375 72.49609375 16.05859375 72.49609375 16.05859375 c 0
 73.38671875 18.916015625 l 0
 74.12890625 24.22265625 l 0
 72.8671875 33.017578125 l 0
 73.98046875 29.677734375 67.2265625 42.48046875 67.2265625 42.48046875 c 0
 69.564453125 39.994140625 60.17578125 47.787109375 60.17578125 47.787109375 c 0
 63.9609375 45.89453125 52.716796875 50.19921875 52.716796875 50.19921875 c 0
 53.49609375 50.05078125 l 0
 60.47265625 48.751953125 72.421875 37.767578125 74.240234375 30.45703125 c 0
 75.09375 27.080078125 70.71484375 38.3984375 70.71484375 38.3984375 c 0
 73.015625 34.947265625 64.962890625 44.41015625 64.962890625 44.41015625 c 0
 61.103515625 46.748046875 l 0
 62.291015625 46.154296875 61.103515625 47.044921875 64.62890625 45.2265625 c 0
 77.283203125 38.91796875 82.404296875 23.5546875 76.095703125 10.900390625 c 0
 69.75 -1.75390625 54.38671875 -6.875 41.732421875 -0.56640625 c 0
 40.099609375 0.32421875 42.734375 -0.974609375 41.138671875 -0.41796875 c 0
 40.2109375 0.02734375 38.986328125 0.47265625 36.759765625 1.771484375 c 0
 34.236328125 3.255859375 27.853515625 4.962890625 24.587890625 17.98828125 c 0
 23.8828125 20.771484375 33.75390625 3.626953125 30.265625 7.44921875 c 0
 27.1484375 10.86328125 41.287109375 0.435546875 41.287109375 0.435546875 c 0
 41.287109375 0.435546875 45.888671875 -0.56640625 45.888671875 -0.56640625 c 0
 45.888671875 -0.56640625 43.3145531052 -1.00510680123 37.5390625 1.80859375 c 0
 31.638671875 4.62890625 24.328125 13.83203125 23.251953125 21.291015625 c 0
 20.357421875 41.478515625 26.18359375 37.5078125 26.8515625 38.6953125 c 0
 27.482421875 39.845703125 28.150390625 40.958984375 29.15234375 42.703125 c 0
 31.861328125 47.3046875 36.833984375 54.837890625 44.998046875 67.455078125 c 0
 53.830078125 81.1484375 65.185546875 99.814453125 82.29296875 124.86328125 c 0
 99.845703125 150.505859375 122.482421875 182.419921875 148.013671875 218.193359375 c 0
 173.990234375 254.59765625 205.2734375 298.38671875 236.37109375 340.728515625 c 0
 268.8046875 384.888671875 303.947265625 431.23828125 336.9375 475.47265625 c 0
 369.259765625 518.7421875 403.029296875 566.01953125 432.123046875 603.017578125 c 0
 459.732421875 638.048828125 476.005859375 656.66015625 493.001953125 676.365234375 c 4
 509.775390625 695.810546875 517.642578125 706.23828125 526.771484375 713.8828125 c 4
 535.158203125 720.896484375 545.4375 731.3984375 563.84375 724.087890625 c 4
 568.1484375 722.380859375 570.89453125 720.080078125 572.23046875 718.892578125 c 4
 572.564453125 718.6328125 l 4
 569.669921875 720.7109375 l 4
 571.970703125 719.263671875 560.466796875 723.865234375 560.466796875 723.865234375 c 4
 563.84375 723.419921875 552.080078125 723.271484375 552.080078125 723.271484375 c 1028
93.369140625 714.94921875 m 0
 100.642578125 727.083984375 116.376953125 731.017578125 128.474609375 723.744140625 c 0
 140.609375 716.43359375 144.54296875 700.736328125 137.26953125 688.6015625 c 0
 132.927734375 681.40234375 125.876953125 677.876953125 122.759765625 676.689453125 c 0
 120.830078125 675.947265625 123.501953125 676.986328125 122.0546875 676.541015625 c 0
 128.4375 680.474609375 l 0
 126.396484375 678.693359375 133.818359375 687.302734375 133.818359375 687.302734375 c 0
 131.8515625 683.517578125 136.341796875 696.728515625 136.341796875 696.728515625 c 0
 136.119140625 699.95703125 l 0
 135.228515625 703.1484375 l 0
 135.748046875 701.701171875 136.119140625 700.884765625 141.091796875 693.72265625 c 0
 148.884765625 682.515625 155.453125 671.716796875 174.08203125 648.783203125 c 0
 215.830078125 597.349609375 259.861328125 543.892578125 313.669921875 478.9140625 c 0
 341.390625 445.44140625 375.45703125 403.990234375 405.73828125 366.91796875 c 0
 436.390625 329.36328125 466.89453125 291.548828125 494.912109375 256.8515625 c 0
 521.408203125 224.046875 547.8671875 191.8359375 569.130859375 164.560546875 c 0
 590.134765625 137.619140625 606.462890625 114.166015625 619.525390625 97.05859375 c 0
 632.03125 80.65625 640.751953125 70.376953125 648.619140625 60.46875 c 0
 655.669921875 51.5625 659.900390625 45.84765625 662.052734375 43.3984375 c 0
 662.052734375 43.3984375 661.458984375 43.546875 662.4609375 42.841796875 c 0
 658.3046875 45.291015625 l 0
 652.404296875 47.072265625 l 0
 655.3359375 46.478515625 635.37109375 44.4375 640.34375 46.0703125 c 0
 643.646484375 47.220703125 631.697265625 40.912109375 631.697265625 40.912109375 c 0
 627.578125 35.791015625 l 0
 625.462890625 30.78125 l 0
 625.9453125 32.5625 624.720703125 31.337890625 627.318359375 38.3515625 c 0
 632.291015625 51.599609375 647.060546875 58.279296875 660.271484375 53.34375 c 0
 673.51953125 48.37109375 680.236328125 33.6015625 675.263671875 20.390625 c 0
 675.96875 22.802734375 l 0
 675.89453125 22.24609375 675.783203125 20.205078125 674.484375 16.123046875 c 0
 673 11.373046875 668.138671875 1.353515625 656.5234375 -2.505859375 c 0
 637.5234375 -8.8515625 633.998046875 0.017578125 630.880859375 2.466796875 c 0
 627.94921875 4.767578125 625.833984375 7.03125 623.49609375 9.666015625 c 0
 618.931640625 14.8984375 615.03515625 20.353515625 608.50390625 28.62890625 c 0
 601.3046875 37.68359375 591.990234375 48.705078125 578.81640625 65.9609375 c 0
 564.751953125 84.3671875 548.869140625 107.2265625 528.755859375 133.0546875 c 0
 508.048828125 159.587890625 481.701171875 191.6875 455.09375 224.640625 c 0
 427.0390625 259.375 396.609375 297.115234375 366.068359375 334.521484375 c 0
 335.861328125 371.482421875 301.869140625 412.859375 274.22265625 446.220703125 c 0
 220.673828125 510.90234375 176.642578125 564.359375 134.30078125 616.498046875 c 0
 114.447265625 640.990234375 105.763671875 654.794921875 99.046875 664.48046875 c 0
 91.216796875 675.724609375 88.43359375 677.765625 85.984375 689.4921875 c 0
 85.16796875 693.5 84.3515625 698.361328125 86.169921875 705.15234375 c 0
 89.1015625 716.099609375 101.533203125 723.595703125 104.873046875 724.708984375 c 0
 103.091796875 724.00390625 l 0
 98.341796875 720.923828125 l 0
 93.369140625 715.060546875 l 1024
EndSplineSet
EndChar

StartChar: Y
Encoding: 89 89 24
Width: 598
Flags: HW
LayerCount: 2
Fore
SplineSet
316.525390625 324.462890625 m 0
 321.4609375 337.7109375 336.23046875 344.390625 349.478515625 339.455078125 c 0
 362.689453125 334.482421875 369.40625 319.712890625 364.43359375 306.501953125 c 0
 360.87109375 297.001953125 362.35546875 304.23828125 361.31640625 299.080078125 c 0
 361.501953125 300.08203125 l 0
 361.2421875 297.373046875 360.796875 291.6953125 360.27734375 285.015625 c 0
 359.4609375 274.513671875 357.939453125 261.93359375 357.494140625 248.27734375 c 0
 357.048828125 233.28515625 357.345703125 213.98828125 357.53125 195.248046875 c 0
 357.6796875 177.361328125 357.9765625 157.58203125 358.458984375 140.771484375 c 0
 358.94140625 123.73828125 359.38671875 107.224609375 360.27734375 95.572265625 c 0
 361.130859375 84.958984375 362.4296875 78.279296875 363.765625 70.5234375 c 0
 364.73046875 64.994140625 365.880859375 61.09765625 367.068359375 56.681640625 c 0
 367.69921875 54.380859375 367.921875 55.6796875 369.92578125 48.072265625 c 0
 370.96484375 44.17578125 371.55859375 38.943359375 371.6328125 38.126953125 c 0
 372.189453125 31.966796875 371.744140625 32.5234375 371.744140625 31.076171875 c 0
 371.744140625 29.77734375 371.70703125 28.775390625 371.70703125 28.0703125 c 0
 371.521484375 29.517578125 l 0
 367.55078125 38.83203125 l 0
 361.6875 44.287109375 l 0
 354.48828125 47.404296875 l 0
 357.494140625 46.662109375 344.765625 47.6640625 344.765625 47.6640625 c 0
 339.2734375 46.03125 l 0
 341.203125 46.921875 338.419921875 45.771484375 341.314453125 47.181640625 c 0
 353.96875 53.52734375 369.33203125 48.33203125 375.677734375 35.751953125 c 0
 381.986328125 23.09765625 376.865234375 7.734375 364.2109375 1.42578125 c 0
 363.060546875 0.83203125 365.84375 -0.7265625 353.189453125 -2.841796875 c 0
 338.345703125 -5.328125 329.216796875 4.54296875 326.619140625 7.994140625 c 0
 324.541015625 10.740234375 321.052734375 20.5 320.755859375 23.0234375 c 0
 319.939453125 29.5546875 320.533203125 30.22265625 320.533203125 30.927734375 c 0
 320.533203125 31.9296875 320.533203125 32.96875 320.5703125 33.896484375 c 0
 320.64453125 33.302734375 l 0
 318.214049114 62.954616438 321.38671875 31.224609375 320.458984375 34.75 c 0
 320.8671875 33.302734375 l 0
 320.19921875 35.046875 318.86328125 38.646484375 317.638671875 43.173828125 c 0
 316.599609375 47.033203125 314.78125 53.3046875 313.333984375 61.54296875 c 0
 312.072265625 68.7421875 310.25390625 78.205078125 309.251953125 91.453125 c 0
 308.17578125 105.18359375 307.767578125 122.03125 307.28515625 139.17578125 c 0
 306.765625 156.431640625 306.505859375 176.470703125 306.3203125 194.6171875 c 0
 306.171875 213.208984375 305.80078125 232.83984375 306.3203125 249.650390625 c 0
 306.83984375 265.94140625 308.546875 280.005859375 309.251953125 288.763671875 c 0
 309.919921875 297.744140625 309.400390625 300.341796875 311.0703125 308.876953125 c 0
 312.18359375 314.369140625 313.59375 319.23046875 315.8203125 323.423828125 c 0
 318.270066735 328.046005926 316.309480887 323.770742723 316.48828125 324.27734375 c 1024
327.064453125 276.443359375 m 0
 317.044921875 286.462890625 317.044921875 302.642578125 327.02734375 312.625 c 0
 337.046875 322.64453125 353.2265625 322.64453125 363.24609375 312.662109375 c 0
 365.212890625 310.658203125 366.548828125 308.728515625 367.328125 307.466796875 c 0
 367.216796875 307.615234375 l 0
 364.025390625 311.5859375 l 0
 359.498046875 315.22265625 l 0
 350.369140625 318.748046875 l 0
 354.19140625 318.04296875 333.892578125 316.521484375 337.900390625 317.89453125 c 0
 341.57421875 319.15625 329.10546875 312.884765625 329.10546875 312.884765625 c 0
 332.81640625 316.11328125 323.01953125 305.017578125 323.01953125 305.017578125 c 0
 321.126953125 299.93359375 l 0
 320.8671875 298.783203125 l 0
 321.572265625 303.05078125 321.23828125 288.7265625 321.23828125 288.7265625 c 0
 322.3515625 285.1640625 l 0
 321.943359375 286.166015625 319.791015625 297.373046875 320.8671875 304.23828125 c 0
 321.3125 307.169921875 322.017578125 317.44921875 326.322265625 332.107421875 c 0
 330.0703125 344.91015625 335.33984375 364.095703125 345.28515625 387.8828125 c 0
 356.12109375 413.748046875 371.70703125 445.625 386.625 476.3515625 c 0
 401.83984375 507.8203125 419.50390625 543.296875 435.275390625 573.65234375 c 0
 450.3046875 602.634765625 466.41015625 630.912109375 477.171875 650.802734375 c 0
 487.265625 669.505859375 493.203125 681.7890625 499.4375 692.365234375 c 0
 505.486328125 702.71875 511.1640625 708.65625 511.943359375 709.62109375 c 0
 515.580078125 714.185546875 520.3671875 718.119140625 520.9609375 718.564453125 c 0
 523.484375 720.53125 527.046875 722.53515625 529.71875 723.57421875 c 0
 529.013671875 723.12890625 l 0
 541.630859375 729.4375 557.03125 724.279296875 563.33984375 711.69921875 c 0
 569.6484375 699.044921875 564.52734375 683.681640625 551.91015625 677.3359375 c 0
 548.755859375 675.77734375 549.015625 676.07421875 547.90234375 675.666015625 c 0
 552.35546875 678.15234375 l 0
 551.01953125 677.150390625 551.91015625 677.55859375 551.91015625 677.55859375 c 0
 547.642578125 672.251953125 547.568359375 673.216796875 543.560546875 666.388671875 c 0
 538.84765625 658.3359375 532.6875 645.79296875 522.22265625 626.421875 c 0
 511.052734375 605.751953125 495.169921875 577.845703125 480.697265625 550.013671875 c 0
 465.22265625 520.21484375 447.744140625 485.03515625 432.677734375 453.974609375 c 0
 417.796875 423.248046875 402.396484375 391.705078125 392.48828125 368.029296875 c 0
 383.8046875 347.28515625 379.3515625 330.95703125 375.455078125 317.634765625 c 0
 372.375 307.1328125 372.59765625 303.755859375 371.41015625 296.22265625 c 0
 371.224609375 298.89453125 l 0
 369.888671875 304.052734375 l 0
 370.408203125 302.75390625 374.044921875 306.427734375 371.373046875 290.322265625 c 0
 371.3359375 290.025390625 371.41015625 289.728515625 370.81640625 287.46484375 c 0
 370.556640625 286.314453125 370.333984375 284.681640625 368.107421875 280.78515625 c 0
 365.76953125 276.703125 357.30859375 267.240234375 344.431640625 267.982421875 c 0
 324.169921875 269.1328125 325.208984375 278.3359375 324.28125 279.8203125 c 0
 323.279296875 281.37890625 324.65234375 279.2265625 324.169921875 279.931640625 c 0
 327.1015625 276.33203125 l 1024
103.78515625 694.734375 m 4
 111.615234375 682.970703125 108.4609375 667.05078125 96.697265625 659.220703125 c 4
 84.93359375 651.390625 69.05078125 654.544921875 61.18359375 666.30859375 c 4
 59.736328125 668.53515625 57.658203125 671.35546875 55.0234375 675.623046875 c 4
 52.6484375 679.4453125 52.796875 679.853515625 52.017578125 681.375 c 4
 51.609375 682.265625 50.71875 683.97265625 49.865234375 685.6796875 c 4
 49.01171875 687.349609375 49.642578125 682.451171875 46.525390625 693.3984375 c 4
 46.5625 693.1015625 l 4
 46.451171875 693.3984375 46.19140625 693.955078125 45.783203125 695.736328125 c 4
 45.337890625 697.62890625 39.623046875 701.080078125 49.271484375 715.775390625 c 4
 54.28125 723.3828125 66.3046875 727.873046875 73.1328125 727.205078125 c 4
 92.28125 725.38671875 87.828125 720.78515625 88.64453125 720.005859375 c 4
 90.388671875 718.3359375 90.27734375 718.3359375 91.09375 717.51953125 c 4
 91.61328125 716.962890625 96.06640625 712.806640625 101.6328125 705.79296875 c 4
 107.607421875 698.22265625 112.83984375 690.095703125 121.412109375 679.408203125 c 4
 129.947265625 668.720703125 128.71484375 670.5078125 143.892578125 650.171875 c 0
 159.515625 629.31640625 177.625 602.375 194.76953125 577.251953125 c 0
 212.470703125 551.349609375 231.359375 524.22265625 249.283203125 495.9453125 c 0
 266.984375 468.0390625 284.57421875 436.34765625 298.787109375 413.154296875 c 0
 312.591796875 390.591796875 324.689453125 372.185546875 334.560546875 356.63671875 c 0
 344.09765625 341.64453125 351.037109375 330.51171875 356.083984375 322.978515625 c 0
 359.90625 317.2265625 360.57421875 317.15234375 363.951171875 312.55078125 c 0
 365.064453125 311.029296875 365.91796875 309.767578125 366.697265625 308.505859375 c 0
 367.068359375 307.912109375 367.439453125 307.20703125 367.625 306.91015625 c 0
 367.662109375 306.798828125 367.365234375 307.318359375 367.365234375 307.318359375 c 0
 364.693359375 311.140625 l 0
 373.822265625 300.341796875 372.486328125 284.19921875 361.724609375 275.0703125 c 0
 350.92578125 265.94140625 334.783203125 267.27734375 325.654296875 278.0390625 c 0
 319.565426563 285.227857772 323.033113288 281.831420425 322.982421875 281.82421875 c 0
 322.72265625 282.26953125 322.611328125 282.26953125 322.611328125 282.26953125 c 0
 322.57421875 282.306640625 318.751953125 286.611328125 313.4453125 294.58984375 c 0
 307.73046875 303.19921875 300.75390625 314.33203125 291.328125 329.17578125 c 0
 281.75390625 344.279296875 269.359375 363.130859375 255.072265625 386.435546875 c 0
 240.04296875 410.96484375 222.638671875 442.322265625 206.013671875 468.55859375 c 0
 188.83203125 495.6484375 170.27734375 522.29296875 152.46484375 548.380859375 c 0
 135.208984375 573.615234375 117.248046875 600.259765625 102.849609375 619.51953125 c 0
 89.6015625 637.220703125 92.095703125 634.060546875 81.408203125 647.419921875 c 4
 71.5 659.814453125 65.265625 669.203125 61.40625 674.1015625 c 4
 57.880859375 678.517578125 56.87890625 679.296875 54.875 681.337890625 c 4
 53.91015625 682.19140625 53.205078125 683.0078125 52.833984375 683.416015625 c 4
 52.57421875 683.712890625 53.6875 682.5625 53.6875 682.5625 c 4
 58.623046875 679.111328125 l 4
 62.111328125 677.552734375 l 4
 68.123046875 676.25390625 l 4
 65.48828125 676.55078125 77.734375 677.14453125 77.734375 677.14453125 c 4
 74.060546875 676.142578125 88.125 683.0078125 88.125 683.0078125 c 4
 85.341796875 680.41015625 93.9140625 691.09765625 93.9140625 691.09765625 c 4
 91.798828125 686.458984375 96.21484375 701.228515625 96.21484375 701.228515625 c 4
 95.546875 707.462890625 l 4
 94.953125 709.615234375 l 4
 95.1015625 709.169921875 95.361328125 708.31640625 95.658203125 707.388671875 c 4
 94.470703125 710.6171875 l 4
 94.990234375 709.466796875 96.5859375 706.53515625 97.736328125 704.197265625 c 4
 98.8125 702.0078125 96.919921875 705.05078125 98.515625 702.37890625 c 4
 100.111328125 699.78125 101.484375 698 103.7109375 694.623046875 c 1028
EndSplineSet
EndChar

StartChar: Z
Encoding: 90 90 25
Width: 722
Flags: HW
LayerCount: 2
Fore
SplineSet
666.01953125 710.638671875 m 0
 680.083984375 709.005859375 690.140625 696.314453125 688.544921875 682.287109375 c 0
 686.94921875 668.259765625 674.2578125 658.166015625 660.193359375 659.76171875 c 0
 656.4453125 660.20703125 668.208984375 660.05859375 668.208984375 660.05859375 c 0
 673.775390625 661.876953125 l 0
 676.55859375 663.435546875 l 0
 675.556640625 662.841796875 674.92578125 662.13671875 674.92578125 662.13671875 c 0
 672.99609375 660.50390625 668.134765625 656.681640625 658.189453125 648.18359375 c 0
 646.091796875 637.8671875 631.099609375 626.140625 610.65234375 607.177734375 c 0
 587.978515625 586.173828125 559.404296875 559.71484375 528.158203125 527.541015625 c 0
 496.1328125 494.55078125 456.611328125 452.98828125 422.0625 413.021484375 c 0
 386.771484375 372.1640625 350.0703125 326.22265625 319.7890625 286.29296875 c 0
 290.064453125 247.1796875 265.349609375 209.1796875 241.7109375 175.298828125 c 0
 220.150390625 144.349609375 201.78125 115.58984375 184.376953125 92.2109375 c 0
 167.7890625 69.87109375 154.1328125 53.39453125 140.439453125 39.330078125 c 0
 126.263671875 24.8203125 112.64453125 15.505859375 102.365234375 8.529296875 c 0
 90.3046875 0.40234375 79.3203125 -3.6796875 73.16015625 -6.240234375 c 0
 62.880859375 -10.5078125 55.236328125 -11.287109375 53.86328125 -11.546875 c 0
 52.3046875 -11.806640625 54.123046875 -12.548828125 45.25390625 -12.95703125 c 0
 43.361328125 -13.03125 40.466796875 -16.556640625 28.8515625 -7.91015625 c 0
 22.6171875 -3.30859375 17.236328125 9.53125 19.091796875 18.029296875 c 0
 21.986328125 31.537109375 27.0703125 31.908203125 28.888671875 33.20703125 c 0
 36.64453125 38.99609375 35.75390625 37.029296875 38.3515625 38.142578125 c 0
 41.83984375 39.58984375 48.927734375 43.486328125 65.44140625 47.791015625 c 0
 80.2109375 51.650390625 103.181640625 58.107421875 131.421875 62.5234375 c 0
 160.404296875 67.087890625 197.142578125 71.4296875 232.990234375 74.17578125 c 0
 270.13671875 76.958984375 310.95703125 78.962890625 348.66015625 78.962890625 c 0
 385.064453125 78.962890625 421.39453125 76.10546875 450.822265625 74.17578125 c 0
 480.17578125 72.24609375 504.890625 69.5 525.59765625 67.458984375 c 0
 546.787109375 65.380859375 563.00390625 63.005859375 576.548828125 61.818359375 c 0
 589.240234375 60.66796875 599.037109375 60.296875 608.314453125 60 c 0
 616.552734375 59.703125 624.16015625 60 630.208984375 60 c 0
 639.337890625 60 644.34765625 60 651.02734375 60 c 0
 665.166015625 60 676.6328125 48.5703125 676.6328125 34.431640625 c 0
 676.6328125 20.29296875 665.166015625 8.826171875 651.02734375 8.826171875 c 0
 644.34765625 8.826171875 639.337890625 8.826171875 630.208984375 8.826171875 c 0
 625.830078125 8.826171875 616.88671875 8.529296875 606.5703125 8.86328125 c 0
 597.181640625 9.123046875 586.048828125 9.568359375 571.984375 10.830078125 c 0
 556.509765625 12.27734375 540.626953125 14.578125 520.587890625 16.544921875 c 0
 499.47265625 18.623046875 475.57421875 21.2578125 447.482421875 23.11328125 c 0
 417.720703125 25.04296875 382.466796875 27.7890625 348.66015625 27.7890625 c 0
 312.73828125 27.7890625 272.95703125 25.859375 236.849609375 23.11328125 c 0
 202.5234375 20.515625 166.712890625 16.28515625 139.36328125 11.98046875 c 0
 114.3515625 8.083984375 93.681640625 2.294921875 78.35546875 -1.712890625 c 0
 66.517578125 -4.79296875 64.10546875 -6.57421875 58.01953125 -9.09765625 c 0
 56.4609375 -9.83984375 56.201171875 -9.83984375 55.830078125 -10.099609375 c 0
 55.5703125 -10.2109375 58.31640625 -8.689453125 58.31640625 -8.689453125 c 0
 62.9921875 -4.681640625 l 0
 67.66796875 2.5546875 l 0
 65.923828125 -1.490234375 65.998046875 27.7890625 68.373046875 20.6640625 c 0
 70.673828125 13.798828125 53.71484375 36.6953125 57.42578125 34.431640625 c 0
 60.728515625 32.390625 49.818359375 37.51171875 49.818359375 37.51171875 c 0
 43.91796875 38.068359375 l 0
 40.1328125 37.80859375 l 0
 40.20703125 37.80859375 42.0625 38.216796875 44.4375 38.662109375 c 0
 47.77734375 39.21875 50.89453125 39.8125 53.56640625 40.92578125 c 0
 60.728515625 43.89453125 66.8515625 46.1953125 73.6796875 50.796875 c 0
 83.55078125 57.513671875 93.310546875 64.193359375 103.8125 74.955078125 c 0
 115.5390625 86.978515625 127.5625 101.4140625 143.296875 122.603515625 c 0
 159.142578125 143.904296875 177.548828125 172.6640625 199.740234375 204.4296875 c 0
 222.78515625 237.494140625 248.01953125 276.310546875 279.005859375 317.130859375 c 0
 309.91796875 357.876953125 347.138671875 404.412109375 383.357421875 446.345703125 c 0
 419.01953125 487.611328125 459.060546875 529.73046875 491.45703125 563.0546875 c 0
 523.7421875 596.341796875 553.1328125 623.505859375 575.806640625 644.583984375 c 0
 597.701171875 664.8828125 614.140625 677.72265625 624.939453125 686.962890625 c 0
 635.3671875 695.90625 641.75 700.990234375 642.34375 701.47265625 c 0
 644.384765625 703.1796875 645.869140625 704.330078125 647.46484375 705.443359375 c 0
 648.244140625 706.037109375 649.09765625 706.59375 650.58203125 707.447265625 c 0
 652.251953125 708.30078125 652.66015625 712.048828125 666.01953125 710.52734375 c 1024
144.001953125 725.51953125 m 0
 158.103515625 726.521484375 170.349609375 715.908203125 171.3515625 701.806640625 c 0
 172.353515625 687.7421875 161.740234375 675.49609375 147.638671875 674.45703125 c 0
 140.662109375 673.900390625 133.796875 673.603515625 128.341796875 673.046875 c 0
 128.3046875 673.046875 l 0
 128.08203125 673.009765625 129.9375 673.306640625 129.9375 673.306640625 c 0
 132.126953125 673.900390625 l 0
 137.248046875 676.08984375 l 0
 142.146484375 679.7265625 l 0
 140.142578125 677.833984375 150.19921875 693.642578125 148.41796875 689.078125 c 0
 146.673828125 684.55078125 148.009765625 709.822265625 149.345703125 704.701171875 c 0
 150.533203125 700.025390625 143.81640625 715.166015625 143.81640625 715.166015625 c 0
 138.9921875 719.43359375 l 0
 133.759765625 722.1796875 l 0
 137.359375 720.732421875 128.67578125 723.478515625 128.67578125 723.478515625 c 0
 128.044921875 723.552734375 l 0
 133.57421875 723.14453125 131.458984375 722.84765625 143.259765625 722.69921875 c 0
 157.9921875 722.55078125 181.333984375 722.69921875 210.279296875 722.69921875 c 0
 239.447265625 722.69921875 278.412109375 722.69921875 315.484375 722.69921875 c 0
 353.818359375 722.69921875 397.34765625 722.84765625 434.0859375 722.69921875 c 0
 470.52734375 722.55078125 504.630859375 722.25390625 533.01953125 721.697265625 c 0
 559.107421875 721.251953125 580.630859375 720.546875 597.330078125 719.767578125 c 0
 613.583984375 718.9140625 623.158203125 717.541015625 630.654296875 716.8359375 c 0
 639.15234375 716.130859375 644.978515625 715.388671875 649.728515625 714.943359375 c 0
 654.21875 714.498046875 657.484375 714.349609375 660.861328125 713.94140625 c 0
 662.53125 713.79296875 663.05078125 713.79296875 665.685546875 713.19921875 c 0
 669.025390625 712.642578125 673.58984375 710.52734375 673.849609375 710.37890625 c 0
 682.2734375 706.185546875 684.240234375 701.84375 686.20703125 697.8359375 c 0
 688.248046875 693.6796875 695.41015625 687.556640625 684.6484375 671.4140625 c 0
 684.462890625 671.1171875 685.76171875 673.26953125 685.76171875 673.26953125 c 0
 686.875 675.64453125 l 0
 688.544921875 682.1015625 l 0
 686.837890625 668.07421875 674.109375 658.0546875 660.08203125 659.724609375 c 0
 646.0546875 661.431640625 636.03515625 674.16015625 637.705078125 688.1875 c 0
 639.15234375 700.248046875 641.23046875 698.541015625 642.083984375 699.802734375 c 0
 644.904296875 704.033203125 638.001953125 688.55859375 638.001953125 688.55859375 c 0
 638.521484375 693.345703125 638.85546875 678.91015625 638.85546875 678.91015625 c 0
 638.001953125 681.8046875 642.1953125 672.08203125 642.1953125 672.08203125 c 0
 645.126953125 668.705078125 l 0
 650.990234375 664.623046875 l 0
 651.76953125 664.326171875 l 0
 657.26171875 662.767578125 l 0
 657.26171875 662.767578125 656.1484375 662.916015625 654.515625 663.064453125 c 0
 653.84765625 663.17578125 649.83984375 663.47265625 644.79296875 663.91796875 c 0
 639.486328125 664.51171875 633.994140625 665.068359375 625.94140625 665.810546875 c 0
 616.58984375 666.6640625 609.16796875 667.8515625 594.806640625 668.556640625 c 0
 578.923828125 669.298828125 557.845703125 670.00390625 532.12890625 670.44921875 c 0
 504.07421875 671.005859375 470.15625 671.154296875 433.900390625 671.451171875 c 0
 397.458984375 671.599609375 353.966796875 671.451171875 315.521484375 671.451171875 c 0
 278.412109375 671.451171875 239.447265625 671.451171875 210.31640625 671.451171875 c 0
 181.482421875 671.451171875 158.2890625 671.302734375 142.703125 671.451171875 c 0
 129.380859375 671.599609375 123.962890625 672.453125 123.814453125 672.453125 c 0
 122.515625 672.564453125 121.810546875 672.3046875 117.283203125 673.603515625 c 0
 115.09375 674.30859375 109.75 672.453125 102.291015625 685.552734375 c 0
 98.46875 692.306640625 98.54296875 704.033203125 102.1796875 710.6015625 c 0
 113.268832865 730.493431506 117.357421875 722.810546875 119.064453125 723.181640625 c 0
 124.111328125 724.369140625 123.40625 723.923828125 123.48046875 723.923828125 c 0
 130.494140625 724.62890625 137.65625 724.92578125 144.001953125 725.408203125 c 1024
EndSplineSet
EndChar

StartChar: z
Encoding: 122 122 26
Width: 435
Flags: HW
LayerCount: 2
Fore
SplineSet
78 406 m 0
 91 411 106 405 111 392 c 0
 116 379 110 363 97 358 c 0
 91 356 90 356 89 356 c 0
 90 356 l 0
 92 357 l 0
 97 360 l 0
 95 359 103 368 103 368 c 0
 101 365 106 382 106 378 c 0
 105 388 l 0
 106 384 99 397 99 397 c 0
 95 400 l 0
 90 403 l 0
 85 404 l 0
 89 403 88 404 95 404 c 0
 104 403 114 402 130 402 c 0
 148 402 174 402 199 402 c 0
 222 402 248 401 269 400 c 0
 289 399 306 398 320 397 c 0
 333 396 342 395 349 393 c 0
 350 393 352 393 358 391 c 0
 361 390 366 388 372 381 c 0
 378 373 379 359 376 353 c 0
 368 333 359 334 351 327 c 0
 340 318 326 307 309 292 c 0
 291 276 268 254 249 236 c 0
 230 218 170 153 154 135 c 0
 139 118 125 100 113 85 c 0
 103 72 95 60 88 49 c 0
 82 40 77 33 71 25 c 0
 68 21 64 17 62 14 c 0
 61 13 60 12 59 11 c 0
 60 12 l 0
 60 11 62 15 62 15 c 0
 60 11 57 8 55 6 c 0
 54 5 54 5 53 4 c 0
 55 6 l 0
 58 10 l 0
 61 18 l 0
 60 14 58 36 60 32 c 0
 62 28 53 41 53 41 c 0
 48 45 l 0
 43 47 l 0
 40 48 l 0
 41 48 42 48 44 48 c 0
 47 48 53 48 68 49 c 0
 84 50 110 52 136 54 c 0
 163 56 195 59 222 60 c 0
 249 61 278 61 299 60 c 0
 333 59 355.407226562 52.9189453125 380 48 c 0
 395 45 404 34 403 20 c 0
 402 6 388 -5 375 -3 c 0
 348.149414062 1.130859375 328 8 297 9 c 0
 280 10 251 11 224 9 c 0
 197 8 167 5 141 3 c 0
 116 1 90 -1 72 -2 c 0
 55 -3 47 -4 38 -3 c 0
 36 -3 35 -3 33 -3 c 0
 32 -3 32 -3 29 -2 c 0
 26 -1 20 -1 14 10 c 0
 8 20 11 33 14 37 c 0
 25 54 14 36 16 39 c 0
 22 50 22 47 24 49 c 0
 26 51 29 53 30 55 c 0
 34 60 39 68 46 79 c 0
 53 89 61 101 73 116 c 0
 85 131 99 150 116 169 c 0
 132 188 195 254 214 273 c 0
 234.505859375 293.505859375 259 316 276 331 c 0
 294 346 307 357 317 366 c 0
 322 371 327 375 330 377 c 0
 331 378 332 378 332 378 c 0
 331 377 l 0
 328 373 l 0
 329 375 327 362 327 362 c 0
 327 366 331 351 331 351 c 0
 329 354 337 345 337 345 c 0
 342 342 l 0
 340 343 341 342 336 343 c 0
 331 344 327 345 316 346 c 0
 304 347 287 348 267 349 c 0
 247 350 221 351 198 351 c 0
 175 351 149 351 129 351 c 0
 111 351 100 353 92 353 c 0
 88 353 85 353 82 353 c 0
 81 353 80 353 79 353 c 0
 79 353 78 354 77 354 c 0
 76 354 79 349 66 358 c 0
 62 361 53 369 55 383 c 0
 56 394 63 399 66 401 c 0
 81 411 74 404 78 406 c 1024
EndSplineSet
EndChar

StartChar: o
Encoding: 111 111 27
Width: 436
Flags: W
LayerCount: 2
Fore
SplineSet
192 358 m 0
 201 347 200 331 189 322 c 0
 178 313 162 314 153 325 c 0
 150 328 148 332 147 334 c 0
 145 338 154 327 154 327 c 0
 154 327 156 326 156 326 c 0
 155 326 151 327 150 327 c 0
 139 327 132 326 129 325 c 0
 121 321 110 314 102 305 c 0
 94 296 86 284 81 270 c 0
 75 255 71 236 70 219 c 0
 69 200 69 168 73 151 c 0
 77 133 84 114 93 102 c 0
 103 88 116 76 133 68 c 0
 152 59 179 51 204 49 c 0
 229 47 260 50 282 57 c 0
 306 64 328 76 340 89 c 0
 353 103 363 126 367 148 c 0
 370 168 366 209 359 232 c 0
 352 255 339 279 325 296 c 0
 313 311 294 323 276 333 c 0
 262 341 245 347 233 349 c 0
 221 351 214 351 213 350 c 0
 204 345 197 331 181 314 c 0
 171 304 154 303 144 313 c 0
 134 323 133 339 143 349 c 0
 153 359 163 381 188 395 c 0
 206 405 225 402 243 399 c 0
 261 396 282 389 302 377 c 0
 321 366 346 353 365 329 c 0
 383 306 399 277 408 247 c 0
 417 218 423 172 418 140 c 0
 413 109 400 78 378 54 c 0
 356 30 325 17 296 8 c 0
 265 -1 231 -4 200 -2 c 0
 168 0 137 10 111 22 c 0
 86 34 66 51 52 71 c 0
 36 92 28 117 23 139 c 0
 17 163 17 201 19 223 c 0
 21 245 25 268 33 288 c 0
 40 308 51 325 63 339 c 0
 77 354 93 365 108 372 c 0
 127 380 143 378 149 378 c 0
 162 378 169 377 177 373 c 0
 183 370 191 363 194 356 c 0
 195 353 195 353 195 352 c 0
 195 351 192 357 192 357 c 1024
EndSplineSet
EndChar

StartChar: i
Encoding: 105 105 28
Width: 182
Flags: HW
LayerCount: 2
Fore
SplineSet
106 506 m 0
 106 492 95 481 81 481 c 0
 67 481 55 492 55 506 c 0
 55 520 67 532 81 532 c 0
 95 532 106 520 106 506 c 1024
94 330 m 0
 106 322 109 306 101 294 c 0
 93 282 78 279 66 287 c 0
 52 296 58 296 57 298 c 0
 60 293 l 0
 58 295 75 287 70 288 c 0
 66 289 87 289 83 288 c 0
 91 291 l 0
 88 289 97 297 97 297 c 0
 99 300 l 0
 97 297 101 305 101 305 c 0
 100 302 101 304 101 304 c 0
 101 302 100 298 100 294 c 0
 99 283 97 273 98 259 c 0
 99 243 101 219 104 197 c 0
 107 176 110 152 113 132 c 0
 116 112 121 94 124 78 c 0
 127 64 129 54 131 45 c 0
 132 40 133 36 134 33 c 0
 134 32 135 31 135 31 c 0
 134 33 l 0
 134 32 132 36 132 36 c 0
 126 42 l 0
 128 40 118 46 118 46 c 0
 121 45 104 45 107 46 c 0
 99 43 l 0
 103 45 93 37 93 37 c 0
 95 39 91 34 91 34 c 0
 91 34 91 37 95 44 c 0
 102 56 118 60 130 53 c 0
 142 46 146 30 139 18 c 0
 138 16 140 20 140 19 c 0
 140 18 138 15 136 11 c 0
 135 9 133 4 127 0 c 0
 120 -5 104 -5 96 1 c 0
 85 9 87 13 86 15 c 0
 84 21 83 27 82 33 c 0
 80 42 77 53 74 68 c 0
 71 83 67 102 63 123 c 0
 60 144 56 168 53 191 c 0
 50 213 48 239 47 258 c 0
 46 277 49 290 49 297 c 0
 49 302 50 306 50 309 c 0
 50 312 45 307 52 322 c 0
 54 326 61 339 78 338 c 0
 90 337 96 331 98 328 c 0
 101 324 101 322 101 322 c 0
 101 322 100 324 101 323 c 0
 101 322 99 326 99 326 c 0
 94 330 l 1024
EndSplineSet
EndChar

StartChar: equal
Encoding: 61 61 29
Width: 550
Flags: HW
LayerCount: 2
Fore
SplineSet
473 173 m 0
 487 172 498 160 497 146 c 0
 496 132 484 121 470 122 c 0
 462 122 458 122 445 123 c 0
 443 123 433 124 419 124 c 0
 404 124 381 124 358 125 c 0
 337 126 313 128 291 129 c 0
 269 130 246 132 226 134 c 0
 205 136 186 138 169 139 c 0
 153 140 138 141 125 142 c 0
 112 143 100 144 91 144 c 0
 82 144 79 142 67 145 c 0
 64 146 59 146 52 153 c 0
 46 159 43 176 47 183 c 0
 51 192 54 192 54 192 c 0
 50 188 l 0
 47 181 l 0
 48 185 48 164 47 168 c 0
 44 182 51 196 65 199 c 0
 79 202 93 194 96 180 c 0
 100 164 91 157 89 155 c 0
 88 154 90 156 89 155 c 0
 89 154 91 157 91 157 c 0
 90 156 93 162 93 162 c 0
 95 170 l 0
 95 170 94 181 95 178 c 0
 96 173 88 190 88 190 c 0
 90 188 83 193 83 193 c 0
 79 195 l 0
 79 195 78 195 78 195 c 0
 78 195 76 196 76 196 c 0
 77 196 86 195 94 195 c 0
 103 194 115 194 128 193 c 0
 141 192 156 191 173 190 c 0
 191 188 210 186 230 184 c 0
 250 182 272 181 294 180 c 0
 316 179 340 177 360 176 c 0
 381 175 404 175 420 175 c 0
 434 175 443 174 447 174 c 0
 461 173 466 173 473 173 c 1024
82 400 m 0
 69 405 62 419 67 432 c 0
 72 445 86 453 99 448 c 0
 99 448 96 449 96 449 c 0
 98 449 99 448 101 448 c 0
 115 446 125 433 123 419 c 0
 121 405 108 395 94 397 c 0
 93 397 91 398 90 398 c 0
 90 398 94.8027756377 394.665510151 82 400 c 1024
66 417 m 0
 63 431 70 445 84 448 c 0
 98 451 112 444 115 430 c 0
 113 436 l 0
 110 440 l 0
 110 440 109 442 109 442 c 0
 119 432 119 415 109 405 c 0
 99 395 82 395 72 405 c 0
 71 406 68 407 66 417 c 1024
475 421 m 0
 488 415 492 399 486 386 c 0
 480 373 465 369 452 375 c 0
 449 376 443 378 439 389 c 0
 435 400 441 412 445 416 c 0
 456 427 456 423 457 423 c 0
 454 422 l 0
 455 422 451 420 451 420 c 0
 451 420 443 412 445 415 c 0
 447 418 440 403 440 403 c 0
 441 408 445 384 443 388 c 0
 441 392 449 380 449 380 c 0
 446 383 455 376 455 376 c 0
 459 375 l 0
 458 375 458 375 455 375 c 0
 450 375 424 377 398 378 c 0
 383 379 358 380 335 381 c 0
 314 382 292 384 272 386 c 0
 251 388 231 390 214 392 c 0
 197 394 183 395 170 396 c 0
 157 397 146 398 136 398 c 0
 127 398 118 398 110 398 c 0
 103 398 98 398 96 398 c 0
 94 398 92 398 91 398 c 0
 90 398 l 0
 93 398 l 0
 97 399 l 0
 101 400 l 0
 108 405 l 0
 97 396 80 396 71 407 c 0
 62 418 62 434 73 443 c 0
 90 458 90 449 91 449 c 0
 93 449 93 449 96 449 c 0
 98 449 103 449 110 449 c 0
 116 449 127 449 138 449 c 0
 149 449 161 448 174 447 c 0
 188 446 202 445 219 443 c 0
 237 441 257 439 277 437 c 0
 297 435 319 433 339 432 c 0
 360 431 386 430 401 429 c 0
 427 428 451 427 460 426 c 0
 464 426 466 426 470 425 c 0
 472 425 474 425 478 422 c 0
 480 421 484 418 487 413 c 0
 494 402 487 384 482 380 c 0
 470 370 471 374 471 374 c 0
 473 375 l 0
 472 375 476 377 476 377 c 0
 482 382 l 0
 480 380 489 398 488 393 c 0
 487 389 487 406 487 406 c 0
 484 413 l 0
 486 410 478 419 478 419 c 0
 475 421 l 1024
EndSplineSet
EndChar

StartChar: a
Encoding: 97 97 30
Width: 543
Flags: HW
LayerCount: 2
Fore
SplineSet
394 300 m 0
 397 286 388 272 374 269 c 0
 360 266 347 275 344 289 c 0
 343 293 342 296 341 301 c 0
 339 310 340 310 340 311 c 0
 340 313 342 305 342 305 c 0
 332 318 322 332 311 340 c 0
 309 342 298 345 284 347 c 0
 268 349 250 352 234 349 c 0
 216 346 193 337 173 327 c 0
 151 316 131 304 116 289 c 0
 102 275 88 253 79 233 c 0
 70 214 64.0043797516 194.999725664 63 179 c 0
 59.3663836056 121.116649219 66.1293094175 100.056454275 71 86 c 0
 74.5263176988 75.8233068491 82 68 91 62 c 0
 101 56 116 51 129 51 c 0
 144 51 162 54 179 62 c 0
 196 70 217 84 232 100 c 0
 247 116 262 139 272 159 c 0
 281 177 286 198 291 216 c 0
 294 229 294 291 295 301 c 0
 295 302 295 300 295 301 c 0
 295 299 l 0
 296 295 l 0
 296 296 298 292 298 292 c 0
 303 286 l 0
 301 288 320 279 314 280 c 0
 311 281 323 280 323 280 c 0
 317 279 340 289 337 286 c 0
 334 284 342 293 342 293 c 0
 340 290 344 300 344 300 c 0
 345 304 l 0
 345 306 l 0
 348 295 351.998046875 233.369140625 356 221 c 0
 367 187 371.447965333 182.290721556 383 164 c 0
 395 145 412 126 427 112 c 0
 440 100 457 89 470 81 c 0
 479 75 484 74 494 70 c 0
 500 68 502 67 507 65 c 0
 520 60 526 45 521 32 c 0
 516 19 501 13 488 18 c 0
 484 20 480 21 473 24 c 0
 469 26 457 29 443 38 c 0
 430 46 410 57 392 75 c 0
 374 92 356 114 341 136 c 0
 326 159 314 185 306 204 c 0
 298 225 295 292 295 293 c 0
 294 296 294 300 294 304 c 0
 294 306 293 307 294 310 c 0
 295 313 295 317 302 324 c 0
 309 331 328 331 335 326 c 0
 353 313 346 310 346 306 c 0
 346 303 346 299 346 295 c 0
 346 293 345 225 340 204 c 0
 336 186 330 161 317 136 c 0
 305 113 289 85 268 64 c 0
 248 43 224 26 200 15 c 0
 176 4 151 0 128 0 c 0
 104 0 82 8 64 19 c 0
 46 30 31.9994475435 44.9997790263 24 65 c 0
 15.3995284132 86.5029014539 3.23901595331 131.567283785 12 182 c 0
 16.1219102308 205.727828726 22 231 33 255 c 0
 44 278 58 304 79 325 c 0
 101 346 127 361 150 373 c 0
 174 385 200 395 225 399 c 0
 251 404 273 400 290 398 c 0
 308 396 326 393 341 382 c 0
 363 367 375 347 384 335 c 0
 389 328 391 319 391 313 c 0
 391 310 391 309 391 308 c 0
 391 309 l 0
 391 312 l 0
 392 307 393 304 394 300 c 1024
EndSplineSet
EndChar

StartChar: b
Encoding: 98 98 31
Width: 409
Flags: HW
LayerCount: 2
Fore
SplineSet
71 713 m 0
 78 725 94 730 106 723 c 0
 118 716 123 700 116 688 c 0
 114 684 110 680 108 678 c 0
 106 677 108 679 107 678 c 0
 113 685 l 0
 112 684 113 686 113 685 c 0
 112 682 113 685 113 681 c 0
 113 677 112 672 112 665 c 0
 111 649 109 626 108 600 c 0
 107 571 108 496 108 456 c 0
 108 417 108 389 108 347 c 0
 108 305 108 261 108 226 c 0
 108 191 108 142 108 117 c 0
 108 95 108 78 108 65 c 0
 108 53 108 46 108 40 c 0
 108 34 108 28 108 27 c 0
 108 23 107 18 106 15 c 0
 107 18 l 0
 107 25 l 0
 107 22 100 41 103 37 c 0
 105 33 95 45 95 45 c 0
 90 48 l 0
 86 49 l 0
 87 49 86 49 87 49 c 0
 91 48 97 46 103 39 c 0
 108 33 108 24 108 20 c 0
 108 20 108 19 108 18 c 0
 108 22 l 0
 108 22 105 36 107 32 c 0
 109 28 99 43 99 43 c 0
 102 41 90 47 90 47 c 0
 94 46 81 48 81 48 c 0
 83 48 78 47 78 47 c 0
 78 47 81 49 85 50 c 0
 89 51 104 56 120 63 c 0
 138 71 162 81 184 94 c 0
 208 108 237 126 257 142 c 0
 276 157 291.339039942 175.462327193 302 190 c 0
 313 205 316 228 316 235 c 0
 316 242 311.901947487 260.917663015 301 274 c 0
 291 286 274 301 257 311 c 0
 239 322 216 330 196 335 c 0
 176 340 155 342 141 340 c 0
 130 338 117 332 106 323 c 0
 98 317 91 305 84 294 c 0
 79 287 78 278 72 265 c 0
 66 252 51 245 38 251 c 0
 25 257 19 272 25 285 c 0
 29 294 32 307 41 322 c 0
 48 334 58 350 75 363 c 0
 89 374 108 387 133 391 c 0
 158 395 184 391 208 385 c 0
 233 379 260 369 283 355 c 0
 306 342 326 324 341 306 c 0
 355 289 369 270 369 245 c 0
 370 220 357 180 344 161 c 0
 330 141 311 120 289 102 c 0
 265 82 235 65 210 50 c 0
 185 35 159 24 141 16 c 0
 122 8 104 2 101 1 c 0
 94 -1 99 -6 80 -3 c 0
 72 -2 57 14 57 23 c 0
 57 28 58 28 58 29 c 0
 57 23 l 0
 57 26 59 13 59 13 c 0
 58 16 64 6 64 6 c 0
 61 9 72 0 72 0 c 0
 78 -2 l 0
 78 -2 83.8452078799 -6.48297593138 69 2 c 0
 62 6 55 20 56 26 c 0
 57 40 57 28 57 30 c 0
 57 30 57 27 57 27 c 0
 57 28 57 34 57 40 c 0
 57 46 57 53 57 65 c 0
 57 78 57 95 57 117 c 0
 57 142 57 191 57 226 c 0
 57 261 57 305 57 347 c 0
 57 389 57 417 57 456 c 0
 57 495 56 571 57 601 c 0
 58 629 60 653 61 668 c 0
 62 682 61 688 63 696 c 0
 64 703 67 710 73 716 c 0
 76 719 76 718 77 719 c 0
 79 720 71 713 71 713 c 1024
EndSplineSet
EndChar

StartChar: semicolon
Encoding: 59 59 33
Width: 246
Flags: HW
LayerCount: 2
Fore
SplineSet
78 106 m 0
 71 118 74 135 86 142 c 0
 98 149 115 145 122 133 c 0
 122 133 126 129 134 112 c 0
 138 103 151 78 159 53 c 0
 163 40 168 22 167 3 c 0
 166 -14 164 -32 154 -49 c 0
 139 -74 120 -90 107 -106 c 0
 98 -117 82 -118 71 -109 c 0
 60 -100 59 -84 68 -73 c 0
 85 -53 101 -40 110 -24 c 0
 113 -19 116 -6 116 5 c 0
 116 14 113 28 110 37 c 0
 104 57 93 81 88 91 c 0
 81 105 84 95 78 106 c 1024
97 487 m 0
 103 500 118 505 131 499 c 0
 144 493 149 477 143 464 c 0
 141 459 139 458 138 454 c 0
 137 451 138 455 138 455 c 0
 138 454 137 452 137 451 c 0
 136 449 135 447 135 445 c 0
 135 443 135 448 135 445 c 0
 135 450 l 0
 136 447 126 464 129 461 c 0
 132 458 122 466 122 466 c 0
 126 464 111 468 111 468 c 0
 115 468 94 458 98 462 c 0
 100 464 96 459 96 459 c 0
 96 459 97 460 97 461 c 0
 98 463 100 468 100 470 c 0
 100 473 100 475 100 476 c 0
 101 473 l 0
 100 476 107 465 107 465 c 0
 104 467 114 462 114 462 c 0
 114 462 116 462 116 462 c 0
 118 463 l 0
 118 463 119 464 118 463 c 0
 120 467 l 0
 120 466 120 465 120 465 c 0
 119 470 l 0
 121 465 130 454 138 441 c 0
 146 429 142 414 130 406 c 0
 118 398 103 402 95 414 c 0
 89 423 79 433 72 450 c 0
 66 466 70 478 72 484 c 0
 76 496 85 503 90 506 c 0
 99 512 107 513 113 513 c 0
 120 513 128 514 138 506 c 0
 147 499 150 487 151 481 c 0
 152 473 151 467 150 461 c 0
 149 454 147 448 145 443 c 0
 143 438 141 433 134 426 c 0
 124 416 111 415 101 419 c 0
 94 422 83 438 84 448 c 0
 85 458 87 462 88 464 c 0
 89 467 88 468 91 474 c 0
 94 481 96 485 97 487 c 1024
EndSplineSet
EndChar

StartChar: t
Encoding: 116 116 34
Width: 441
Flags: HW
HStem: 329 51<17.4176 79.5824>
VStem: 17 63<329.418 379.616>
LayerCount: 2
Fore
SplineSet
200 702 m 0
 201 716 213 727 227 726 c 0
 241 725 252 713 251 699 c 0
 249 674 248 663 245 616 c 0
 244 601 239 552 237 513 c 0
 235 472 233 425 231 382 c 0
 229 338 228 235 228 196 c 0
 228 159 228 123 229 97 c 0
 229 73 230 59 231 48 c 0
 232 39 232 38 233 31 c 0
 234 27 233 32 234 28 c 0
 237 14 228 0 214 -3 c 0
 200 -6 187 4 184 18 c 0
 184 20 183 23 183 23 c 0
 183 24 181 31 180 44 c 0
 179 56 178 72 178 96 c 0
 177 122 177 158 177 196 c 0
 177 236 177 340 179 384 c 0
 181 428 184 475 186 516 c 0
 188 556 193 606 194 620 c 0
 197 667 197 677 199 702 c 1024
43 329 m 0
 29 329 17 341 17 355 c 0
 17 369 29 380 43 380 c 0
 43 380 45 380 51 380 c 0
 59 380 68 380 86 380 c 0
 107 380 137 381 166 382 c 0
 196 383 232 385 262 387 c 0
 290 389 318 390 339 392 c 0
 359 394 378 395 380 396 c 0
 382 397 380 397 381 397 c 0
 381 397 377 393 377 393 c 0
 378 394 382 400 388 404 c 0
 400 412 415 410 423 398 c 0
 431 386 429 370 417 362 c 0
 417 362 420 365 420 365 c 0
 419 364 407 351 393 347 c 0
 380 343 364 343 344 341 c 0
 323 339 294 338 265 336 c 0
 234 334 199 332 168 331 c 0
 138 330 108 329 87 329 c 0
 68 329 58 329 51 329 c 0
 45 329 43 329 43 329 c 1024
54 380 m 0
 68 380 80 369 80 355 c 0
 80 341 68 329 54 329 c 0
 50 329 45 329 43 329 c 0
 29 329 17 341 17 355 c 0
 17 369 29 380 43 380 c 0
 45 380 50 380 54 380 c 0
EndSplineSet
EndChar

StartChar: q
Encoding: 113 113 35
Width: 396
Flags: HW
LayerCount: 2
Fore
SplineSet
368 366 m 0
 379 357 380 341 371 330 c 0
 362 319 346 318 335 327 c 0
 327 334 332 331 329 333 c 0
 320.291502622 337.354248689 326.437253933 335 326 335 c 0
 326 335 325 335 320 336 c 0
 291 341 253 349 218 350 c 0
 202 350 177 347 158 341 c 0
 139 335 121 328 109 319 c 0
 96 309 85 294 78 279 c 0
 70 263 64 246 62 226 c 0
 60.109375 207.094726562 61 157 76 119 c 0
 83.9091796875 98.9638671875 93 83 105 73 c 0
 120 61 141 50 158 49 c 0
 175 48 203 56 224 68 c 0
 246 80 268 99 283 118 c 0
 297 137 308 165 315 189 c 0
 321 208 320 272 322 292 c 0
 323 308 323 323 323 332 c 0
 323 347 321 355 321 357 c 0
 322 354 l 0
 322 355 325 350 325 350 c 0
 328 347 l 0
 333 344 l 0
 333 344 344 341 341 341 c 0
 350 342 l 0
 345 341 362 348 362 348 c 0
 360 346 366 354 366 354 c 0
 368 358 l 0
 367 356 368 358 368 355 c 0
 366 326 363 245 363 193 c 0
 363 164 365 114 367 69 c 0
 369 23 370 -33 373 -75 c 0
 378 -154 383 -268 388 -325 c 0
 390 -349 391 -341 393 -354 c 0
 395 -368 385 -381 371 -383 c 0
 357 -385 344 -376 342 -362 c 0
 341 -357 339 -355 337 -329 c 0
 332 -271 327 -158 322 -78 c 0
 319 -35 317 21 315 67 c 0
 313 112 312 162 312 193 c 0
 312 247 314 330 316 359 c 0
 316 363 317 366 318 370 c 0
 319 373 319 377 325 384 c 0
 330 390 347 394 356 390 c 0
 377 380 369 373 370 370 c 0
 373 360 374 350 374 333 c 0
 374 324 375 306 373 287 c 0
 372 270 373 202 364 174 c 0
 356 148 344 115 323 87 c 0
 303 61 276 38 248 23 c 0
 221 8 188 -4 156 -2 c 0
 123 0 94 16 73 33 c 0
 51 51 39.2255859375 77.95703125 28 101 c 0
 9 140 10 200 11 227 c 0
 12 254 21 280 32 302 c 0
 43 324 59 344 78 359 c 0
 98 375 121 383 143 390 c 0
 167 397 195 403 219 402 c 0
 260 401 301 392 328 387 c 0
 337 386 343 384 349 381 c 0
 352 380 355 377 356 376 c 0
 357 375 357 376 357 376 c 0
 354 378 l 0
 359 375 364 371 367 367 c 0
 368 366 l 1024
EndSplineSet
EndChar

